<svg class="main-svg" xmlns="http://www.w3.org/2000/svg" xmlns:xlink="http://www.w3.org/1999/xlink" width="700" height="150" style="" viewBox="0 0 700 150"><rect x="0" y="0" width="700" height="150" style="fill: rgb(255, 255, 255); fill-opacity: 1;"/><defs id="defs-20a2ea"><g class="clips"><clipPath id="clip20a2eaxyplot" class="plotclip"><rect width="683" height="134"/></clipPath><clipPath class="axesclip" id="clip20a2eax"><rect x="17" y="0" width="683" height="150"/></clipPath><clipPath class="axesclip" id="clip20a2eay"><rect x="0" y="0" width="700" height="134"/></clipPath><clipPath class="axesclip" id="clip20a2eaxy"><rect x="17" y="0" width="683" height="134"/></clipPath></g><g class="gradients"/><g class="patterns"/></defs><g class="bglayer"><rect class="bg" x="17" y="0" width="683" height="134" style="fill: rgb(0, 102, 153); fill-opacity: 0.25; stroke-width: 0;"/></g><g class="layer-below"><g class="imagelayer"/><g class="shapelayer"/></g><g class="cartesianlayer"><g class="subplot xy"><g class="layer-subplot"><g class="shapelayer"/><g class="imagelayer"/></g><g class="minor-gridlayer"><g class="x"/><g class="y"/></g><g class="gridlayer"><g class="x"><path class="xgrid crisp" transform="translate(18.74,0)" d="M0,0v134" style="stroke: rgb(255, 255, 255); stroke-opacity: 1; stroke-width: 1px;"/><path class="xgrid crisp" transform="translate(193.17,0)" d="M0,0v134" style="stroke: rgb(255, 255, 255); stroke-opacity: 1; stroke-width: 1px;"/><path class="xgrid crisp" transform="translate(367.61,0)" d="M0,0v134" style="stroke: rgb(255, 255, 255); stroke-opacity: 1; stroke-width: 1px;"/><path class="xgrid crisp" transform="translate(542.04,0)" d="M0,0v134" style="stroke: rgb(255, 255, 255); stroke-opacity: 1; stroke-width: 1px;"/></g><g class="y"/></g><g class="zerolinelayer"><path class="yzl zl crisp" transform="translate(0,67)" d="M17,0h683" style="stroke: rgb(255, 255, 255); stroke-opacity: 1; stroke-width: 2px;"/></g><path class="xlines-below"/><path class="ylines-below"/><g class="overlines-below"/><g class="xaxislayer-below"/><g class="yaxislayer-below"/><g class="overaxes-below"/><g class="plot" transform="translate(17,0)" clip-path="url(#clip20a2eaxyplot)"><g class="scatterlayer mlayer"><g class="trace scatter tracec08236" style="stroke-miterlimit: 2; opacity: 1;"><g class="fills"/><g class="errorbars"/><g class="lines"><path class="js-line" d="M-149.84,67L-148.86,67" style="vector-effect: none; fill: none; stroke: rgb(0, 0, 0); stroke-opacity: 1; stroke-width: 3px; opacity: 1;"/></g><g class="points"/><g class="text"/></g><g class="trace scatter tracee4b659" style="stroke-miterlimit: 2; opacity: 1;"><g class="fills"><g><path class="js-fill" d="M-313.7,67L-313.7,50.25L-207.19,50.25L-207.19,33.5L-149.84,67L-207.19,100.5L-207.19,83.75L-313.7,83.75L-313.7,67Z" style="fill: rgb(128, 128, 128); fill-opacity: 0.5; stroke-width: 0;"/></g></g><g class="errorbars"/><g class="lines"><path class="js-line" d="M-313.7,67L-313.7,50.25L-207.19,50.25L-207.19,33.5L-149.84,67L-207.19,100.5L-207.19,83.75L-313.7,83.75L-313.7,67" style="vector-effect: none; fill: none; stroke: rgb(128, 128, 128); stroke-opacity: 1; stroke-width: 1.5px; opacity: 1;"/></g><g class="points"/><g class="text"/></g><g class="trace scatter trace8d4f42" style="stroke-miterlimit: 2; opacity: 1;"><g class="fills"/><g class="errorbars"/><g class="lines"><path class="js-line" d="M-118.96,67L-105.43,67" style="vector-effect: none; fill: none; stroke: rgb(0, 0, 0); stroke-opacity: 1; stroke-width: 3px; opacity: 1;"/></g><g class="points"/><g class="text"/></g><g class="trace scatter trace45bc69" style="stroke-miterlimit: 2; opacity: 1;"><g class="fills"><g><path class="js-fill" d="M-118.96,67L-118.96,50.25L-138.39,50.25L-138.39,33.5L-148.86,67L-138.39,100.5L-138.39,83.75L-118.96,83.75L-118.96,67Z" style="fill: rgb(128, 128, 128); fill-opacity: 0.5; stroke-width: 0;"/></g></g><g class="errorbars"/><g class="lines"><path class="js-line" d="M-118.96,67L-118.96,50.25L-138.39,50.25L-138.39,33.5L-148.86,67L-138.39,100.5L-138.39,83.75L-118.96,83.75L-118.96,67" style="vector-effect: none; fill: none; stroke: rgb(128, 128, 128); stroke-opacity: 1; stroke-width: 1.5px; opacity: 1;"/></g><g class="points"/><g class="text"/></g><g class="trace scatter trace339f48" style="stroke-miterlimit: 2; opacity: 1;"><g class="fills"/><g class="errorbars"/><g class="lines"><path class="js-line" d="M-80.13,67L-74.13,67" style="vector-effect: none; fill: none; stroke: rgb(0, 0, 0); stroke-opacity: 1; stroke-width: 3px; opacity: 1;"/></g><g class="points"/><g class="text"/></g><g class="trace scatter trace0ecc0f" style="stroke-miterlimit: 2; opacity: 1;"><g class="fills"><g><path class="js-fill" d="M-105.43,67L-105.43,50.25L-88.99,50.25L-88.99,33.5L-80.13,67L-88.99,100.5L-88.99,83.75L-105.43,83.75L-105.43,67Z" style="fill: rgb(128, 128, 128); fill-opacity: 0.5; stroke-width: 0;"/></g></g><g class="errorbars"/><g class="lines"><path class="js-line" d="M-105.43,67L-105.43,50.25L-88.99,50.25L-88.99,33.5L-80.13,67L-88.99,100.5L-88.99,83.75L-105.43,83.75L-105.43,67" style="vector-effect: none; fill: none; stroke: rgb(128, 128, 128); stroke-opacity: 1; stroke-width: 1.5px; opacity: 1;"/></g><g class="points"/><g class="text"/></g><g class="trace scatter tracefb5eb8" style="stroke-miterlimit: 2; opacity: 1;"><g class="fills"/><g class="errorbars"/><g class="lines"><path class="js-line" d="M-57.42,67L-52.96,67" style="vector-effect: none; fill: none; stroke: rgb(0, 0, 0); stroke-opacity: 1; stroke-width: 3px; opacity: 1;"/></g><g class="points"/><g class="text"/></g><g class="trace scatter tracec65d6a" style="stroke-miterlimit: 2; opacity: 1;"><g class="fills"><g><path class="js-fill" d="M-74.13,67L-74.13,50.25L-63.27,50.25L-63.27,33.5L-57.42,67L-63.27,100.5L-63.27,83.75L-74.13,83.75L-74.13,67Z" style="fill: rgb(128, 128, 128); fill-opacity: 0.5; stroke-width: 0;"/></g></g><g class="errorbars"/><g class="lines"><path class="js-line" d="M-74.13,67L-74.13,50.25L-63.27,50.25L-63.27,33.5L-57.42,67L-63.27,100.5L-63.27,83.75L-74.13,83.75L-74.13,67" style="vector-effect: none; fill: none; stroke: rgb(128, 128, 128); stroke-opacity: 1; stroke-width: 1.5px; opacity: 1;"/></g><g class="points"/><g class="text"/></g><g class="trace scatter tracee3832b" style="stroke-miterlimit: 2; opacity: 1;"><g class="fills"/><g class="errorbars"/><g class="lines"><path class="js-line" d="M-43.68,67L-39.63,67" style="vector-effect: none; fill: none; stroke: rgb(0, 0, 0); stroke-opacity: 1; stroke-width: 3px; opacity: 1;"/></g><g class="points"/><g class="text"/></g><g class="trace scatter trace16f414" style="stroke-miterlimit: 2; opacity: 1;"><g class="fills"><g><path class="js-fill" d="M-52.96,67L-52.96,50.25L-46.93,50.25L-46.93,33.5L-43.68,67L-46.93,100.5L-46.93,83.75L-52.96,83.75L-52.96,67Z" style="fill: rgb(128, 128, 128); fill-opacity: 0.5; stroke-width: 0;"/></g></g><g class="errorbars"/><g class="lines"><path class="js-line" d="M-52.96,67L-52.96,50.25L-46.93,50.25L-46.93,33.5L-43.68,67L-46.93,100.5L-46.93,83.75L-52.96,83.75L-52.96,67" style="vector-effect: none; fill: none; stroke: rgb(128, 128, 128); stroke-opacity: 1; stroke-width: 1.5px; opacity: 1;"/></g><g class="points"/><g class="text"/></g><g class="trace scatter traceb0ac95" style="stroke-miterlimit: 2; opacity: 1;"><g class="fills"/><g class="errorbars"/><g class="lines"><path class="js-line" d="M-23.13,67L-16.29,67" style="vector-effect: none; fill: none; stroke: rgb(0, 0, 0); stroke-opacity: 1; stroke-width: 3px; opacity: 1;"/></g><g class="points"/><g class="text"/></g><g class="trace scatter trace2f4fa7" style="stroke-miterlimit: 2; opacity: 1;"><g class="fills"><g><path class="js-fill" d="M-39.63,67L-39.63,50.25L-28.9,50.25L-28.9,33.5L-23.13,67L-28.9,100.5L-28.9,83.75L-39.63,83.75L-39.63,67Z" style="fill: rgb(128, 128, 128); fill-opacity: 0.5; stroke-width: 0;"/></g></g><g class="errorbars"/><g class="lines"><path class="js-line" d="M-39.63,67L-39.63,50.25L-28.9,50.25L-28.9,33.5L-23.13,67L-28.9,100.5L-28.9,83.75L-39.63,83.75L-39.63,67" style="vector-effect: none; fill: none; stroke: rgb(128, 128, 128); stroke-opacity: 1; stroke-width: 1.5px; opacity: 1;"/></g><g class="points"/><g class="text"/></g><g class="trace scatter trace6797a1" style="stroke-miterlimit: 2; opacity: 1;"><g class="fills"/><g class="errorbars"/><g class="lines"><path class="js-line" d="M0.1,67L8.44,67" style="vector-effect: none; fill: none; stroke: rgb(0, 0, 0); stroke-opacity: 1; stroke-width: 3px; opacity: 1;"/></g><g class="points"/><g class="text"/></g><g class="trace scatter trace7319d1" style="stroke-miterlimit: 2; opacity: 1;"><g class="fills"><g><path class="js-fill" d="M0.1,67L0.1,50.25L-10.55,50.25L-10.55,33.5L-16.29,67L-10.55,100.5L-10.55,83.75L0.1,83.75L0.1,67Z" style="fill: rgb(128, 128, 128); fill-opacity: 0.5; stroke-width: 0;"/></g></g><g class="errorbars"/><g class="lines"><path class="js-line" d="M0.1,67L0.1,50.25L-10.55,50.25L-10.55,33.5L-16.29,67L-10.55,100.5L-10.55,83.75L0.1,83.75L0.1,67" style="vector-effect: none; fill: none; stroke: rgb(128, 128, 128); stroke-opacity: 1; stroke-width: 1.5px; opacity: 1;"/></g><g class="points"/><g class="text"/></g><g class="trace scatter traced0e87c" style="stroke-miterlimit: 2; opacity: 1;"><g class="fills"/><g class="errorbars"/><g class="lines"><path class="js-line" d="M20.97,67L34.29,67" style="vector-effect: none; fill: none; stroke: rgb(0, 0, 0); stroke-opacity: 1; stroke-width: 3px; opacity: 1;"/></g><g class="points"/><g class="text"/></g><g class="trace scatter trace9b1adf" style="stroke-miterlimit: 2; opacity: 1;"><g class="fills"><g><path class="js-fill" d="M20.97,67L20.97,50.25L12.83,50.25L12.83,33.5L8.44,67L12.83,100.5L12.83,83.75L20.97,83.75L20.97,67Z" style="fill: rgb(128, 128, 128); fill-opacity: 0.5; stroke-width: 0;"/></g></g><g class="errorbars"/><g class="lines"><path class="js-line" d="M20.97,67L20.97,50.25L12.83,50.25L12.83,33.5L8.44,67L12.83,100.5L12.83,83.75L20.97,83.75L20.97,67" style="vector-effect: none; fill: none; stroke: rgb(128, 128, 128); stroke-opacity: 1; stroke-width: 1.5px; opacity: 1;"/></g><g class="points"/><g class="text"/></g><g class="trace scatter tracec1a7c9" style="stroke-miterlimit: 2; opacity: 1;"><g class="fills"/><g class="errorbars"/><g class="lines"><path class="js-line" d="M81.67,67L86.73,67" style="vector-effect: none; fill: none; stroke: rgb(0, 0, 0); stroke-opacity: 1; stroke-width: 3px; opacity: 1;"/></g><g class="points"/><g class="text"/></g><g class="trace scatter trace3cbbd8" style="stroke-miterlimit: 2; opacity: 1;"><g class="fills"><g><path class="js-fill" d="M81.67,67L81.67,50.25L50.87,50.25L50.87,33.5L34.29,67L50.87,100.5L50.87,83.75L81.67,83.75L81.67,67Z" style="fill: rgb(128, 128, 128); fill-opacity: 0.5; stroke-width: 0;"/></g></g><g class="errorbars"/><g class="lines"><path class="js-line" d="M81.67,67L81.67,50.25L50.87,50.25L50.87,33.5L34.29,67L50.87,100.5L50.87,83.75L81.67,83.75L81.67,67" style="vector-effect: none; fill: none; stroke: rgb(128, 128, 128); stroke-opacity: 1; stroke-width: 1.5px; opacity: 1;"/></g><g class="points"/><g class="text"/></g><g class="trace scatter trace0a361d" style="stroke-miterlimit: 2; opacity: 1;"><g class="fills"/><g class="errorbars"/><g class="lines"><path class="js-line" d="M137.14,67L137.83,67" style="vector-effect: none; fill: none; stroke: rgb(0, 0, 0); stroke-opacity: 1; stroke-width: 3px; opacity: 1;"/></g><g class="points"/><g class="text"/></g><g class="trace scatter trace1436da" style="stroke-miterlimit: 2; opacity: 1;"><g class="fills"><g><path class="js-fill" d="M137.14,67L137.14,50.25L104.37,50.25L104.37,33.5L86.73,67L104.37,100.5L104.37,83.75L137.14,83.75L137.14,67Z" style="fill: rgb(128, 128, 128); fill-opacity: 0.5; stroke-width: 0;"/></g></g><g class="errorbars"/><g class="lines"><path class="js-line" d="M137.14,67L137.14,50.25L104.37,50.25L104.37,33.5L86.73,67L104.37,100.5L104.37,83.75L137.14,83.75L137.14,67" style="vector-effect: none; fill: none; stroke: rgb(128, 128, 128); stroke-opacity: 1; stroke-width: 1.5px; opacity: 1;"/></g><g class="points"/><g class="text"/></g><g class="trace scatter trace5097b6" style="stroke-miterlimit: 2; opacity: 1;"><g class="fills"/><g class="errorbars"/><g class="lines"><path class="js-line" d="M184.27,67L191.07,67" style="vector-effect: none; fill: none; stroke: rgb(0, 0, 0); stroke-opacity: 1; stroke-width: 3px; opacity: 1;"/></g><g class="points"/><g class="text"/></g><g class="trace scatter tracec149f6" style="stroke-miterlimit: 2; opacity: 1;"><g class="fills"><g><path class="js-fill" d="M184.27,67L184.27,50.25L154.09,50.25L154.09,33.5L137.83,67L154.09,100.5L154.09,83.75L184.27,83.75L184.27,67Z" style="fill: rgb(128, 128, 128); fill-opacity: 0.5; stroke-width: 0;"/></g></g><g class="errorbars"/><g class="lines"><path class="js-line" d="M184.27,67L184.27,50.25L154.09,50.25L154.09,33.5L137.83,67L154.09,100.5L154.09,83.75L184.27,83.75L184.27,67" style="vector-effect: none; fill: none; stroke: rgb(128, 128, 128); stroke-opacity: 1; stroke-width: 1.5px; opacity: 1;"/></g><g class="points"/><g class="text"/></g><g class="trace scatter trace1180ef" style="stroke-miterlimit: 2; opacity: 1;"><g class="fills"/><g class="errorbars"/><g class="lines"><path class="js-line" d="M215.74,67L218.04,67" style="vector-effect: none; fill: none; stroke: rgb(0, 0, 0); stroke-opacity: 1; stroke-width: 3px; opacity: 1;"/></g><g class="points"/><g class="text"/></g><g class="trace scatter tracedfae4e" style="stroke-miterlimit: 2; opacity: 1;"><g class="fills"><g><path class="js-fill" d="M215.74,67L215.74,50.25L199.7,50.25L199.7,33.5L191.07,67L199.7,100.5L199.7,83.75L215.74,83.75L215.74,67Z" style="fill: rgb(128, 128, 128); fill-opacity: 0.5; stroke-width: 0;"/></g></g><g class="errorbars"/><g class="lines"><path class="js-line" d="M215.74,67L215.74,50.25L199.7,50.25L199.7,33.5L191.07,67L199.7,100.5L199.7,83.75L215.74,83.75L215.74,67" style="vector-effect: none; fill: none; stroke: rgb(128, 128, 128); stroke-opacity: 1; stroke-width: 1.5px; opacity: 1;"/></g><g class="points"/><g class="text"/></g><g class="trace scatter trace8aafc0" style="stroke-miterlimit: 2; opacity: 1;"><g class="fills"/><g class="errorbars"/><g class="lines"><path class="js-line" d="M243.12,67L245.21,67" style="vector-effect: none; fill: none; stroke: rgb(0, 0, 0); stroke-opacity: 1; stroke-width: 3px; opacity: 1;"/></g><g class="points"/><g class="text"/></g><g class="trace scatter trace04bb2c" style="stroke-miterlimit: 2; opacity: 1;"><g class="fills"><g><path class="js-fill" d="M243.12,67L243.12,50.25L226.82,50.25L226.82,33.5L218.04,67L226.82,100.5L226.82,83.75L243.12,83.75L243.12,67Z" style="fill: rgb(128, 128, 128); fill-opacity: 0.5; stroke-width: 0;"/></g></g><g class="errorbars"/><g class="lines"><path class="js-line" d="M243.12,67L243.12,50.25L226.82,50.25L226.82,33.5L218.04,67L226.82,100.5L226.82,83.75L243.12,83.75L243.12,67" style="vector-effect: none; fill: none; stroke: rgb(128, 128, 128); stroke-opacity: 1; stroke-width: 1.5px; opacity: 1;"/></g><g class="points"/><g class="text"/></g><g class="trace scatter trace17ce47" style="stroke-miterlimit: 2; opacity: 1;"><g class="fills"/><g class="errorbars"/><g class="lines"><path class="js-line" d="M272.08,67L273.09,67" style="vector-effect: none; fill: none; stroke: rgb(0, 0, 0); stroke-opacity: 1; stroke-width: 3px; opacity: 1;"/></g><g class="points"/><g class="text"/></g><g class="trace scatter traceb120b3" style="stroke-miterlimit: 2; opacity: 1;"><g class="fills"><g><path class="js-fill" d="M272.08,67L272.08,50.25L254.62,50.25L254.62,33.5L245.21,67L254.62,100.5L254.62,83.75L272.08,83.75L272.08,67Z" style="fill: rgb(128, 128, 128); fill-opacity: 0.5; stroke-width: 0;"/></g></g><g class="errorbars"/><g class="lines"><path class="js-line" d="M272.08,67L272.08,50.25L254.62,50.25L254.62,33.5L245.21,67L254.62,100.5L254.62,83.75L272.08,83.75L272.08,67" style="vector-effect: none; fill: none; stroke: rgb(128, 128, 128); stroke-opacity: 1; stroke-width: 1.5px; opacity: 1;"/></g><g class="points"/><g class="text"/></g><g class="trace scatter trace874e8c" style="stroke-miterlimit: 2; opacity: 1;"><g class="fills"/><g class="errorbars"/><g class="lines"><path class="js-line" d="M322.98,67L334.14,67" style="vector-effect: none; fill: none; stroke: rgb(0, 0, 0); stroke-opacity: 1; stroke-width: 3px; opacity: 1;"/></g><g class="points"/><g class="text"/></g><g class="trace scatter tracec318c5" style="stroke-miterlimit: 2; opacity: 1;"><g class="fills"><g><path class="js-fill" d="M322.98,67L322.98,50.25L290.55,50.25L290.55,33.5L273.09,67L290.55,100.5L290.55,83.75L322.98,83.75L322.98,67Z" style="fill: rgb(128, 128, 128); fill-opacity: 0.5; stroke-width: 0;"/></g></g><g class="errorbars"/><g class="lines"><path class="js-line" d="M322.98,67L322.98,50.25L290.55,50.25L290.55,33.5L273.09,67L290.55,100.5L290.55,83.75L322.98,83.75L322.98,67" style="vector-effect: none; fill: none; stroke: rgb(128, 128, 128); stroke-opacity: 1; stroke-width: 1.5px; opacity: 1;"/></g><g class="points"/><g class="text"/></g><g class="trace scatter tracee8d545" style="stroke-miterlimit: 2; opacity: 1;"><g class="fills"/><g class="errorbars"/><g class="lines"><path class="js-line" d="M348.86,67L353.61,67" style="vector-effect: none; fill: none; stroke: rgb(0, 0, 0); stroke-opacity: 1; stroke-width: 3px; opacity: 1;"/></g><g class="points"/><g class="text"/></g><g class="trace scatter trace9602e7" style="stroke-miterlimit: 2; opacity: 1;"><g class="fills"><g><path class="js-fill" d="M348.86,67L348.86,50.25L339.29,50.25L339.29,33.5L334.14,67L339.29,100.5L339.29,83.75L348.86,83.75L348.86,67Z" style="fill: rgb(255, 20, 20); fill-opacity: 0.5; stroke-width: 0;"/></g></g><g class="errorbars"/><g class="lines"><path class="js-line" d="M348.86,67L348.86,50.25L339.29,50.25L339.29,33.5L334.14,67L339.29,100.5L339.29,83.75L348.86,83.75L348.86,67" style="vector-effect: none; fill: none; stroke: rgb(255, 20, 20); stroke-opacity: 1; stroke-width: 1.5px; opacity: 1;"/></g><g class="points"/><g class="text"/></g><g class="trace scatter trace48f59f" style="stroke-miterlimit: 2; opacity: 1;"><g class="fills"/><g class="errorbars"/><g class="lines"><path class="js-line" d="M396.69,67" style="vector-effect: none; fill: none; stroke: rgb(0, 0, 0); stroke-opacity: 1; stroke-width: 3px; opacity: 1;"/></g><g class="points"/><g class="text"/></g><g class="trace scatter tracebd930a" style="stroke-miterlimit: 2; opacity: 1;"><g class="fills"><g><path class="js-fill" d="M353.61,67L353.61,50.25L381.61,50.25L381.61,33.5L396.69,67L381.61,100.5L381.61,83.75L353.61,83.75L353.61,67Z" style="fill: rgb(128, 128, 128); fill-opacity: 0.5; stroke-width: 0;"/></g></g><g class="errorbars"/><g class="lines"><path class="js-line" d="M353.61,67L353.61,50.25L381.61,50.25L381.61,33.5L396.69,67L381.61,100.5L381.61,83.75L353.61,83.75L353.61,67" style="vector-effect: none; fill: none; stroke: rgb(128, 128, 128); stroke-opacity: 1; stroke-width: 1.5px; opacity: 1;"/></g><g class="points"/><g class="text"/></g><g class="trace scatter trace19d3ad" style="stroke-miterlimit: 2; opacity: 1;"><g class="fills"/><g class="errorbars"/><g class="lines"><path class="js-line" d="M434.75,67L448.67,67" style="vector-effect: none; fill: none; stroke: rgb(0, 0, 0); stroke-opacity: 1; stroke-width: 3px; opacity: 1;"/></g><g class="points"/><g class="text"/></g><g class="trace scatter tracef514f4" style="stroke-miterlimit: 2; opacity: 1;"><g class="fills"><g><path class="js-fill" d="M396.59,67L396.59,50.25L421.39,50.25L421.39,33.5L434.75,67L421.39,100.5L421.39,83.75L396.59,83.75L396.59,67Z" style="fill: rgb(128, 128, 128); fill-opacity: 0.5; stroke-width: 0;"/></g></g><g class="errorbars"/><g class="lines"><path class="js-line" d="M396.59,67L396.59,50.25L421.39,50.25L421.39,33.5L434.75,67L421.39,100.5L421.39,83.75L396.59,83.75L396.59,67" style="vector-effect: none; fill: none; stroke: rgb(128, 128, 128); stroke-opacity: 1; stroke-width: 1.5px; opacity: 1;"/></g><g class="points"/><g class="text"/></g><g class="trace scatter trace64e113" style="stroke-miterlimit: 2; opacity: 1;"><g class="fills"/><g class="errorbars"/><g class="lines"><path class="js-line" d="M454.29,67L456.38,67" style="vector-effect: none; fill: none; stroke: rgb(0, 0, 0); stroke-opacity: 1; stroke-width: 3px; opacity: 1;"/></g><g class="points"/><g class="text"/></g><g class="trace scatter tracee36724" style="stroke-miterlimit: 2; opacity: 1;"><g class="fills"><g><path class="js-fill" d="M448.67,67L448.67,50.25L452.32,50.25L452.32,33.5L454.29,67L452.32,100.5L452.32,83.75L448.67,83.75L448.67,67Z" style="fill: rgb(128, 128, 128); fill-opacity: 0.5; stroke-width: 0;"/></g></g><g class="errorbars"/><g class="lines"><path class="js-line" d="M448.67,67L448.67,50.25L452.32,50.25L452.32,33.5L454.29,67L452.32,100.5L452.32,83.75L448.67,83.75L448.67,67" style="vector-effect: none; fill: none; stroke: rgb(128, 128, 128); stroke-opacity: 1; stroke-width: 1.5px; opacity: 1;"/></g><g class="points"/><g class="text"/></g><g class="trace scatter traceeffeda" style="stroke-miterlimit: 2; opacity: 1;"><g class="fills"/><g class="errorbars"/><g class="lines"><path class="js-line" d="M480.94,67L481.99,67" style="vector-effect: none; fill: none; stroke: rgb(0, 0, 0); stroke-opacity: 1; stroke-width: 3px; opacity: 1;"/></g><g class="points"/><g class="text"/></g><g class="trace scatter tracea946b2" style="stroke-miterlimit: 2; opacity: 1;"><g class="fills"><g><path class="js-fill" d="M456.38,67L456.38,50.25L472.34,50.25L472.34,33.5L480.94,67L472.34,100.5L472.34,83.75L456.38,83.75L456.38,67Z" style="fill: rgb(128, 128, 128); fill-opacity: 0.5; stroke-width: 0;"/></g></g><g class="errorbars"/><g class="lines"><path class="js-line" d="M456.38,67L456.38,50.25L472.34,50.25L472.34,33.5L480.94,67L472.34,100.5L472.34,83.75L456.38,83.75L456.38,67" style="vector-effect: none; fill: none; stroke: rgb(128, 128, 128); stroke-opacity: 1; stroke-width: 1.5px; opacity: 1;"/></g><g class="points"/><g class="text"/></g><g class="trace scatter trace4f545b" style="stroke-miterlimit: 2; opacity: 1;"><g class="fills"/><g class="errorbars"/><g class="lines"><path class="js-line" d="M500.79,67L507.17,67" style="vector-effect: none; fill: none; stroke: rgb(0, 0, 0); stroke-opacity: 1; stroke-width: 3px; opacity: 1;"/></g><g class="points"/><g class="text"/></g><g class="trace scatter tracef9f14d" style="stroke-miterlimit: 2; opacity: 1;"><g class="fills"><g><path class="js-fill" d="M481.99,67L481.99,50.25L494.21,50.25L494.21,33.5L500.79,67L494.21,100.5L494.21,83.75L481.99,83.75L481.99,67Z" style="fill: rgb(128, 128, 128); fill-opacity: 0.5; stroke-width: 0;"/></g></g><g class="errorbars"/><g class="lines"><path class="js-line" d="M481.99,67L481.99,50.25L494.21,50.25L494.21,33.5L500.79,67L494.21,100.5L494.21,83.75L481.99,83.75L481.99,67" style="vector-effect: none; fill: none; stroke: rgb(128, 128, 128); stroke-opacity: 1; stroke-width: 1.5px; opacity: 1;"/></g><g class="points"/><g class="text"/></g><g class="trace scatter trace504520" style="stroke-miterlimit: 2; opacity: 1;"><g class="fills"/><g class="errorbars"/><g class="lines"><path class="js-line" d="M537.18,67L539.65,67" style="vector-effect: none; fill: none; stroke: rgb(0, 0, 0); stroke-opacity: 1; stroke-width: 3px; opacity: 1;"/></g><g class="points"/><g class="text"/></g><g class="trace scatter tracee48a1c" style="stroke-miterlimit: 2; opacity: 1;"><g class="fills"><g><path class="js-fill" d="M507.17,67L507.17,50.25L526.68,50.25L526.68,33.5L537.18,67L526.68,100.5L526.68,83.75L507.17,83.75L507.17,67Z" style="fill: rgb(128, 128, 128); fill-opacity: 0.5; stroke-width: 0;"/></g></g><g class="errorbars"/><g class="lines"><path class="js-line" d="M507.17,67L507.17,50.25L526.68,50.25L526.68,33.5L537.18,67L526.68,100.5L526.68,83.75L507.17,83.75L507.17,67" style="vector-effect: none; fill: none; stroke: rgb(128, 128, 128); stroke-opacity: 1; stroke-width: 1.5px; opacity: 1;"/></g><g class="points"/><g class="text"/></g><g class="trace scatter trace2289db" style="stroke-miterlimit: 2; opacity: 1;"><g class="fills"/><g class="errorbars"/><g class="lines"><path class="js-line" d="M564.21,67L566.34,67" style="vector-effect: none; fill: none; stroke: rgb(0, 0, 0); stroke-opacity: 1; stroke-width: 3px; opacity: 1;"/></g><g class="points"/><g class="text"/></g><g class="trace scatter trace4143f8" style="stroke-miterlimit: 2; opacity: 1;"><g class="fills"><g><path class="js-fill" d="M564.21,67L564.21,50.25L548.25,50.25L548.25,33.5L539.65,67L548.25,100.5L548.25,83.75L564.21,83.75L564.21,67Z" style="fill: rgb(128, 128, 128); fill-opacity: 0.5; stroke-width: 0;"/></g></g><g class="errorbars"/><g class="lines"><path class="js-line" d="M564.21,67L564.21,50.25L548.25,50.25L548.25,33.5L539.65,67L548.25,100.5L548.25,83.75L564.21,83.75L564.21,67" style="vector-effect: none; fill: none; stroke: rgb(128, 128, 128); stroke-opacity: 1; stroke-width: 1.5px; opacity: 1;"/></g><g class="points"/><g class="text"/></g><g class="trace scatter tracee8bea8" style="stroke-miterlimit: 2; opacity: 1;"><g class="fills"/><g class="errorbars"/><g class="lines"><path class="js-line" d="M665.84,67L669.71,67" style="vector-effect: none; fill: none; stroke: rgb(0, 0, 0); stroke-opacity: 1; stroke-width: 3px; opacity: 1;"/></g><g class="points"/><g class="text"/></g><g class="trace scatter traceafe00f" style="stroke-miterlimit: 2; opacity: 1;"><g class="fills"><g><path class="js-fill" d="M566.34,67L566.34,50.25L631.01,50.25L631.01,33.5L665.84,67L631.01,100.5L631.01,83.75L566.34,83.75L566.34,67Z" style="fill: rgb(128, 128, 128); fill-opacity: 0.5; stroke-width: 0;"/></g></g><g class="errorbars"/><g class="lines"><path class="js-line" d="M566.34,67L566.34,50.25L631.01,50.25L631.01,33.5L665.84,67L631.01,100.5L631.01,83.75L566.34,83.75L566.34,67" style="vector-effect: none; fill: none; stroke: rgb(128, 128, 128); stroke-opacity: 1; stroke-width: 1.5px; opacity: 1;"/></g><g class="points"/><g class="text"/></g><g class="trace scatter tracedf5307" style="stroke-miterlimit: 2; opacity: 1;"><g class="fills"/><g class="errorbars"/><g class="lines"><path class="js-line" d="M692.7,67L693.12,67" style="vector-effect: none; fill: none; stroke: rgb(0, 0, 0); stroke-opacity: 1; stroke-width: 3px; opacity: 1;"/></g><g class="points"/><g class="text"/></g><g class="trace scatter trace1b0eb8" style="stroke-miterlimit: 2; opacity: 1;"><g class="fills"><g><path class="js-fill" d="M669.71,67L669.71,50.25L684.65,50.25L684.65,33.5L692.7,67L684.65,100.5L684.65,83.75L669.71,83.75L669.71,67Z" style="fill: rgb(128, 128, 128); fill-opacity: 0.5; stroke-width: 0;"/></g></g><g class="errorbars"/><g class="lines"><path class="js-line" d="M669.71,67L669.71,50.25L684.65,50.25L684.65,33.5L692.7,67L684.65,100.5L684.65,83.75L669.71,83.75L669.71,67" style="vector-effect: none; fill: none; stroke: rgb(128, 128, 128); stroke-opacity: 1; stroke-width: 1.5px; opacity: 1;"/></g><g class="points"/><g class="text"/></g><g class="trace scatter trace39d951" style="stroke-miterlimit: 2; opacity: 1;"><g class="fills"/><g class="errorbars"/><g class="lines"><path class="js-line" d="M717.68,67L719.53,67" style="vector-effect: none; fill: none; stroke: rgb(0, 0, 0); stroke-opacity: 1; stroke-width: 3px; opacity: 1;"/></g><g class="points"/><g class="text"/></g><g class="trace scatter trace6b100d" style="stroke-miterlimit: 2; opacity: 1;"><g class="fills"><g><path class="js-fill" d="M693.12,67L693.12,50.25L709.08,50.25L709.08,33.5L717.68,67L709.08,100.5L709.08,83.75L693.12,83.75L693.12,67Z" style="fill: rgb(128, 128, 128); fill-opacity: 0.5; stroke-width: 0;"/></g></g><g class="errorbars"/><g class="lines"><path class="js-line" d="M693.12,67L693.12,50.25L709.08,50.25L709.08,33.5L717.68,67L709.08,100.5L709.08,83.75L693.12,83.75L693.12,67" style="vector-effect: none; fill: none; stroke: rgb(128, 128, 128); stroke-opacity: 1; stroke-width: 1.5px; opacity: 1;"/></g><g class="points"/><g class="text"/></g><g class="trace scatter trace093bf7" style="stroke-miterlimit: 2; opacity: 1;"><g class="fills"/><g class="errorbars"/><g class="lines"><path class="js-line" d="M723.78,67L726.99,67" style="vector-effect: none; fill: none; stroke: rgb(0, 0, 0); stroke-opacity: 1; stroke-width: 3px; opacity: 1;"/></g><g class="points"/><g class="text"/></g><g class="trace scatter trace063323" style="stroke-miterlimit: 2; opacity: 1;"><g class="fills"><g><path class="js-fill" d="M719.53,67L719.53,50.25L722.29,50.25L722.29,33.5L723.78,67L722.29,100.5L722.29,83.75L719.53,83.75L719.53,67Z" style="fill: rgb(128, 128, 128); fill-opacity: 0.5; stroke-width: 0;"/></g></g><g class="errorbars"/><g class="lines"><path class="js-line" d="M719.53,67L719.53,50.25L722.29,50.25L722.29,33.5L723.78,67L722.29,100.5L722.29,83.75L719.53,83.75L719.53,67" style="vector-effect: none; fill: none; stroke: rgb(128, 128, 128); stroke-opacity: 1; stroke-width: 1.5px; opacity: 1;"/></g><g class="points"/><g class="text"/></g><g class="trace scatter traceefccf2" style="stroke-miterlimit: 2; opacity: 1;"><g class="fills"/><g class="errorbars"/><g class="lines"><path class="js-line" d="M733.24,67L738.61,67" style="vector-effect: none; fill: none; stroke: rgb(0, 0, 0); stroke-opacity: 1; stroke-width: 3px; opacity: 1;"/></g><g class="points"/><g class="text"/></g><g class="trace scatter tracec87412" style="stroke-miterlimit: 2; opacity: 1;"><g class="fills"><g><path class="js-fill" d="M726.99,67L726.99,50.25L731.05,50.25L731.05,33.5L733.24,67L731.05,100.5L731.05,83.75L726.99,83.75L726.99,67Z" style="fill: rgb(128, 128, 128); fill-opacity: 0.5; stroke-width: 0;"/></g></g><g class="errorbars"/><g class="lines"><path class="js-line" d="M726.99,67L726.99,50.25L731.05,50.25L731.05,33.5L733.24,67L731.05,100.5L731.05,83.75L726.99,83.75L726.99,67" style="vector-effect: none; fill: none; stroke: rgb(128, 128, 128); stroke-opacity: 1; stroke-width: 1.5px; opacity: 1;"/></g><g class="points"/><g class="text"/></g><g class="trace scatter trace1ac434" style="stroke-miterlimit: 2; opacity: 1;"><g class="fills"/><g class="errorbars"/><g class="lines"><path class="js-line" d="M767.04,67L771.58,67" style="vector-effect: none; fill: none; stroke: rgb(0, 0, 0); stroke-opacity: 1; stroke-width: 3px; opacity: 1;"/></g><g class="points"/><g class="text"/></g><g class="trace scatter trace4154fe" style="stroke-miterlimit: 2; opacity: 1;"><g class="fills"><g><path class="js-fill" d="M767.04,67L767.04,50.25L748.56,50.25L748.56,33.5L738.61,67L748.56,100.5L748.56,83.75L767.04,83.75L767.04,67Z" style="fill: rgb(128, 128, 128); fill-opacity: 0.5; stroke-width: 0;"/></g></g><g class="errorbars"/><g class="lines"><path class="js-line" d="M767.04,67L767.04,50.25L748.56,50.25L748.56,33.5L738.61,67L748.56,100.5L748.56,83.75L767.04,83.75L767.04,67" style="vector-effect: none; fill: none; stroke: rgb(128, 128, 128); stroke-opacity: 1; stroke-width: 1.5px; opacity: 1;"/></g><g class="points"/><g class="text"/></g><g class="trace scatter trace2a9345" style="stroke-miterlimit: 2; opacity: 1;"><g class="fills"><g><path class="js-fill" d="M771.58,67L771.58,50.25L787.54,50.25L787.54,33.5L796.14,67L787.54,100.5L787.54,83.75L771.58,83.75L771.58,67Z" style="fill: rgb(128, 128, 128); fill-opacity: 0.5; stroke-width: 0;"/></g></g><g class="errorbars"/><g class="lines"><path class="js-line" d="M771.58,67L771.58,50.25L787.54,50.25L787.54,33.5L796.14,67L787.54,100.5L787.54,83.75L771.58,83.75L771.58,67" style="vector-effect: none; fill: none; stroke: rgb(128, 128, 128); stroke-opacity: 1; stroke-width: 1.5px; opacity: 1;"/></g><g class="points"/><g class="text"/></g></g></g><g class="overplot"/><path class="xlines-above crisp" d="M0,0" style="fill: none;"/><path class="ylines-above crisp" d="M0,0" style="fill: none;"/><g class="overlines-above"/><g class="xaxislayer-above"><g class="xtick"><text text-anchor="middle" x="0" y="147" transform="translate(18.74,0)" style="font-family: 'Open Sans', verdana, arial, sans-serif; font-size: 12px; fill: rgb(42, 63, 95); fill-opacity: 1; white-space: pre; opacity: 1;">3.52M</text></g><g class="xtick"><text text-anchor="middle" x="0" y="147" style="font-family: 'Open Sans', verdana, arial, sans-serif; font-size: 12px; fill: rgb(42, 63, 95); fill-opacity: 1; white-space: pre; opacity: 1;" transform="translate(193.17,0)">3.525M</text></g><g class="xtick"><text text-anchor="middle" x="0" y="147" style="font-family: 'Open Sans', verdana, arial, sans-serif; font-size: 12px; fill: rgb(42, 63, 95); fill-opacity: 1; white-space: pre; opacity: 1;" transform="translate(367.61,0)">3.53M</text></g><g class="xtick"><text text-anchor="middle" x="0" y="147" style="font-family: 'Open Sans', verdana, arial, sans-serif; font-size: 12px; fill: rgb(42, 63, 95); fill-opacity: 1; white-space: pre; opacity: 1;" transform="translate(542.04,0)">3.535M</text></g></g><g class="yaxislayer-above"/><g class="overaxes-above"/></g></g><g class="polarlayer"/><g class="smithlayer"/><g class="ternarylayer"/><g class="geolayer"/><g class="funnelarealayer"/><g class="pielayer"/><g class="iciclelayer"/><g class="treemaplayer"/><g class="sunburstlayer"/><g class="glimages"/><defs id="topdefs-20a2ea"><g class="clips"/></defs><g class="layer-above"><g class="imagelayer"/><g class="shapelayer"/></g><g class="infolayer"><g class="g-gtitle"/><g class="g-xtitle"/><g class="g-ytitle"/></g></svg>