<svg class="main-svg" xmlns="http://www.w3.org/2000/svg" xmlns:xlink="http://www.w3.org/1999/xlink" width="700" height="150" style="" viewBox="0 0 700 150"><rect x="0" y="0" width="700" height="150" style="fill: rgb(255, 255, 255); fill-opacity: 1;"/><defs id="defs-948ce8"><g class="clips"><clipPath id="clip948ce8xyplot" class="plotclip"><rect width="700" height="134"/></clipPath><clipPath class="axesclip" id="clip948ce8x"><rect x="0" y="0" width="700" height="150"/></clipPath><clipPath class="axesclip" id="clip948ce8y"><rect x="0" y="0" width="700" height="134"/></clipPath><clipPath class="axesclip" id="clip948ce8xy"><rect x="0" y="0" width="700" height="134"/></clipPath></g><g class="gradients"/><g class="patterns"/></defs><g class="bglayer"><rect class="bg" x="0" y="0" width="700" height="134" style="fill: rgb(0, 102, 153); fill-opacity: 0.25; stroke-width: 0;"/></g><g class="layer-below"><g class="imagelayer"/><g class="shapelayer"/></g><g class="cartesianlayer"><g class="subplot xy"><g class="layer-subplot"><g class="shapelayer"/><g class="imagelayer"/></g><g class="minor-gridlayer"><g class="x"/><g class="y"/></g><g class="gridlayer"><g class="x"><path class="xgrid crisp" transform="translate(88.3,0)" d="M0,0v134" style="stroke: rgb(255, 255, 255); stroke-opacity: 1; stroke-width: 1px;"/><path class="xgrid crisp" transform="translate(259.68,0)" d="M0,0v134" style="stroke: rgb(255, 255, 255); stroke-opacity: 1; stroke-width: 1px;"/><path class="xgrid crisp" transform="translate(431.06,0)" d="M0,0v134" style="stroke: rgb(255, 255, 255); stroke-opacity: 1; stroke-width: 1px;"/><path class="xgrid crisp" transform="translate(602.45,0)" d="M0,0v134" style="stroke: rgb(255, 255, 255); stroke-opacity: 1; stroke-width: 1px;"/></g><g class="y"/></g><g class="zerolinelayer"><path class="yzl zl crisp" transform="translate(0,67)" d="M0,0h700" style="stroke: rgb(255, 255, 255); stroke-opacity: 1; stroke-width: 2px;"/></g><path class="xlines-below"/><path class="ylines-below"/><g class="overlines-below"/><g class="xaxislayer-below"/><g class="yaxislayer-below"/><g class="overaxes-below"/><g class="plot" transform="" clip-path="url(#clip948ce8xyplot)"><g class="scatterlayer mlayer"><g class="trace scatter tracead5a21" style="stroke-miterlimit: 2; opacity: 1;"><g class="fills"/><g class="errorbars"/><g class="lines"><path class="js-line" d="M-117.64,67L-109.17,67" style="vector-effect: none; fill: none; stroke: rgb(0, 0, 0); stroke-opacity: 1; stroke-width: 3px; opacity: 1;"/></g><g class="points"/><g class="text"/></g><g class="trace scatter tracee6773b" style="stroke-miterlimit: 2; opacity: 1;"><g class="fills"><g><path class="js-fill" d="M-161.51,67L-161.51,50.25L-132.99,50.25L-132.99,33.5L-117.64,67L-132.99,100.5L-132.99,83.75L-161.51,83.75L-161.51,67Z" style="fill: rgb(128, 128, 128); fill-opacity: 0.5; stroke-width: 0;"/></g></g><g class="errorbars"/><g class="lines"><path class="js-line" d="M-161.51,67L-161.51,50.25L-132.99,50.25L-132.99,33.5L-117.64,67L-132.99,100.5L-132.99,83.75L-161.51,83.75L-161.51,67" style="vector-effect: none; fill: none; stroke: rgb(128, 128, 128); stroke-opacity: 1; stroke-width: 1.5px; opacity: 1;"/></g><g class="points"/><g class="text"/></g><g class="trace scatter traceb54f95" style="stroke-miterlimit: 2; opacity: 1;"><g class="fills"/><g class="errorbars"/><g class="lines"><path class="js-line" d="M-100.47,67L-98.07,67" style="vector-effect: none; fill: none; stroke: rgb(0, 0, 0); stroke-opacity: 1; stroke-width: 3px; opacity: 1;"/></g><g class="points"/><g class="text"/></g><g class="trace scatter traceb6f605" style="stroke-miterlimit: 2; opacity: 1;"><g class="fills"><g><path class="js-fill" d="M-109.17,67L-109.17,50.25L-103.51,50.25L-103.51,33.5L-100.47,67L-103.51,100.5L-103.51,83.75L-109.17,83.75L-109.17,67Z" style="fill: rgb(128, 128, 128); fill-opacity: 0.5; stroke-width: 0;"/></g></g><g class="errorbars"/><g class="lines"><path class="js-line" d="M-109.17,67L-109.17,50.25L-103.51,50.25L-103.51,33.5L-100.47,67L-103.51,100.5L-103.51,83.75L-109.17,83.75L-109.17,67" style="vector-effect: none; fill: none; stroke: rgb(128, 128, 128); stroke-opacity: 1; stroke-width: 1.5px; opacity: 1;"/></g><g class="points"/><g class="text"/></g><g class="trace scatter trace869d77" style="stroke-miterlimit: 2; opacity: 1;"><g class="fills"/><g class="errorbars"/><g class="lines"><path class="js-line" d="M-78.67,67L-76.4,67" style="vector-effect: none; fill: none; stroke: rgb(0, 0, 0); stroke-opacity: 1; stroke-width: 3px; opacity: 1;"/></g><g class="points"/><g class="text"/></g><g class="trace scatter trace229ac9" style="stroke-miterlimit: 2; opacity: 1;"><g class="fills"><g><path class="js-fill" d="M-78.67,67L-78.67,50.25L-91.28,50.25L-91.28,33.5L-98.07,67L-91.28,100.5L-91.28,83.75L-78.67,83.75L-78.67,67Z" style="fill: rgb(128, 128, 128); fill-opacity: 0.5; stroke-width: 0;"/></g></g><g class="errorbars"/><g class="lines"><path class="js-line" d="M-78.67,67L-78.67,50.25L-91.28,50.25L-91.28,33.5L-98.07,67L-91.28,100.5L-91.28,83.75L-78.67,83.75L-78.67,67" style="vector-effect: none; fill: none; stroke: rgb(128, 128, 128); stroke-opacity: 1; stroke-width: 1.5px; opacity: 1;"/></g><g class="points"/><g class="text"/></g><g class="trace scatter trace283c06" style="stroke-miterlimit: 2; opacity: 1;"><g class="fills"/><g class="errorbars"/><g class="lines"><path class="js-line" d="M-63.07,67L-54.81,67" style="vector-effect: none; fill: none; stroke: rgb(0, 0, 0); stroke-opacity: 1; stroke-width: 3px; opacity: 1;"/></g><g class="points"/><g class="text"/></g><g class="trace scatter trace9487bd" style="stroke-miterlimit: 2; opacity: 1;"><g class="fills"><g><path class="js-fill" d="M-63.07,67L-63.07,50.25L-71.74,50.25L-71.74,33.5L-76.4,67L-71.74,100.5L-71.74,83.75L-63.07,83.75L-63.07,67Z" style="fill: rgb(128, 128, 128); fill-opacity: 0.5; stroke-width: 0;"/></g></g><g class="errorbars"/><g class="lines"><path class="js-line" d="M-63.07,67L-63.07,50.25L-71.74,50.25L-71.74,33.5L-76.4,67L-71.74,100.5L-71.74,83.75L-63.07,83.75L-63.07,67" style="vector-effect: none; fill: none; stroke: rgb(128, 128, 128); stroke-opacity: 1; stroke-width: 1.5px; opacity: 1;"/></g><g class="points"/><g class="text"/></g><g class="trace scatter traced61ae2" style="stroke-miterlimit: 2; opacity: 1;"><g class="fills"/><g class="errorbars"/><g class="lines"><path class="js-line" d="M-35.72,67L-16.62,67" style="vector-effect: none; fill: none; stroke: rgb(0, 0, 0); stroke-opacity: 1; stroke-width: 3px; opacity: 1;"/></g><g class="points"/><g class="text"/></g><g class="trace scatter tracead03df" style="stroke-miterlimit: 2; opacity: 1;"><g class="fills"><g><path class="js-fill" d="M-54.81,67L-54.81,50.25L-42.4,50.25L-42.4,33.5L-35.72,67L-42.4,100.5L-42.4,83.75L-54.81,83.75L-54.81,67Z" style="fill: rgb(128, 128, 128); fill-opacity: 0.5; stroke-width: 0;"/></g></g><g class="errorbars"/><g class="lines"><path class="js-line" d="M-54.81,67L-54.81,50.25L-42.4,50.25L-42.4,33.5L-35.72,67L-42.4,100.5L-42.4,83.75L-54.81,83.75L-54.81,67" style="vector-effect: none; fill: none; stroke: rgb(128, 128, 128); stroke-opacity: 1; stroke-width: 1.5px; opacity: 1;"/></g><g class="points"/><g class="text"/></g><g class="trace scatter tracee0e55f" style="stroke-miterlimit: 2; opacity: 1;"><g class="fills"/><g class="errorbars"/><g class="lines"><path class="js-line" d="M14.36,67L16.11,67" style="vector-effect: none; fill: none; stroke: rgb(0, 0, 0); stroke-opacity: 1; stroke-width: 3px; opacity: 1;"/></g><g class="points"/><g class="text"/></g><g class="trace scatter trace8ee190" style="stroke-miterlimit: 2; opacity: 1;"><g class="fills"><g><path class="js-fill" d="M-16.62,67L-16.62,50.25L3.52,50.25L3.52,33.5L14.36,67L3.52,100.5L3.52,83.75L-16.62,83.75L-16.62,67Z" style="fill: rgb(128, 128, 128); fill-opacity: 0.5; stroke-width: 0;"/></g></g><g class="errorbars"/><g class="lines"><path class="js-line" d="M-16.62,67L-16.62,50.25L3.52,50.25L3.52,33.5L14.36,67L3.52,100.5L3.52,83.75L-16.62,83.75L-16.62,67" style="vector-effect: none; fill: none; stroke: rgb(128, 128, 128); stroke-opacity: 1; stroke-width: 1.5px; opacity: 1;"/></g><g class="points"/><g class="text"/></g><g class="trace scatter trace600710" style="stroke-miterlimit: 2; opacity: 1;"><g class="fills"/><g class="errorbars"/><g class="lines"><path class="js-line" d="M50.32,67L54.16,67" style="vector-effect: none; fill: none; stroke: rgb(0, 0, 0); stroke-opacity: 1; stroke-width: 3px; opacity: 1;"/></g><g class="points"/><g class="text"/></g><g class="trace scatter trace536dfc" style="stroke-miterlimit: 2; opacity: 1;"><g class="fills"><g><path class="js-fill" d="M50.32,67L50.32,50.25L28.08,50.25L28.08,33.5L16.11,67L28.08,100.5L28.08,83.75L50.32,83.75L50.32,67Z" style="fill: rgb(128, 128, 128); fill-opacity: 0.5; stroke-width: 0;"/></g></g><g class="errorbars"/><g class="lines"><path class="js-line" d="M50.32,67L50.32,50.25L28.08,50.25L28.08,33.5L16.11,67L28.08,100.5L28.08,83.75L50.32,83.75L50.32,67" style="vector-effect: none; fill: none; stroke: rgb(128, 128, 128); stroke-opacity: 1; stroke-width: 1.5px; opacity: 1;"/></g><g class="points"/><g class="text"/></g><g class="trace scatter trace590975" style="stroke-miterlimit: 2; opacity: 1;"><g class="fills"/><g class="errorbars"/><g class="lines"><path class="js-line" d="M99.37,67L110.47,67" style="vector-effect: none; fill: none; stroke: rgb(0, 0, 0); stroke-opacity: 1; stroke-width: 3px; opacity: 1;"/></g><g class="points"/><g class="text"/></g><g class="trace scatter tracee5a027" style="stroke-miterlimit: 2; opacity: 1;"><g class="fills"><g><path class="js-fill" d="M99.37,67L99.37,50.25L69.98,50.25L69.98,33.5L54.16,67L69.98,100.5L69.98,83.75L99.37,83.75L99.37,67Z" style="fill: rgb(128, 128, 128); fill-opacity: 0.5; stroke-width: 0;"/></g></g><g class="errorbars"/><g class="lines"><path class="js-line" d="M99.37,67L99.37,50.25L69.98,50.25L69.98,33.5L54.16,67L69.98,100.5L69.98,83.75L99.37,83.75L99.37,67" style="vector-effect: none; fill: none; stroke: rgb(128, 128, 128); stroke-opacity: 1; stroke-width: 1.5px; opacity: 1;"/></g><g class="points"/><g class="text"/></g><g class="trace scatter trace329c15" style="stroke-miterlimit: 2; opacity: 1;"><g class="fills"/><g class="errorbars"/><g class="lines"><path class="js-line" d="M118.25,67L130.9,67" style="vector-effect: none; fill: none; stroke: rgb(0, 0, 0); stroke-opacity: 1; stroke-width: 3px; opacity: 1;"/></g><g class="points"/><g class="text"/></g><g class="trace scatter trace1b6ac1" style="stroke-miterlimit: 2; opacity: 1;"><g class="fills"><g><path class="js-fill" d="M118.25,67L118.25,50.25L113.2,50.25L113.2,33.5L110.47,67L113.2,100.5L113.2,83.75L118.25,83.75L118.25,67Z" style="fill: rgb(128, 128, 128); fill-opacity: 0.5; stroke-width: 0;"/></g></g><g class="errorbars"/><g class="lines"><path class="js-line" d="M118.25,67L118.25,50.25L113.2,50.25L113.2,33.5L110.47,67L113.2,100.5L113.2,83.75L118.25,83.75L118.25,67" style="vector-effect: none; fill: none; stroke: rgb(128, 128, 128); stroke-opacity: 1; stroke-width: 1.5px; opacity: 1;"/></g><g class="points"/><g class="text"/></g><g class="trace scatter traced2609e" style="stroke-miterlimit: 2; opacity: 1;"><g class="fills"/><g class="errorbars"/><g class="lines"><path class="js-line" d="M184.03,67L184.85,67" style="vector-effect: none; fill: none; stroke: rgb(0, 0, 0); stroke-opacity: 1; stroke-width: 3px; opacity: 1;"/></g><g class="points"/><g class="text"/></g><g class="trace scatter tracea1efc6" style="stroke-miterlimit: 2; opacity: 1;"><g class="fills"><g><path class="js-fill" d="M184.03,67L184.03,50.25L149.5,50.25L149.5,33.5L130.9,67L149.5,100.5L149.5,83.75L184.03,83.75L184.03,67Z" style="fill: rgb(128, 128, 128); fill-opacity: 0.5; stroke-width: 0;"/></g></g><g class="errorbars"/><g class="lines"><path class="js-line" d="M184.03,67L184.03,50.25L149.5,50.25L149.5,33.5L130.9,67L149.5,100.5L149.5,83.75L184.03,83.75L184.03,67" style="vector-effect: none; fill: none; stroke: rgb(128, 128, 128); stroke-opacity: 1; stroke-width: 1.5px; opacity: 1;"/></g><g class="points"/><g class="text"/></g><g class="trace scatter tracea087d1" style="stroke-miterlimit: 2; opacity: 1;"><g class="fills"/><g class="errorbars"/><g class="lines"><path class="js-line" d="M213.3,67L215.57,67" style="vector-effect: none; fill: none; stroke: rgb(0, 0, 0); stroke-opacity: 1; stroke-width: 3px; opacity: 1;"/></g><g class="points"/><g class="text"/></g><g class="trace scatter tracee6276e" style="stroke-miterlimit: 2; opacity: 1;"><g class="fills"><g><path class="js-fill" d="M213.3,67L213.3,50.25L194.81,50.25L194.81,33.5L184.85,67L194.81,100.5L194.81,83.75L213.3,83.75L213.3,67Z" style="fill: rgb(128, 128, 128); fill-opacity: 0.5; stroke-width: 0;"/></g></g><g class="errorbars"/><g class="lines"><path class="js-line" d="M213.3,67L213.3,50.25L194.81,50.25L194.81,33.5L184.85,67L194.81,100.5L194.81,83.75L213.3,83.75L213.3,67" style="vector-effect: none; fill: none; stroke: rgb(128, 128, 128); stroke-opacity: 1; stroke-width: 1.5px; opacity: 1;"/></g><g class="points"/><g class="text"/></g><g class="trace scatter trace3dfed0" style="stroke-miterlimit: 2; opacity: 1;"><g class="fills"/><g class="errorbars"/><g class="lines"><path class="js-line" d="M248.23,67L248.71,67" style="vector-effect: none; fill: none; stroke: rgb(0, 0, 0); stroke-opacity: 1; stroke-width: 3px; opacity: 1;"/></g><g class="points"/><g class="text"/></g><g class="trace scatter tracee0e17b" style="stroke-miterlimit: 2; opacity: 1;"><g class="fills"><g><path class="js-fill" d="M248.23,67L248.23,50.25L227,50.25L227,33.5L215.57,67L227,100.5L227,83.75L248.23,83.75L248.23,67Z" style="fill: rgb(128, 128, 128); fill-opacity: 0.5; stroke-width: 0;"/></g></g><g class="errorbars"/><g class="lines"><path class="js-line" d="M248.23,67L248.23,50.25L227,50.25L227,33.5L215.57,67L227,100.5L227,83.75L248.23,83.75L248.23,67" style="vector-effect: none; fill: none; stroke: rgb(128, 128, 128); stroke-opacity: 1; stroke-width: 1.5px; opacity: 1;"/></g><g class="points"/><g class="text"/></g><g class="trace scatter tracee39319" style="stroke-miterlimit: 2; opacity: 1;"><g class="fills"/><g class="errorbars"/><g class="lines"><path class="js-line" d="M280.66,67L282.54,67" style="vector-effect: none; fill: none; stroke: rgb(0, 0, 0); stroke-opacity: 1; stroke-width: 3px; opacity: 1;"/></g><g class="points"/><g class="text"/></g><g class="trace scatter trace4ec179" style="stroke-miterlimit: 2; opacity: 1;"><g class="fills"><g><path class="js-fill" d="M280.66,67L280.66,50.25L259.89,50.25L259.89,33.5L248.71,67L259.89,100.5L259.89,83.75L280.66,83.75L280.66,67Z" style="fill: rgb(128, 128, 128); fill-opacity: 0.5; stroke-width: 0;"/></g></g><g class="errorbars"/><g class="lines"><path class="js-line" d="M280.66,67L280.66,50.25L259.89,50.25L259.89,33.5L248.71,67L259.89,100.5L259.89,83.75L280.66,83.75L280.66,67" style="vector-effect: none; fill: none; stroke: rgb(128, 128, 128); stroke-opacity: 1; stroke-width: 1.5px; opacity: 1;"/></g><g class="points"/><g class="text"/></g><g class="trace scatter trace9721f2" style="stroke-miterlimit: 2; opacity: 1;"><g class="fills"/><g class="errorbars"/><g class="lines"><path class="js-line" d="M295.88,67" style="vector-effect: none; fill: none; stroke: rgb(0, 0, 0); stroke-opacity: 1; stroke-width: 3px; opacity: 1;"/></g><g class="points"/><g class="text"/></g><g class="trace scatter trace0f185d" style="stroke-miterlimit: 2; opacity: 1;"><g class="fills"><g><path class="js-fill" d="M295.88,67L295.88,50.25L287.21,50.25L287.21,33.5L282.54,67L287.21,100.5L287.21,83.75L295.88,83.75L295.88,67Z" style="fill: rgb(128, 128, 128); fill-opacity: 0.5; stroke-width: 0;"/></g></g><g class="errorbars"/><g class="lines"><path class="js-line" d="M295.88,67L295.88,50.25L287.21,50.25L287.21,33.5L282.54,67L287.21,100.5L287.21,83.75L295.88,83.75L295.88,67" style="vector-effect: none; fill: none; stroke: rgb(128, 128, 128); stroke-opacity: 1; stroke-width: 1.5px; opacity: 1;"/></g><g class="points"/><g class="text"/></g><g class="trace scatter trace9a42ac" style="stroke-miterlimit: 2; opacity: 1;"><g class="fills"/><g class="errorbars"/><g class="lines"><path class="js-line" d="M338.11,67L342.77,67" style="vector-effect: none; fill: none; stroke: rgb(0, 0, 0); stroke-opacity: 1; stroke-width: 3px; opacity: 1;"/></g><g class="points"/><g class="text"/></g><g class="trace scatter trace131ca4" style="stroke-miterlimit: 2; opacity: 1;"><g class="fills"><g><path class="js-fill" d="M338.11,67L338.11,50.25L310.59,50.25L310.59,33.5L295.77,67L310.59,100.5L310.59,83.75L338.11,83.75L338.11,67Z" style="fill: rgb(128, 128, 128); fill-opacity: 0.5; stroke-width: 0;"/></g></g><g class="errorbars"/><g class="lines"><path class="js-line" d="M338.11,67L338.11,50.25L310.59,50.25L310.59,33.5L295.77,67L310.59,100.5L310.59,83.75L338.11,83.75L338.11,67" style="vector-effect: none; fill: none; stroke: rgb(128, 128, 128); stroke-opacity: 1; stroke-width: 1.5px; opacity: 1;"/></g><g class="points"/><g class="text"/></g><g class="trace scatter trace09bd9d" style="stroke-miterlimit: 2; opacity: 1;"><g class="fills"/><g class="errorbars"/><g class="lines"><path class="js-line" d="M357.23,67L368.17,67" style="vector-effect: none; fill: none; stroke: rgb(0, 0, 0); stroke-opacity: 1; stroke-width: 3px; opacity: 1;"/></g><g class="points"/><g class="text"/></g><g class="trace scatter tracebf56c5" style="stroke-miterlimit: 2; opacity: 1;"><g class="fills"><g><path class="js-fill" d="M342.77,67L342.77,50.25L352.17,50.25L352.17,33.5L357.23,67L352.17,100.5L352.17,83.75L342.77,83.75L342.77,67Z" style="fill: rgb(255, 20, 20); fill-opacity: 0.5; stroke-width: 0;"/></g></g><g class="errorbars"/><g class="lines"><path class="js-line" d="M342.77,67L342.77,50.25L352.17,50.25L352.17,33.5L357.23,67L352.17,100.5L352.17,83.75L342.77,83.75L342.77,67" style="vector-effect: none; fill: none; stroke: rgb(255, 20, 20); stroke-opacity: 1; stroke-width: 1.5px; opacity: 1;"/></g><g class="points"/><g class="text"/></g><g class="trace scatter trace8f9a84" style="stroke-miterlimit: 2; opacity: 1;"><g class="fills"/><g class="errorbars"/><g class="lines"><path class="js-line" d="M417.18,67L418.18,67" style="vector-effect: none; fill: none; stroke: rgb(0, 0, 0); stroke-opacity: 1; stroke-width: 3px; opacity: 1;"/></g><g class="points"/><g class="text"/></g><g class="trace scatter tracefd7976" style="stroke-miterlimit: 2; opacity: 1;"><g class="fills"><g><path class="js-fill" d="M368.17,67L368.17,50.25L400.03,50.25L400.03,33.5L417.18,67L400.03,100.5L400.03,83.75L368.17,83.75L368.17,67Z" style="fill: rgb(128, 128, 128); fill-opacity: 0.5; stroke-width: 0;"/></g></g><g class="errorbars"/><g class="lines"><path class="js-line" d="M368.17,67L368.17,50.25L400.03,50.25L400.03,33.5L417.18,67L400.03,100.5L400.03,83.75L368.17,83.75L368.17,67" style="vector-effect: none; fill: none; stroke: rgb(128, 128, 128); stroke-opacity: 1; stroke-width: 1.5px; opacity: 1;"/></g><g class="points"/><g class="text"/></g><g class="trace scatter trace06766d" style="stroke-miterlimit: 2; opacity: 1;"><g class="fills"/><g class="errorbars"/><g class="lines"><path class="js-line" d="M444.57,67L446.63,67" style="vector-effect: none; fill: none; stroke: rgb(0, 0, 0); stroke-opacity: 1; stroke-width: 3px; opacity: 1;"/></g><g class="points"/><g class="text"/></g><g class="trace scatter trace27e1b2" style="stroke-miterlimit: 2; opacity: 1;"><g class="fills"><g><path class="js-fill" d="M418.18,67L418.18,50.25L435.33,50.25L435.33,33.5L444.57,67L435.33,100.5L435.33,83.75L418.18,83.75L418.18,67Z" style="fill: rgb(128, 128, 128); fill-opacity: 0.5; stroke-width: 0;"/></g></g><g class="errorbars"/><g class="lines"><path class="js-line" d="M418.18,67L418.18,50.25L435.33,50.25L435.33,33.5L444.57,67L435.33,100.5L435.33,83.75L418.18,83.75L418.18,67" style="vector-effect: none; fill: none; stroke: rgb(128, 128, 128); stroke-opacity: 1; stroke-width: 1.5px; opacity: 1;"/></g><g class="points"/><g class="text"/></g><g class="trace scatter trace2b9503" style="stroke-miterlimit: 2; opacity: 1;"><g class="fills"/><g class="errorbars"/><g class="lines"><path class="js-line" d="M471.27,67L473.53,67" style="vector-effect: none; fill: none; stroke: rgb(0, 0, 0); stroke-opacity: 1; stroke-width: 3px; opacity: 1;"/></g><g class="points"/><g class="text"/></g><g class="trace scatter traceaf7faf" style="stroke-miterlimit: 2; opacity: 1;"><g class="fills"><g><path class="js-fill" d="M446.63,67L446.63,50.25L462.65,50.25L462.65,33.5L471.27,67L462.65,100.5L462.65,83.75L446.63,83.75L446.63,67Z" style="fill: rgb(128, 128, 128); fill-opacity: 0.5; stroke-width: 0;"/></g></g><g class="errorbars"/><g class="lines"><path class="js-line" d="M446.63,67L446.63,50.25L462.65,50.25L462.65,33.5L471.27,67L462.65,100.5L462.65,83.75L446.63,83.75L446.63,67" style="vector-effect: none; fill: none; stroke: rgb(128, 128, 128); stroke-opacity: 1; stroke-width: 1.5px; opacity: 1;"/></g><g class="points"/><g class="text"/></g><g class="trace scatter tracec0e92d" style="stroke-miterlimit: 2; opacity: 1;"><g class="fills"/><g class="errorbars"/><g class="lines"><path class="js-line" d="M497.77,67L504.49,67" style="vector-effect: none; fill: none; stroke: rgb(0, 0, 0); stroke-opacity: 1; stroke-width: 3px; opacity: 1;"/></g><g class="points"/><g class="text"/></g><g class="trace scatter traceb3c0cc" style="stroke-miterlimit: 2; opacity: 1;"><g class="fills"><g><path class="js-fill" d="M473.53,67L473.53,50.25L489.29,50.25L489.29,33.5L497.77,67L489.29,100.5L489.29,83.75L473.53,83.75L473.53,67Z" style="fill: rgb(128, 128, 128); fill-opacity: 0.5; stroke-width: 0;"/></g></g><g class="errorbars"/><g class="lines"><path class="js-line" d="M473.53,67L473.53,50.25L489.29,50.25L489.29,33.5L497.77,67L489.29,100.5L489.29,83.75L473.53,83.75L473.53,67" style="vector-effect: none; fill: none; stroke: rgb(128, 128, 128); stroke-opacity: 1; stroke-width: 1.5px; opacity: 1;"/></g><g class="points"/><g class="text"/></g><g class="trace scatter trace0ac43e" style="stroke-miterlimit: 2; opacity: 1;"><g class="fills"/><g class="errorbars"/><g class="lines"><path class="js-line" d="M550.11,67L550.79,67" style="vector-effect: none; fill: none; stroke: rgb(0, 0, 0); stroke-opacity: 1; stroke-width: 3px; opacity: 1;"/></g><g class="points"/><g class="text"/></g><g class="trace scatter trace0c79af" style="stroke-miterlimit: 2; opacity: 1;"><g class="fills"><g><path class="js-fill" d="M504.49,67L504.49,50.25L534.14,50.25L534.14,33.5L550.11,67L534.14,100.5L534.14,83.75L504.49,83.75L504.49,67Z" style="fill: rgb(128, 128, 128); fill-opacity: 0.5; stroke-width: 0;"/></g></g><g class="errorbars"/><g class="lines"><path class="js-line" d="M504.49,67L504.49,50.25L534.14,50.25L534.14,33.5L550.11,67L534.14,100.5L534.14,83.75L504.49,83.75L504.49,67" style="vector-effect: none; fill: none; stroke: rgb(128, 128, 128); stroke-opacity: 1; stroke-width: 1.5px; opacity: 1;"/></g><g class="points"/><g class="text"/></g><g class="trace scatter trace565184" style="stroke-miterlimit: 2; opacity: 1;"><g class="fills"/><g class="errorbars"/><g class="lines"><path class="js-line" d="M600.32,67L605.33,67" style="vector-effect: none; fill: none; stroke: rgb(0, 0, 0); stroke-opacity: 1; stroke-width: 3px; opacity: 1;"/></g><g class="points"/><g class="text"/></g><g class="trace scatter trace7260b1" style="stroke-miterlimit: 2; opacity: 1;"><g class="fills"><g><path class="js-fill" d="M550.79,67L550.79,50.25L582.99,50.25L582.99,33.5L600.32,67L582.99,100.5L582.99,83.75L550.79,83.75L550.79,67Z" style="fill: rgb(128, 128, 128); fill-opacity: 0.5; stroke-width: 0;"/></g></g><g class="errorbars"/><g class="lines"><path class="js-line" d="M550.79,67L550.79,50.25L582.99,50.25L582.99,33.5L600.32,67L582.99,100.5L582.99,83.75L550.79,83.75L550.79,67" style="vector-effect: none; fill: none; stroke: rgb(128, 128, 128); stroke-opacity: 1; stroke-width: 1.5px; opacity: 1;"/></g><g class="points"/><g class="text"/></g><g class="trace scatter trace2f45c1" style="stroke-miterlimit: 2; opacity: 1;"><g class="fills"/><g class="errorbars"/><g class="lines"><path class="js-line" d="M651.88,67L664.97,67" style="vector-effect: none; fill: none; stroke: rgb(0, 0, 0); stroke-opacity: 1; stroke-width: 3px; opacity: 1;"/></g><g class="points"/><g class="text"/></g><g class="trace scatter trace83bb5a" style="stroke-miterlimit: 2; opacity: 1;"><g class="fills"><g><path class="js-fill" d="M605.33,67L605.33,50.25L635.58,50.25L635.58,33.5L651.88,67L635.58,100.5L635.58,83.75L605.33,83.75L605.33,67Z" style="fill: rgb(128, 128, 128); fill-opacity: 0.5; stroke-width: 0;"/></g></g><g class="errorbars"/><g class="lines"><path class="js-line" d="M605.33,67L605.33,50.25L635.58,50.25L635.58,33.5L651.88,67L635.58,100.5L635.58,83.75L605.33,83.75L605.33,67" style="vector-effect: none; fill: none; stroke: rgb(128, 128, 128); stroke-opacity: 1; stroke-width: 1.5px; opacity: 1;"/></g><g class="points"/><g class="text"/></g><g class="trace scatter trace079594" style="stroke-miterlimit: 2; opacity: 1;"><g class="fills"/><g class="errorbars"/><g class="lines"><path class="js-line" d="M677.27,67L682.21,67" style="vector-effect: none; fill: none; stroke: rgb(0, 0, 0); stroke-opacity: 1; stroke-width: 3px; opacity: 1;"/></g><g class="points"/><g class="text"/></g><g class="trace scatter trace6feb6f" style="stroke-miterlimit: 2; opacity: 1;"><g class="fills"><g><path class="js-fill" d="M664.97,67L664.97,50.25L672.97,50.25L672.97,33.5L677.27,67L672.97,100.5L672.97,83.75L664.97,83.75L664.97,67Z" style="fill: rgb(128, 128, 128); fill-opacity: 0.5; stroke-width: 0;"/></g></g><g class="errorbars"/><g class="lines"><path class="js-line" d="M664.97,67L664.97,50.25L672.97,50.25L672.97,33.5L677.27,67L672.97,100.5L672.97,83.75L664.97,83.75L664.97,67" style="vector-effect: none; fill: none; stroke: rgb(128, 128, 128); stroke-opacity: 1; stroke-width: 1.5px; opacity: 1;"/></g><g class="points"/><g class="text"/></g><g class="trace scatter trace784f66" style="stroke-miterlimit: 2; opacity: 1;"><g class="fills"/><g class="errorbars"/><g class="lines"><path class="js-line" d="M705.42,67" style="vector-effect: none; fill: none; stroke: rgb(0, 0, 0); stroke-opacity: 1; stroke-width: 3px; opacity: 1;"/></g><g class="points"/><g class="text"/></g><g class="trace scatter trace564e38" style="stroke-miterlimit: 2; opacity: 1;"><g class="fills"><g><path class="js-fill" d="M705.42,67L705.42,50.25L690.33,50.25L690.33,33.5L682.21,67L690.33,100.5L690.33,83.75L705.42,83.75L705.42,67Z" style="fill: rgb(128, 128, 128); fill-opacity: 0.5; stroke-width: 0;"/></g></g><g class="errorbars"/><g class="lines"><path class="js-line" d="M705.42,67L705.42,50.25L690.33,50.25L690.33,33.5L682.21,67L690.33,100.5L690.33,83.75L705.42,83.75L705.42,67" style="vector-effect: none; fill: none; stroke: rgb(128, 128, 128); stroke-opacity: 1; stroke-width: 1.5px; opacity: 1;"/></g><g class="points"/><g class="text"/></g><g class="trace scatter trace9bceeb" style="stroke-miterlimit: 2; opacity: 1;"><g class="fills"/><g class="errorbars"/><g class="lines"><path class="js-line" d="M717.93,67L718.54,67" style="vector-effect: none; fill: none; stroke: rgb(0, 0, 0); stroke-opacity: 1; stroke-width: 3px; opacity: 1;"/></g><g class="points"/><g class="text"/></g><g class="trace scatter traceb34e85" style="stroke-miterlimit: 2; opacity: 1;"><g class="fills"><g><path class="js-fill" d="M717.93,67L717.93,50.25L709.73,50.25L709.73,33.5L705.31,67L709.73,100.5L709.73,83.75L717.93,83.75L717.93,67Z" style="fill: rgb(128, 128, 128); fill-opacity: 0.5; stroke-width: 0;"/></g></g><g class="errorbars"/><g class="lines"><path class="js-line" d="M717.93,67L717.93,50.25L709.73,50.25L709.73,33.5L705.31,67L709.73,100.5L709.73,83.75L717.93,83.75L717.93,67" style="vector-effect: none; fill: none; stroke: rgb(128, 128, 128); stroke-opacity: 1; stroke-width: 1.5px; opacity: 1;"/></g><g class="points"/><g class="text"/></g><g class="trace scatter trace5aa700" style="stroke-miterlimit: 2; opacity: 1;"><g class="fills"/><g class="errorbars"/><g class="lines"><path class="js-line" d="M741.54,67L751.83,67" style="vector-effect: none; fill: none; stroke: rgb(0, 0, 0); stroke-opacity: 1; stroke-width: 3px; opacity: 1;"/></g><g class="points"/><g class="text"/></g><g class="trace scatter trace196d21" style="stroke-miterlimit: 2; opacity: 1;"><g class="fills"><g><path class="js-fill" d="M741.54,67L741.54,50.25L726.59,50.25L726.59,33.5L718.54,67L726.59,100.5L726.59,83.75L741.54,83.75L741.54,67Z" style="fill: rgb(128, 128, 128); fill-opacity: 0.5; stroke-width: 0;"/></g></g><g class="errorbars"/><g class="lines"><path class="js-line" d="M741.54,67L741.54,50.25L726.59,50.25L726.59,33.5L718.54,67L726.59,100.5L726.59,83.75L741.54,83.75L741.54,67" style="vector-effect: none; fill: none; stroke: rgb(128, 128, 128); stroke-opacity: 1; stroke-width: 1.5px; opacity: 1;"/></g><g class="points"/><g class="text"/></g><g class="trace scatter tracefd7b0f" style="stroke-miterlimit: 2; opacity: 1;"><g class="fills"/><g class="errorbars"/><g class="lines"><path class="js-line" d="M767.94,67L772.46,67" style="vector-effect: none; fill: none; stroke: rgb(0, 0, 0); stroke-opacity: 1; stroke-width: 3px; opacity: 1;"/></g><g class="points"/><g class="text"/></g><g class="trace scatter trace8b2d1b" style="stroke-miterlimit: 2; opacity: 1;"><g class="fills"><g><path class="js-fill" d="M751.83,67L751.83,50.25L762.3,50.25L762.3,33.5L767.94,67L762.3,100.5L762.3,83.75L751.83,83.75L751.83,67Z" style="fill: rgb(128, 128, 128); fill-opacity: 0.5; stroke-width: 0;"/></g></g><g class="errorbars"/><g class="lines"><path class="js-line" d="M751.83,67L751.83,50.25L762.3,50.25L762.3,33.5L767.94,67L762.3,100.5L762.3,83.75L751.83,83.75L751.83,67" style="vector-effect: none; fill: none; stroke: rgb(128, 128, 128); stroke-opacity: 1; stroke-width: 1.5px; opacity: 1;"/></g><g class="points"/><g class="text"/></g><g class="trace scatter trace26b8d1" style="stroke-miterlimit: 2; opacity: 1;"><g class="fills"/><g class="errorbars"/><g class="lines"><path class="js-line" d="M791.35,67L805.4,67" style="vector-effect: none; fill: none; stroke: rgb(0, 0, 0); stroke-opacity: 1; stroke-width: 3px; opacity: 1;"/></g><g class="points"/><g class="text"/></g><g class="trace scatter traceecb5e8" style="stroke-miterlimit: 2; opacity: 1;"><g class="fills"><g><path class="js-fill" d="M791.35,67L791.35,50.25L779.07,50.25L779.07,33.5L772.46,67L779.07,100.5L779.07,83.75L791.35,83.75L791.35,67Z" style="fill: rgb(128, 128, 128); fill-opacity: 0.5; stroke-width: 0;"/></g></g><g class="errorbars"/><g class="lines"><path class="js-line" d="M791.35,67L791.35,50.25L779.07,50.25L779.07,33.5L772.46,67L779.07,100.5L779.07,83.75L791.35,83.75L791.35,67" style="vector-effect: none; fill: none; stroke: rgb(128, 128, 128); stroke-opacity: 1; stroke-width: 1.5px; opacity: 1;"/></g><g class="points"/><g class="text"/></g><g class="trace scatter tracefc27fb" style="stroke-miterlimit: 2; opacity: 1;"><g class="fills"><g><path class="js-fill" d="M805.4,67L805.4,50.25L816.72,50.25L816.72,33.5L822.81,67L816.72,100.5L816.72,83.75L805.4,83.75L805.4,67Z" style="fill: rgb(128, 128, 128); fill-opacity: 0.5; stroke-width: 0;"/></g></g><g class="errorbars"/><g class="lines"><path class="js-line" d="M805.4,67L805.4,50.25L816.72,50.25L816.72,33.5L822.81,67L816.72,100.5L816.72,83.75L805.4,83.75L805.4,67" style="vector-effect: none; fill: none; stroke: rgb(128, 128, 128); stroke-opacity: 1; stroke-width: 1.5px; opacity: 1;"/></g><g class="points"/><g class="text"/></g></g></g><g class="overplot"/><path class="xlines-above crisp" d="M0,0" style="fill: none;"/><path class="ylines-above crisp" d="M0,0" style="fill: none;"/><g class="overlines-above"/><g class="xaxislayer-above"><g class="xtick"><text text-anchor="middle" x="0" y="147" transform="translate(88.3,0)" style="font-family: 'Open Sans', verdana, arial, sans-serif; font-size: 12px; fill: rgb(42, 63, 95); fill-opacity: 1; white-space: pre; opacity: 1;">2.57M</text></g><g class="xtick"><text text-anchor="middle" x="0" y="147" style="font-family: 'Open Sans', verdana, arial, sans-serif; font-size: 12px; fill: rgb(42, 63, 95); fill-opacity: 1; white-space: pre; opacity: 1;" transform="translate(259.68,0)">2.575M</text></g><g class="xtick"><text text-anchor="middle" x="0" y="147" style="font-family: 'Open Sans', verdana, arial, sans-serif; font-size: 12px; fill: rgb(42, 63, 95); fill-opacity: 1; white-space: pre; opacity: 1;" transform="translate(431.06,0)">2.58M</text></g><g class="xtick"><text text-anchor="middle" x="0" y="147" style="font-family: 'Open Sans', verdana, arial, sans-serif; font-size: 12px; fill: rgb(42, 63, 95); fill-opacity: 1; white-space: pre; opacity: 1;" transform="translate(602.45,0)">2.585M</text></g></g><g class="yaxislayer-above"/><g class="overaxes-above"/></g></g><g class="polarlayer"/><g class="smithlayer"/><g class="ternarylayer"/><g class="geolayer"/><g class="funnelarealayer"/><g class="pielayer"/><g class="iciclelayer"/><g class="treemaplayer"/><g class="sunburstlayer"/><g class="glimages"/><defs id="topdefs-948ce8"><g class="clips"/></defs><g class="layer-above"><g class="imagelayer"/><g class="shapelayer"/></g><g class="infolayer"><g class="g-gtitle"/><g class="g-xtitle"/><g class="g-ytitle"/></g></svg>