<svg class="main-svg" xmlns="http://www.w3.org/2000/svg" xmlns:xlink="http://www.w3.org/1999/xlink" width="700" height="150" style="" viewBox="0 0 700 150"><rect x="0" y="0" width="700" height="150" style="fill: rgb(255, 255, 255); fill-opacity: 1;"/><defs id="defs-e6e58c"><g class="clips"><clipPath id="clipe6e58cxyplot" class="plotclip"><rect width="700" height="134"/></clipPath><clipPath class="axesclip" id="clipe6e58cx"><rect x="0" y="0" width="700" height="150"/></clipPath><clipPath class="axesclip" id="clipe6e58cy"><rect x="0" y="0" width="700" height="134"/></clipPath><clipPath class="axesclip" id="clipe6e58cxy"><rect x="0" y="0" width="700" height="134"/></clipPath></g><g class="gradients"/><g class="patterns"/></defs><g class="bglayer"><rect class="bg" x="0" y="0" width="700" height="134" style="fill: rgb(0, 102, 153); fill-opacity: 0.25; stroke-width: 0;"/></g><g class="layer-below"><g class="imagelayer"/><g class="shapelayer"/></g><g class="cartesianlayer"><g class="subplot xy"><g class="layer-subplot"><g class="shapelayer"/><g class="imagelayer"/></g><g class="minor-gridlayer"><g class="x"/><g class="y"/></g><g class="gridlayer"><g class="x"><path class="xgrid crisp" transform="translate(85.99,0)" d="M0,0v134" style="stroke: rgb(255, 255, 255); stroke-opacity: 1; stroke-width: 1px;"/><path class="xgrid crisp" transform="translate(264.76,0)" d="M0,0v134" style="stroke: rgb(255, 255, 255); stroke-opacity: 1; stroke-width: 1px;"/><path class="xgrid crisp" transform="translate(443.53,0)" d="M0,0v134" style="stroke: rgb(255, 255, 255); stroke-opacity: 1; stroke-width: 1px;"/><path class="xgrid crisp" transform="translate(622.31,0)" d="M0,0v134" style="stroke: rgb(255, 255, 255); stroke-opacity: 1; stroke-width: 1px;"/></g><g class="y"/></g><g class="zerolinelayer"><path class="yzl zl crisp" transform="translate(0,67)" d="M0,0h700" style="stroke: rgb(255, 255, 255); stroke-opacity: 1; stroke-width: 2px;"/></g><path class="xlines-below"/><path class="ylines-below"/><g class="overlines-below"/><g class="xaxislayer-below"/><g class="yaxislayer-below"/><g class="overaxes-below"/><g class="plot" transform="" clip-path="url(#clipe6e58cxyplot)"><g class="scatterlayer mlayer"><g class="trace scatter tracebae36f" style="stroke-miterlimit: 2; opacity: 1;"><g class="fills"/><g class="errorbars"/><g class="lines"><path class="js-line" d="M-200.58,67L-170.05,67" style="vector-effect: none; fill: none; stroke: rgb(0, 0, 0); stroke-opacity: 1; stroke-width: 3px; opacity: 1;"/></g><g class="points"/><g class="text"/></g><g class="trace scatter trace7cfe7d" style="stroke-miterlimit: 2; opacity: 1;"><g class="fills"><g><path class="js-fill" d="M-200.58,67L-200.58,50.25L-222.24,50.25L-222.24,33.5L-233.91,67L-222.24,100.5L-222.24,83.75L-200.58,83.75L-200.58,67Z" style="fill: rgb(128, 128, 128); fill-opacity: 0.5; stroke-width: 0;"/></g></g><g class="errorbars"/><g class="lines"><path class="js-line" d="M-200.58,67L-200.58,50.25L-222.24,50.25L-222.24,33.5L-233.91,67L-222.24,100.5L-222.24,83.75L-200.58,83.75L-200.58,67" style="vector-effect: none; fill: none; stroke: rgb(128, 128, 128); stroke-opacity: 1; stroke-width: 1.5px; opacity: 1;"/></g><g class="points"/><g class="text"/></g><g class="trace scatter trace68c1b9" style="stroke-miterlimit: 2; opacity: 1;"><g class="fills"/><g class="errorbars"/><g class="lines"><path class="js-line" d="M-138.66,67L-110.37,67" style="vector-effect: none; fill: none; stroke: rgb(0, 0, 0); stroke-opacity: 1; stroke-width: 3px; opacity: 1;"/></g><g class="points"/><g class="text"/></g><g class="trace scatter tracef70a0a" style="stroke-miterlimit: 2; opacity: 1;"><g class="fills"><g><path class="js-fill" d="M-170.05,67L-170.05,50.25L-149.64,50.25L-149.64,33.5L-138.66,67L-149.64,100.5L-149.64,83.75L-170.05,83.75L-170.05,67Z" style="fill: rgb(128, 128, 128); fill-opacity: 0.5; stroke-width: 0;"/></g></g><g class="errorbars"/><g class="lines"><path class="js-line" d="M-170.05,67L-170.05,50.25L-149.64,50.25L-149.64,33.5L-138.66,67L-149.64,100.5L-149.64,83.75L-170.05,83.75L-170.05,67" style="vector-effect: none; fill: none; stroke: rgb(128, 128, 128); stroke-opacity: 1; stroke-width: 1.5px; opacity: 1;"/></g><g class="points"/><g class="text"/></g><g class="trace scatter traced26515" style="stroke-miterlimit: 2; opacity: 1;"><g class="fills"/><g class="errorbars"/><g class="lines"><path class="js-line" d="M-90.67,67L-85.95,67" style="vector-effect: none; fill: none; stroke: rgb(0, 0, 0); stroke-opacity: 1; stroke-width: 3px; opacity: 1;"/></g><g class="points"/><g class="text"/></g><g class="trace scatter trace0e52cb" style="stroke-miterlimit: 2; opacity: 1;"><g class="fills"><g><path class="js-fill" d="M-110.37,67L-110.37,50.25L-97.57,50.25L-97.57,33.5L-90.67,67L-97.57,100.5L-97.57,83.75L-110.37,83.75L-110.37,67Z" style="fill: rgb(128, 128, 128); fill-opacity: 0.5; stroke-width: 0;"/></g></g><g class="errorbars"/><g class="lines"><path class="js-line" d="M-110.37,67L-110.37,50.25L-97.57,50.25L-97.57,33.5L-90.67,67L-97.57,100.5L-97.57,83.75L-110.37,83.75L-110.37,67" style="vector-effect: none; fill: none; stroke: rgb(128, 128, 128); stroke-opacity: 1; stroke-width: 1.5px; opacity: 1;"/></g><g class="points"/><g class="text"/></g><g class="trace scatter trace560354" style="stroke-miterlimit: 2; opacity: 1;"><g class="fills"/><g class="errorbars"/><g class="lines"><path class="js-line" d="M-69.15,67L-58.42,67" style="vector-effect: none; fill: none; stroke: rgb(0, 0, 0); stroke-opacity: 1; stroke-width: 3px; opacity: 1;"/></g><g class="points"/><g class="text"/></g><g class="trace scatter trace950b1e" style="stroke-miterlimit: 2; opacity: 1;"><g class="fills"><g><path class="js-fill" d="M-69.15,67L-69.15,50.25L-80.07,50.25L-80.07,33.5L-85.95,67L-80.07,100.5L-80.07,83.75L-69.15,83.75L-69.15,67Z" style="fill: rgb(128, 128, 128); fill-opacity: 0.5; stroke-width: 0;"/></g></g><g class="errorbars"/><g class="lines"><path class="js-line" d="M-69.15,67L-69.15,50.25L-80.07,50.25L-80.07,33.5L-85.95,67L-80.07,100.5L-80.07,83.75L-69.15,83.75L-69.15,67" style="vector-effect: none; fill: none; stroke: rgb(128, 128, 128); stroke-opacity: 1; stroke-width: 1.5px; opacity: 1;"/></g><g class="points"/><g class="text"/></g><g class="trace scatter tracefac580" style="stroke-miterlimit: 2; opacity: 1;"><g class="fills"/><g class="errorbars"/><g class="lines"><path class="js-line" d="M-34.43,67L-33.79,67" style="vector-effect: none; fill: none; stroke: rgb(0, 0, 0); stroke-opacity: 1; stroke-width: 3px; opacity: 1;"/></g><g class="points"/><g class="text"/></g><g class="trace scatter tracedb5e2b" style="stroke-miterlimit: 2; opacity: 1;"><g class="fills"><g><path class="js-fill" d="M-58.42,67L-58.42,50.25L-42.83,50.25L-42.83,33.5L-34.43,67L-42.83,100.5L-42.83,83.75L-58.42,83.75L-58.42,67Z" style="fill: rgb(128, 128, 128); fill-opacity: 0.5; stroke-width: 0;"/></g></g><g class="errorbars"/><g class="lines"><path class="js-line" d="M-58.42,67L-58.42,50.25L-42.83,50.25L-42.83,33.5L-34.43,67L-42.83,100.5L-42.83,83.75L-58.42,83.75L-58.42,67" style="vector-effect: none; fill: none; stroke: rgb(128, 128, 128); stroke-opacity: 1; stroke-width: 1.5px; opacity: 1;"/></g><g class="points"/><g class="text"/></g><g class="trace scatter traceff75c0" style="stroke-miterlimit: 2; opacity: 1;"><g class="fills"/><g class="errorbars"/><g class="lines"><path class="js-line" d="M-20.63,67" style="vector-effect: none; fill: none; stroke: rgb(0, 0, 0); stroke-opacity: 1; stroke-width: 3px; opacity: 1;"/></g><g class="points"/><g class="text"/></g><g class="trace scatter tracec47b9b" style="stroke-miterlimit: 2; opacity: 1;"><g class="fills"><g><path class="js-fill" d="M-33.79,67L-33.79,50.25L-25.24,50.25L-25.24,33.5L-20.63,67L-25.24,100.5L-25.24,83.75L-33.79,83.75L-33.79,67Z" style="fill: rgb(128, 128, 128); fill-opacity: 0.5; stroke-width: 0;"/></g></g><g class="errorbars"/><g class="lines"><path class="js-line" d="M-33.79,67L-33.79,50.25L-25.24,50.25L-25.24,33.5L-20.63,67L-25.24,100.5L-25.24,83.75L-33.79,83.75L-33.79,67" style="vector-effect: none; fill: none; stroke: rgb(128, 128, 128); stroke-opacity: 1; stroke-width: 1.5px; opacity: 1;"/></g><g class="points"/><g class="text"/></g><g class="trace scatter traceab89d1" style="stroke-miterlimit: 2; opacity: 1;"><g class="fills"/><g class="errorbars"/><g class="lines"><path class="js-line" d="M3.47,67L8.62,67" style="vector-effect: none; fill: none; stroke: rgb(0, 0, 0); stroke-opacity: 1; stroke-width: 3px; opacity: 1;"/></g><g class="points"/><g class="text"/></g><g class="trace scatter tracefae026" style="stroke-miterlimit: 2; opacity: 1;"><g class="fills"><g><path class="js-fill" d="M-20.74,67L-20.74,50.25L-5,50.25L-5,33.5L3.47,67L-5,100.5L-5,83.75L-20.74,83.75L-20.74,67Z" style="fill: rgb(128, 128, 128); fill-opacity: 0.5; stroke-width: 0;"/></g></g><g class="errorbars"/><g class="lines"><path class="js-line" d="M-20.74,67L-20.74,50.25L-5,50.25L-5,33.5L3.47,67L-5,100.5L-5,83.75L-20.74,83.75L-20.74,67" style="vector-effect: none; fill: none; stroke: rgb(128, 128, 128); stroke-opacity: 1; stroke-width: 1.5px; opacity: 1;"/></g><g class="points"/><g class="text"/></g><g class="trace scatter trace7458bb" style="stroke-miterlimit: 2; opacity: 1;"><g class="fills"/><g class="errorbars"/><g class="lines"><path class="js-line" d="M21.45,67L35.11,67" style="vector-effect: none; fill: none; stroke: rgb(0, 0, 0); stroke-opacity: 1; stroke-width: 3px; opacity: 1;"/></g><g class="points"/><g class="text"/></g><g class="trace scatter trace9bd3d6" style="stroke-miterlimit: 2; opacity: 1;"><g class="fills"><g><path class="js-fill" d="M21.45,67L21.45,50.25L13.11,50.25L13.11,33.5L8.62,67L13.11,100.5L13.11,83.75L21.45,83.75L21.45,67Z" style="fill: rgb(128, 128, 128); fill-opacity: 0.5; stroke-width: 0;"/></g></g><g class="errorbars"/><g class="lines"><path class="js-line" d="M21.45,67L21.45,50.25L13.11,50.25L13.11,33.5L8.62,67L13.11,100.5L13.11,83.75L21.45,83.75L21.45,67" style="vector-effect: none; fill: none; stroke: rgb(128, 128, 128); stroke-opacity: 1; stroke-width: 1.5px; opacity: 1;"/></g><g class="points"/><g class="text"/></g><g class="trace scatter traceb56f65" style="stroke-miterlimit: 2; opacity: 1;"><g class="fills"/><g class="errorbars"/><g class="lines"><path class="js-line" d="M83.67,67L88.89,67" style="vector-effect: none; fill: none; stroke: rgb(0, 0, 0); stroke-opacity: 1; stroke-width: 3px; opacity: 1;"/></g><g class="points"/><g class="text"/></g><g class="trace scatter tracec3dc77" style="stroke-miterlimit: 2; opacity: 1;"><g class="fills"><g><path class="js-fill" d="M83.67,67L83.67,50.25L52.1,50.25L52.1,33.5L35.11,67L52.1,100.5L52.1,83.75L83.67,83.75L83.67,67Z" style="fill: rgb(128, 128, 128); fill-opacity: 0.5; stroke-width: 0;"/></g></g><g class="errorbars"/><g class="lines"><path class="js-line" d="M83.67,67L83.67,50.25L52.1,50.25L52.1,33.5L35.11,67L52.1,100.5L52.1,83.75L83.67,83.75L83.67,67" style="vector-effect: none; fill: none; stroke: rgb(128, 128, 128); stroke-opacity: 1; stroke-width: 1.5px; opacity: 1;"/></g><g class="points"/><g class="text"/></g><g class="trace scatter trace13eab7" style="stroke-miterlimit: 2; opacity: 1;"><g class="fills"/><g class="errorbars"/><g class="lines"><path class="js-line" d="M140.55,67L141.27,67" style="vector-effect: none; fill: none; stroke: rgb(0, 0, 0); stroke-opacity: 1; stroke-width: 3px; opacity: 1;"/></g><g class="points"/><g class="text"/></g><g class="trace scatter trace0f20e4" style="stroke-miterlimit: 2; opacity: 1;"><g class="fills"><g><path class="js-fill" d="M140.55,67L140.55,50.25L106.97,50.25L106.97,33.5L88.89,67L106.97,100.5L106.97,83.75L140.55,83.75L140.55,67Z" style="fill: rgb(128, 128, 128); fill-opacity: 0.5; stroke-width: 0;"/></g></g><g class="errorbars"/><g class="lines"><path class="js-line" d="M140.55,67L140.55,50.25L106.97,50.25L106.97,33.5L88.89,67L106.97,100.5L106.97,83.75L140.55,83.75L140.55,67" style="vector-effect: none; fill: none; stroke: rgb(128, 128, 128); stroke-opacity: 1; stroke-width: 1.5px; opacity: 1;"/></g><g class="points"/><g class="text"/></g><g class="trace scatter traceb538b8" style="stroke-miterlimit: 2; opacity: 1;"><g class="fills"/><g class="errorbars"/><g class="lines"><path class="js-line" d="M188.85,67L195.86,67" style="vector-effect: none; fill: none; stroke: rgb(0, 0, 0); stroke-opacity: 1; stroke-width: 3px; opacity: 1;"/></g><g class="points"/><g class="text"/></g><g class="trace scatter trace7a726b" style="stroke-miterlimit: 2; opacity: 1;"><g class="fills"><g><path class="js-fill" d="M188.85,67L188.85,50.25L157.92,50.25L157.92,33.5L141.27,67L157.92,100.5L157.92,83.75L188.85,83.75L188.85,67Z" style="fill: rgb(128, 128, 128); fill-opacity: 0.5; stroke-width: 0;"/></g></g><g class="errorbars"/><g class="lines"><path class="js-line" d="M188.85,67L188.85,50.25L157.92,50.25L157.92,33.5L141.27,67L157.92,100.5L157.92,83.75L188.85,83.75L188.85,67" style="vector-effect: none; fill: none; stroke: rgb(128, 128, 128); stroke-opacity: 1; stroke-width: 1.5px; opacity: 1;"/></g><g class="points"/><g class="text"/></g><g class="trace scatter trace8df05e" style="stroke-miterlimit: 2; opacity: 1;"><g class="fills"/><g class="errorbars"/><g class="lines"><path class="js-line" d="M221.14,67L223.5,67" style="vector-effect: none; fill: none; stroke: rgb(0, 0, 0); stroke-opacity: 1; stroke-width: 3px; opacity: 1;"/></g><g class="points"/><g class="text"/></g><g class="trace scatter trace3a238a" style="stroke-miterlimit: 2; opacity: 1;"><g class="fills"><g><path class="js-fill" d="M221.14,67L221.14,50.25L204.71,50.25L204.71,33.5L195.86,67L204.71,100.5L204.71,83.75L221.14,83.75L221.14,67Z" style="fill: rgb(128, 128, 128); fill-opacity: 0.5; stroke-width: 0;"/></g></g><g class="errorbars"/><g class="lines"><path class="js-line" d="M221.14,67L221.14,50.25L204.71,50.25L204.71,33.5L195.86,67L204.71,100.5L204.71,83.75L221.14,83.75L221.14,67" style="vector-effect: none; fill: none; stroke: rgb(128, 128, 128); stroke-opacity: 1; stroke-width: 1.5px; opacity: 1;"/></g><g class="points"/><g class="text"/></g><g class="trace scatter tracef1a0a1" style="stroke-miterlimit: 2; opacity: 1;"><g class="fills"/><g class="errorbars"/><g class="lines"><path class="js-line" d="M249.21,67L251.35,67" style="vector-effect: none; fill: none; stroke: rgb(0, 0, 0); stroke-opacity: 1; stroke-width: 3px; opacity: 1;"/></g><g class="points"/><g class="text"/></g><g class="trace scatter trace9d3b1c" style="stroke-miterlimit: 2; opacity: 1;"><g class="fills"><g><path class="js-fill" d="M249.21,67L249.21,50.25L232.5,50.25L232.5,33.5L223.5,67L232.5,100.5L232.5,83.75L249.21,83.75L249.21,67Z" style="fill: rgb(128, 128, 128); fill-opacity: 0.5; stroke-width: 0;"/></g></g><g class="errorbars"/><g class="lines"><path class="js-line" d="M249.21,67L249.21,50.25L232.5,50.25L232.5,33.5L223.5,67L232.5,100.5L232.5,83.75L249.21,83.75L249.21,67" style="vector-effect: none; fill: none; stroke: rgb(128, 128, 128); stroke-opacity: 1; stroke-width: 1.5px; opacity: 1;"/></g><g class="points"/><g class="text"/></g><g class="trace scatter trace6e87f9" style="stroke-miterlimit: 2; opacity: 1;"><g class="fills"/><g class="errorbars"/><g class="lines"><path class="js-line" d="M278.88,67L279.92,67" style="vector-effect: none; fill: none; stroke: rgb(0, 0, 0); stroke-opacity: 1; stroke-width: 3px; opacity: 1;"/></g><g class="points"/><g class="text"/></g><g class="trace scatter tracecadca6" style="stroke-miterlimit: 2; opacity: 1;"><g class="fills"><g><path class="js-fill" d="M278.88,67L278.88,50.25L260.99,50.25L260.99,33.5L251.35,67L260.99,100.5L260.99,83.75L278.88,83.75L278.88,67Z" style="fill: rgb(128, 128, 128); fill-opacity: 0.5; stroke-width: 0;"/></g></g><g class="errorbars"/><g class="lines"><path class="js-line" d="M278.88,67L278.88,50.25L260.99,50.25L260.99,33.5L251.35,67L260.99,100.5L260.99,83.75L278.88,83.75L278.88,67" style="vector-effect: none; fill: none; stroke: rgb(128, 128, 128); stroke-opacity: 1; stroke-width: 1.5px; opacity: 1;"/></g><g class="points"/><g class="text"/></g><g class="trace scatter trace6632f1" style="stroke-miterlimit: 2; opacity: 1;"><g class="fills"/><g class="errorbars"/><g class="lines"><path class="js-line" d="M331.05,67L342.46,67" style="vector-effect: none; fill: none; stroke: rgb(0, 0, 0); stroke-opacity: 1; stroke-width: 3px; opacity: 1;"/></g><g class="points"/><g class="text"/></g><g class="trace scatter trace50ae55" style="stroke-miterlimit: 2; opacity: 1;"><g class="fills"><g><path class="js-fill" d="M331.05,67L331.05,50.25L297.82,50.25L297.82,33.5L279.92,67L297.82,100.5L297.82,83.75L331.05,83.75L331.05,67Z" style="fill: rgb(128, 128, 128); fill-opacity: 0.5; stroke-width: 0;"/></g></g><g class="errorbars"/><g class="lines"><path class="js-line" d="M331.05,67L331.05,50.25L297.82,50.25L297.82,33.5L279.92,67L297.82,100.5L297.82,83.75L331.05,83.75L331.05,67" style="vector-effect: none; fill: none; stroke: rgb(128, 128, 128); stroke-opacity: 1; stroke-width: 1.5px; opacity: 1;"/></g><g class="points"/><g class="text"/></g><g class="trace scatter trace0b3a67" style="stroke-miterlimit: 2; opacity: 1;"><g class="fills"/><g class="errorbars"/><g class="lines"><path class="js-line" d="M357.54,67L362.41,67" style="vector-effect: none; fill: none; stroke: rgb(0, 0, 0); stroke-opacity: 1; stroke-width: 3px; opacity: 1;"/></g><g class="points"/><g class="text"/></g><g class="trace scatter trace16b7bc" style="stroke-miterlimit: 2; opacity: 1;"><g class="fills"><g><path class="js-fill" d="M357.54,67L357.54,50.25L347.74,50.25L347.74,33.5L342.46,67L347.74,100.5L347.74,83.75L357.54,83.75L357.54,67Z" style="fill: rgb(255, 20, 20); fill-opacity: 0.5; stroke-width: 0;"/></g></g><g class="errorbars"/><g class="lines"><path class="js-line" d="M357.54,67L357.54,50.25L347.74,50.25L347.74,33.5L342.46,67L347.74,100.5L347.74,83.75L357.54,83.75L357.54,67" style="vector-effect: none; fill: none; stroke: rgb(255, 20, 20); stroke-opacity: 1; stroke-width: 1.5px; opacity: 1;"/></g><g class="points"/><g class="text"/></g><g class="trace scatter tracea17b7f" style="stroke-miterlimit: 2; opacity: 1;"><g class="fills"/><g class="errorbars"/><g class="lines"><path class="js-line" d="M406.56,67" style="vector-effect: none; fill: none; stroke: rgb(0, 0, 0); stroke-opacity: 1; stroke-width: 3px; opacity: 1;"/></g><g class="points"/><g class="text"/></g><g class="trace scatter trace99ea6f" style="stroke-miterlimit: 2; opacity: 1;"><g class="fills"><g><path class="js-fill" d="M362.41,67L362.41,50.25L391.11,50.25L391.11,33.5L406.56,67L391.11,100.5L391.11,83.75L362.41,83.75L362.41,67Z" style="fill: rgb(128, 128, 128); fill-opacity: 0.5; stroke-width: 0;"/></g></g><g class="errorbars"/><g class="lines"><path class="js-line" d="M362.41,67L362.41,50.25L391.11,50.25L391.11,33.5L406.56,67L391.11,100.5L391.11,83.75L362.41,83.75L362.41,67" style="vector-effect: none; fill: none; stroke: rgb(128, 128, 128); stroke-opacity: 1; stroke-width: 1.5px; opacity: 1;"/></g><g class="points"/><g class="text"/></g><g class="trace scatter traceca0a53" style="stroke-miterlimit: 2; opacity: 1;"><g class="fills"/><g class="errorbars"/><g class="lines"><path class="js-line" d="M420.36,67L422.33,67" style="vector-effect: none; fill: none; stroke: rgb(0, 0, 0); stroke-opacity: 1; stroke-width: 3px; opacity: 1;"/></g><g class="points"/><g class="text"/></g><g class="trace scatter tracea8f20e" style="stroke-miterlimit: 2; opacity: 1;"><g class="fills"><g><path class="js-fill" d="M406.46,67L406.46,50.25L415.5,50.25L415.5,33.5L420.36,67L415.5,100.5L415.5,83.75L406.46,83.75L406.46,67Z" style="fill: rgb(128, 128, 128); fill-opacity: 0.5; stroke-width: 0;"/></g></g><g class="errorbars"/><g class="lines"><path class="js-line" d="M406.46,67L406.46,50.25L415.5,50.25L415.5,33.5L420.36,67L415.5,100.5L415.5,83.75L406.46,83.75L406.46,67" style="vector-effect: none; fill: none; stroke: rgb(128, 128, 128); stroke-opacity: 1; stroke-width: 1.5px; opacity: 1;"/></g><g class="points"/><g class="text"/></g><g class="trace scatter trace4ad269" style="stroke-miterlimit: 2; opacity: 1;"><g class="fills"/><g class="errorbars"/><g class="lines"><path class="js-line" d="M455.65,67L457.01,67" style="vector-effect: none; fill: none; stroke: rgb(0, 0, 0); stroke-opacity: 1; stroke-width: 3px; opacity: 1;"/></g><g class="points"/><g class="text"/></g><g class="trace scatter trace7ef2b2" style="stroke-miterlimit: 2; opacity: 1;"><g class="fills"><g><path class="js-fill" d="M422.33,67L422.33,50.25L443.99,50.25L443.99,33.5L455.65,67L443.99,100.5L443.99,83.75L422.33,83.75L422.33,67Z" style="fill: rgb(128, 128, 128); fill-opacity: 0.5; stroke-width: 0;"/></g></g><g class="errorbars"/><g class="lines"><path class="js-line" d="M422.33,67L422.33,50.25L443.99,50.25L443.99,33.5L455.65,67L443.99,100.5L443.99,83.75L422.33,83.75L422.33,67" style="vector-effect: none; fill: none; stroke: rgb(128, 128, 128); stroke-opacity: 1; stroke-width: 1.5px; opacity: 1;"/></g><g class="points"/><g class="text"/></g><g class="trace scatter traceaf3182" style="stroke-miterlimit: 2; opacity: 1;"><g class="fills"/><g class="errorbars"/><g class="lines"><path class="js-line" d="M490.23,67L492.59,67" style="vector-effect: none; fill: none; stroke: rgb(0, 0, 0); stroke-opacity: 1; stroke-width: 3px; opacity: 1;"/></g><g class="points"/><g class="text"/></g><g class="trace scatter trace85c912" style="stroke-miterlimit: 2; opacity: 1;"><g class="fills"><g><path class="js-fill" d="M457.01,67L457.01,50.25L478.6,50.25L478.6,33.5L490.23,67L478.6,100.5L478.6,83.75L457.01,83.75L457.01,67Z" style="fill: rgb(128, 128, 128); fill-opacity: 0.5; stroke-width: 0;"/></g></g><g class="errorbars"/><g class="lines"><path class="js-line" d="M457.01,67L457.01,50.25L478.6,50.25L478.6,33.5L490.23,67L478.6,100.5L478.6,83.75L457.01,83.75L457.01,67" style="vector-effect: none; fill: none; stroke: rgb(128, 128, 128); stroke-opacity: 1; stroke-width: 1.5px; opacity: 1;"/></g><g class="points"/><g class="text"/></g><g class="trace scatter traced93239" style="stroke-miterlimit: 2; opacity: 1;"><g class="fills"/><g class="errorbars"/><g class="lines"><path class="js-line" d="M522.26,67L523.12,67" style="vector-effect: none; fill: none; stroke: rgb(0, 0, 0); stroke-opacity: 1; stroke-width: 3px; opacity: 1;"/></g><g class="points"/><g class="text"/></g><g class="trace scatter trace153f2e" style="stroke-miterlimit: 2; opacity: 1;"><g class="fills"><g><path class="js-fill" d="M492.59,67L492.59,50.25L511.88,50.25L511.88,33.5L522.26,67L511.88,100.5L511.88,83.75L492.59,83.75L492.59,67Z" style="fill: rgb(128, 128, 128); fill-opacity: 0.5; stroke-width: 0;"/></g></g><g class="errorbars"/><g class="lines"><path class="js-line" d="M492.59,67L492.59,50.25L511.88,50.25L511.88,33.5L522.26,67L511.88,100.5L511.88,83.75L492.59,83.75L492.59,67" style="vector-effect: none; fill: none; stroke: rgb(128, 128, 128); stroke-opacity: 1; stroke-width: 1.5px; opacity: 1;"/></g><g class="points"/><g class="text"/></g><g class="trace scatter trace6dfda5" style="stroke-miterlimit: 2; opacity: 1;"><g class="fills"/><g class="errorbars"/><g class="lines"><path class="js-line" d="M578.54,67L591.74,67" style="vector-effect: none; fill: none; stroke: rgb(0, 0, 0); stroke-opacity: 1; stroke-width: 3px; opacity: 1;"/></g><g class="points"/><g class="text"/></g><g class="trace scatter traced373c4" style="stroke-miterlimit: 2; opacity: 1;"><g class="fills"><g><path class="js-fill" d="M523.12,67L523.12,50.25L559.15,50.25L559.15,33.5L578.54,67L559.15,100.5L559.15,83.75L523.12,83.75L523.12,67Z" style="fill: rgb(128, 128, 128); fill-opacity: 0.5; stroke-width: 0;"/></g></g><g class="errorbars"/><g class="lines"><path class="js-line" d="M523.12,67L523.12,50.25L559.15,50.25L559.15,33.5L578.54,67L559.15,100.5L559.15,83.75L523.12,83.75L523.12,67" style="vector-effect: none; fill: none; stroke: rgb(128, 128, 128); stroke-opacity: 1; stroke-width: 1.5px; opacity: 1;"/></g><g class="points"/><g class="text"/></g><g class="trace scatter tracea2b0f7" style="stroke-miterlimit: 2; opacity: 1;"><g class="fills"/><g class="errorbars"/><g class="lines"><path class="js-line" d="M599.85,67L611.44,67" style="vector-effect: none; fill: none; stroke: rgb(0, 0, 0); stroke-opacity: 1; stroke-width: 3px; opacity: 1;"/></g><g class="points"/><g class="text"/></g><g class="trace scatter trace46d17f" style="stroke-miterlimit: 2; opacity: 1;"><g class="fills"><g><path class="js-fill" d="M591.74,67L591.74,50.25L597.01,50.25L597.01,33.5L599.85,67L597.01,100.5L597.01,83.75L591.74,83.75L591.74,67Z" style="fill: rgb(128, 128, 128); fill-opacity: 0.5; stroke-width: 0;"/></g></g><g class="errorbars"/><g class="lines"><path class="js-line" d="M591.74,67L591.74,50.25L597.01,50.25L597.01,33.5L599.85,67L597.01,100.5L597.01,83.75L591.74,83.75L591.74,67" style="vector-effect: none; fill: none; stroke: rgb(128, 128, 128); stroke-opacity: 1; stroke-width: 1.5px; opacity: 1;"/></g><g class="points"/><g class="text"/></g><g class="trace scatter trace505bde" style="stroke-miterlimit: 2; opacity: 1;"><g class="fills"/><g class="errorbars"/><g class="lines"><path class="js-line" d="M658.6,67L662.6,67" style="vector-effect: none; fill: none; stroke: rgb(0, 0, 0); stroke-opacity: 1; stroke-width: 3px; opacity: 1;"/></g><g class="points"/><g class="text"/></g><g class="trace scatter trace2c823f" style="stroke-miterlimit: 2; opacity: 1;"><g class="fills"><g><path class="js-fill" d="M611.44,67L611.44,50.25L642.09,50.25L642.09,33.5L658.6,67L642.09,100.5L642.09,83.75L611.44,83.75L611.44,67Z" style="fill: rgb(128, 128, 128); fill-opacity: 0.5; stroke-width: 0;"/></g></g><g class="errorbars"/><g class="lines"><path class="js-line" d="M611.44,67L611.44,50.25L642.09,50.25L642.09,33.5L658.6,67L642.09,100.5L642.09,83.75L611.44,83.75L611.44,67" style="vector-effect: none; fill: none; stroke: rgb(128, 128, 128); stroke-opacity: 1; stroke-width: 1.5px; opacity: 1;"/></g><g class="points"/><g class="text"/></g><g class="trace scatter trace64cb94" style="stroke-miterlimit: 2; opacity: 1;"><g class="fills"/><g class="errorbars"/><g class="lines"><path class="js-line" d="M698.28,67L717.95,67" style="vector-effect: none; fill: none; stroke: rgb(0, 0, 0); stroke-opacity: 1; stroke-width: 3px; opacity: 1;"/></g><g class="points"/><g class="text"/></g><g class="trace scatter tracee9d592" style="stroke-miterlimit: 2; opacity: 1;"><g class="fills"><g><path class="js-fill" d="M662.6,67L662.6,50.25L685.79,50.25L685.79,33.5L698.28,67L685.79,100.5L685.79,83.75L662.6,83.75L662.6,67Z" style="fill: rgb(128, 128, 128); fill-opacity: 0.5; stroke-width: 0;"/></g></g><g class="errorbars"/><g class="lines"><path class="js-line" d="M662.6,67L662.6,50.25L685.79,50.25L685.79,33.5L698.28,67L685.79,100.5L685.79,83.75L662.6,83.75L662.6,67" style="vector-effect: none; fill: none; stroke: rgb(128, 128, 128); stroke-opacity: 1; stroke-width: 1.5px; opacity: 1;"/></g><g class="points"/><g class="text"/></g><g class="trace scatter trace96f393" style="stroke-miterlimit: 2; opacity: 1;"><g class="fills"/><g class="errorbars"/><g class="lines"><path class="js-line" d="M750.27,67L752.34,67" style="vector-effect: none; fill: none; stroke: rgb(0, 0, 0); stroke-opacity: 1; stroke-width: 3px; opacity: 1;"/></g><g class="points"/><g class="text"/></g><g class="trace scatter trace476ee1" style="stroke-miterlimit: 2; opacity: 1;"><g class="fills"><g><path class="js-fill" d="M717.95,67L717.95,50.25L738.96,50.25L738.96,33.5L750.27,67L738.96,100.5L738.96,83.75L717.95,83.75L717.95,67Z" style="fill: rgb(128, 128, 128); fill-opacity: 0.5; stroke-width: 0;"/></g></g><g class="errorbars"/><g class="lines"><path class="js-line" d="M717.95,67L717.95,50.25L738.96,50.25L738.96,33.5L750.27,67L738.96,100.5L738.96,83.75L717.95,83.75L717.95,67" style="vector-effect: none; fill: none; stroke: rgb(128, 128, 128); stroke-opacity: 1; stroke-width: 1.5px; opacity: 1;"/></g><g class="points"/><g class="text"/></g><g class="trace scatter trace672769" style="stroke-miterlimit: 2; opacity: 1;"><g class="fills"/><g class="errorbars"/><g class="lines"><path class="js-line" d="M772.26,67L780.88,67" style="vector-effect: none; fill: none; stroke: rgb(0, 0, 0); stroke-opacity: 1; stroke-width: 3px; opacity: 1;"/></g><g class="points"/><g class="text"/></g><g class="trace scatter tracef7a7b2" style="stroke-miterlimit: 2; opacity: 1;"><g class="fills"><g><path class="js-fill" d="M772.26,67L772.26,50.25L759.31,50.25L759.31,33.5L752.34,67L759.31,100.5L759.31,83.75L772.26,83.75L772.26,67Z" style="fill: rgb(128, 128, 128); fill-opacity: 0.5; stroke-width: 0;"/></g></g><g class="errorbars"/><g class="lines"><path class="js-line" d="M772.26,67L772.26,50.25L759.31,50.25L759.31,33.5L752.34,67L759.31,100.5L759.31,83.75L772.26,83.75L772.26,67" style="vector-effect: none; fill: none; stroke: rgb(128, 128, 128); stroke-opacity: 1; stroke-width: 1.5px; opacity: 1;"/></g><g class="points"/><g class="text"/></g><g class="trace scatter traceceda75" style="stroke-miterlimit: 2; opacity: 1;"><g class="fills"/><g class="errorbars"/><g class="lines"><path class="js-line" d="M794.78,67L797.14,67" style="vector-effect: none; fill: none; stroke: rgb(0, 0, 0); stroke-opacity: 1; stroke-width: 3px; opacity: 1;"/></g><g class="points"/><g class="text"/></g><g class="trace scatter traced6e230" style="stroke-miterlimit: 2; opacity: 1;"><g class="fills"><g><path class="js-fill" d="M780.88,67L780.88,50.25L789.92,50.25L789.92,33.5L794.78,67L789.92,100.5L789.92,83.75L780.88,83.75L780.88,67Z" style="fill: rgb(128, 128, 128); fill-opacity: 0.5; stroke-width: 0;"/></g></g><g class="errorbars"/><g class="lines"><path class="js-line" d="M780.88,67L780.88,50.25L789.92,50.25L789.92,33.5L794.78,67L789.92,100.5L789.92,83.75L780.88,83.75L780.88,67" style="vector-effect: none; fill: none; stroke: rgb(128, 128, 128); stroke-opacity: 1; stroke-width: 1.5px; opacity: 1;"/></g><g class="points"/><g class="text"/></g><g class="trace scatter tracece5cef" style="stroke-miterlimit: 2; opacity: 1;"><g class="fills"/><g class="errorbars"/><g class="lines"><path class="js-line" d="M817.38,67L819.88,67" style="vector-effect: none; fill: none; stroke: rgb(0, 0, 0); stroke-opacity: 1; stroke-width: 3px; opacity: 1;"/></g><g class="points"/><g class="text"/></g><g class="trace scatter trace96b06b" style="stroke-miterlimit: 2; opacity: 1;"><g class="fills"><g><path class="js-fill" d="M797.14,67L797.14,50.25L810.3,50.25L810.3,33.5L817.38,67L810.3,100.5L810.3,83.75L797.14,83.75L797.14,67Z" style="fill: rgb(128, 128, 128); fill-opacity: 0.5; stroke-width: 0;"/></g></g><g class="errorbars"/><g class="lines"><path class="js-line" d="M797.14,67L797.14,50.25L810.3,50.25L810.3,33.5L817.38,67L810.3,100.5L810.3,83.75L797.14,83.75L797.14,67" style="vector-effect: none; fill: none; stroke: rgb(128, 128, 128); stroke-opacity: 1; stroke-width: 1.5px; opacity: 1;"/></g><g class="points"/><g class="text"/></g><g class="trace scatter trace2b1fa6" style="stroke-miterlimit: 2; opacity: 1;"><g class="fills"><g><path class="js-fill" d="M828.97,67L828.97,50.25L823.06,50.25L823.06,33.5L819.88,67L823.06,100.5L823.06,83.75L828.97,83.75L828.97,67Z" style="fill: rgb(128, 128, 128); fill-opacity: 0.5; stroke-width: 0;"/></g></g><g class="errorbars"/><g class="lines"><path class="js-line" d="M828.97,67L828.97,50.25L823.06,50.25L823.06,33.5L819.88,67L823.06,100.5L823.06,83.75L828.97,83.75L828.97,67" style="vector-effect: none; fill: none; stroke: rgb(128, 128, 128); stroke-opacity: 1; stroke-width: 1.5px; opacity: 1;"/></g><g class="points"/><g class="text"/></g></g></g><g class="overplot"/><path class="xlines-above crisp" d="M0,0" style="fill: none;"/><path class="ylines-above crisp" d="M0,0" style="fill: none;"/><g class="overlines-above"/><g class="xaxislayer-above"><g class="xtick"><text text-anchor="middle" x="0" y="147" transform="translate(85.99,0)" style="font-family: 'Open Sans', verdana, arial, sans-serif; font-size: 12px; fill: rgb(42, 63, 95); fill-opacity: 1; white-space: pre; opacity: 1;">1.215M</text></g><g class="xtick"><text text-anchor="middle" x="0" y="147" style="font-family: 'Open Sans', verdana, arial, sans-serif; font-size: 12px; fill: rgb(42, 63, 95); fill-opacity: 1; white-space: pre; opacity: 1;" transform="translate(264.76,0)">1.22M</text></g><g class="xtick"><text text-anchor="middle" x="0" y="147" style="font-family: 'Open Sans', verdana, arial, sans-serif; font-size: 12px; fill: rgb(42, 63, 95); fill-opacity: 1; white-space: pre; opacity: 1;" transform="translate(443.53,0)">1.225M</text></g><g class="xtick"><text text-anchor="middle" x="0" y="147" style="font-family: 'Open Sans', verdana, arial, sans-serif; font-size: 12px; fill: rgb(42, 63, 95); fill-opacity: 1; white-space: pre; opacity: 1;" transform="translate(622.31,0)">1.23M</text></g></g><g class="yaxislayer-above"/><g class="overaxes-above"/></g></g><g class="polarlayer"/><g class="smithlayer"/><g class="ternarylayer"/><g class="geolayer"/><g class="funnelarealayer"/><g class="pielayer"/><g class="iciclelayer"/><g class="treemaplayer"/><g class="sunburstlayer"/><g class="glimages"/><defs id="topdefs-e6e58c"><g class="clips"/></defs><g class="layer-above"><g class="imagelayer"/><g class="shapelayer"/></g><g class="infolayer"><g class="g-gtitle"/><g class="g-xtitle"/><g class="g-ytitle"/></g></svg>