<svg class="main-svg" xmlns="http://www.w3.org/2000/svg" xmlns:xlink="http://www.w3.org/1999/xlink" width="700" height="150" style="" viewBox="0 0 700 150"><rect x="0" y="0" width="700" height="150" style="fill: rgb(255, 255, 255); fill-opacity: 1;"/><defs id="defs-31ac48"><g class="clips"><clipPath id="clip31ac48xyplot" class="plotclip"><rect width="700" height="134"/></clipPath><clipPath class="axesclip" id="clip31ac48x"><rect x="0" y="0" width="700" height="150"/></clipPath><clipPath class="axesclip" id="clip31ac48y"><rect x="0" y="0" width="700" height="134"/></clipPath><clipPath class="axesclip" id="clip31ac48xy"><rect x="0" y="0" width="700" height="134"/></clipPath></g><g class="gradients"/><g class="patterns"/></defs><g class="bglayer"><rect class="bg" x="0" y="0" width="700" height="134" style="fill: rgb(0, 102, 153); fill-opacity: 0.25; stroke-width: 0;"/></g><g class="layer-below"><g class="imagelayer"/><g class="shapelayer"/></g><g class="cartesianlayer"><g class="subplot xy"><g class="layer-subplot"><g class="shapelayer"/><g class="imagelayer"/></g><g class="minor-gridlayer"><g class="x"/><g class="y"/></g><g class="gridlayer"><g class="x"><path class="xgrid crisp" transform="translate(78.27,0)" d="M0,0v134" style="stroke: rgb(255, 255, 255); stroke-opacity: 1; stroke-width: 1px;"/><path class="xgrid crisp" transform="translate(241.35,0)" d="M0,0v134" style="stroke: rgb(255, 255, 255); stroke-opacity: 1; stroke-width: 1px;"/><path class="xgrid crisp" transform="translate(404.42,0)" d="M0,0v134" style="stroke: rgb(255, 255, 255); stroke-opacity: 1; stroke-width: 1px;"/><path class="xgrid crisp" transform="translate(567.49,0)" d="M0,0v134" style="stroke: rgb(255, 255, 255); stroke-opacity: 1; stroke-width: 1px;"/></g><g class="y"/></g><g class="zerolinelayer"><path class="yzl zl crisp" transform="translate(0,67)" d="M0,0h700" style="stroke: rgb(255, 255, 255); stroke-opacity: 1; stroke-width: 2px;"/></g><path class="xlines-below"/><path class="ylines-below"/><g class="overlines-below"/><g class="xaxislayer-below"/><g class="yaxislayer-below"/><g class="overaxes-below"/><g class="plot" transform="" clip-path="url(#clip31ac48xyplot)"><g class="scatterlayer mlayer"><g class="trace scatter tracef71816" style="stroke-miterlimit: 2; opacity: 1;"><g class="fills"/><g class="errorbars"/><g class="lines"><path class="js-line" d="M3695.46,67" style="vector-effect: none; fill: none; stroke: rgb(0, 0, 0); stroke-opacity: 1; stroke-width: 3px; opacity: 1;"/></g><g class="points"/><g class="text"/></g><g class="trace scatter tracec71d8c" style="stroke-miterlimit: 2; opacity: 1;"><g class="fills"><g><path class="js-fill" d="M3695.46,67L3695.46,50.25L3649.18,50.25L3649.18,33.5L3649.18,100.5L3649.18,83.75L3695.46,83.75L3695.46,67Z" style="fill: rgb(128, 128, 128); fill-opacity: 0.5; stroke-width: 0;"/></g></g><g class="errorbars"/><g class="lines"><path class="js-line" d="M3695.46,67L3695.46,50.25L3649.18,50.25L3649.18,33.5L3649.18,100.5L3649.18,83.75L3695.46,83.75L3695.46,67" style="vector-effect: none; fill: none; stroke: rgb(128, 128, 128); stroke-opacity: 1; stroke-width: 1.5px; opacity: 1;"/></g><g class="points"/><g class="text"/></g><g class="trace scatter trace2b3e05" style="stroke-miterlimit: 2; opacity: 1;"><g class="fills"/><g class="errorbars"/><g class="lines"><path class="js-line" d="M3734.99,67L3745.62,67" style="vector-effect: none; fill: none; stroke: rgb(0, 0, 0); stroke-opacity: 1; stroke-width: 3px; opacity: 1;"/></g><g class="points"/><g class="text"/></g><g class="trace scatter tracea8a350" style="stroke-miterlimit: 2; opacity: 1;"><g class="fills"><g><path class="js-fill" d="M3701.75,67L3723.35,33.5L3734.99,67L3723.35,100.5L3701.75,67Z" style="fill: rgb(128, 128, 128); fill-opacity: 0.5; stroke-width: 0;"/></g></g><g class="errorbars"/><g class="lines"><path class="js-line" d="M3701.75,67L3723.35,33.5L3734.99,67L3723.35,100.5L3701.75,67" style="vector-effect: none; fill: none; stroke: rgb(128, 128, 128); stroke-opacity: 1; stroke-width: 1.5px; opacity: 1;"/></g><g class="points"/><g class="text"/></g><g class="trace scatter trace0d3769" style="stroke-miterlimit: 2; opacity: 1;"><g class="fills"/><g class="errorbars"/><g class="lines"><path class="js-line" d="M3758.99,67L-82.58,67" style="vector-effect: none; fill: none; stroke: rgb(0, 0, 0); stroke-opacity: 1; stroke-width: 3px; opacity: 1;"/></g><g class="points"/><g class="text"/></g><g class="trace scatter trace433430" style="stroke-miterlimit: 2; opacity: 1;"><g class="fills"><g><path class="js-fill" d="M3745.62,67L3754.31,33.5L3754.31,100.5L3745.62,67Z" style="fill: rgb(128, 128, 128); fill-opacity: 0.5; stroke-width: 0;"/></g></g><g class="errorbars"/><g class="lines"><path class="js-line" d="M3745.62,67L3754.31,33.5L3754.31,100.5L3745.62,67" style="vector-effect: none; fill: none; stroke: rgb(128, 128, 128); stroke-opacity: 1; stroke-width: 1.5px; opacity: 1;"/></g><g class="points"/><g class="text"/></g><g class="trace scatter trace3e71c1" style="stroke-miterlimit: 2; opacity: 1;"><g class="fills"/><g class="errorbars"/><g class="lines"><path class="js-line" d="M-55.51,67L-53.62,67" style="vector-effect: none; fill: none; stroke: rgb(0, 0, 0); stroke-opacity: 1; stroke-width: 3px; opacity: 1;"/></g><g class="points"/><g class="text"/></g><g class="trace scatter tracec60857" style="stroke-miterlimit: 2; opacity: 1;"><g class="fills"><g><path class="js-fill" d="M-55.51,67L-55.51,50.25L-73.1,50.25L-73.1,33.5L-82.58,67L-73.1,100.5L-73.1,83.75L-55.51,83.75L-55.51,67Z" style="fill: rgb(128, 128, 128); fill-opacity: 0.5; stroke-width: 0;"/></g></g><g class="errorbars"/><g class="lines"><path class="js-line" d="M-55.51,67L-55.51,50.25L-73.1,50.25L-73.1,33.5L-82.58,67L-73.1,100.5L-73.1,83.75L-55.51,83.75L-55.51,67" style="vector-effect: none; fill: none; stroke: rgb(128, 128, 128); stroke-opacity: 1; stroke-width: 1.5px; opacity: 1;"/></g><g class="points"/><g class="text"/></g><g class="trace scatter trace8ebeb2" style="stroke-miterlimit: 2; opacity: 1;"><g class="fills"/><g class="errorbars"/><g class="lines"><path class="js-line" d="M-38.29,67L-30.49,67" style="vector-effect: none; fill: none; stroke: rgb(0, 0, 0); stroke-opacity: 1; stroke-width: 3px; opacity: 1;"/></g><g class="points"/><g class="text"/></g><g class="trace scatter traceb06963" style="stroke-miterlimit: 2; opacity: 1;"><g class="fills"><g><path class="js-fill" d="M-38.29,67L-38.29,50.25L-48.25,50.25L-48.25,33.5L-53.62,67L-48.25,100.5L-48.25,83.75L-38.29,83.75L-38.29,67Z" style="fill: rgb(128, 128, 128); fill-opacity: 0.5; stroke-width: 0;"/></g></g><g class="errorbars"/><g class="lines"><path class="js-line" d="M-38.29,67L-38.29,50.25L-48.25,50.25L-48.25,33.5L-53.62,67L-48.25,100.5L-48.25,83.75L-38.29,83.75L-38.29,67" style="vector-effect: none; fill: none; stroke: rgb(128, 128, 128); stroke-opacity: 1; stroke-width: 1.5px; opacity: 1;"/></g><g class="points"/><g class="text"/></g><g class="trace scatter tracee93948" style="stroke-miterlimit: 2; opacity: 1;"><g class="fills"/><g class="errorbars"/><g class="lines"><path class="js-line" d="M-18.79,67L-6.33,67" style="vector-effect: none; fill: none; stroke: rgb(0, 0, 0); stroke-opacity: 1; stroke-width: 3px; opacity: 1;"/></g><g class="points"/><g class="text"/></g><g class="trace scatter trace809c76" style="stroke-miterlimit: 2; opacity: 1;"><g class="fills"><g><path class="js-fill" d="M-18.79,67L-18.79,50.25L-26.4,50.25L-26.4,33.5L-30.49,67L-26.4,100.5L-26.4,83.75L-18.79,83.75L-18.79,67Z" style="fill: rgb(128, 128, 128); fill-opacity: 0.5; stroke-width: 0;"/></g></g><g class="errorbars"/><g class="lines"><path class="js-line" d="M-18.79,67L-18.79,50.25L-26.4,50.25L-26.4,33.5L-30.49,67L-26.4,100.5L-26.4,83.75L-18.79,83.75L-18.79,67" style="vector-effect: none; fill: none; stroke: rgb(128, 128, 128); stroke-opacity: 1; stroke-width: 1.5px; opacity: 1;"/></g><g class="points"/><g class="text"/></g><g class="trace scatter trace51f581" style="stroke-miterlimit: 2; opacity: 1;"><g class="fills"/><g class="errorbars"/><g class="lines"><path class="js-line" d="M37.96,67L42.72,67" style="vector-effect: none; fill: none; stroke: rgb(0, 0, 0); stroke-opacity: 1; stroke-width: 3px; opacity: 1;"/></g><g class="points"/><g class="text"/></g><g class="trace scatter tracefeb135" style="stroke-miterlimit: 2; opacity: 1;"><g class="fills"><g><path class="js-fill" d="M37.96,67L37.96,50.25L9.17,50.25L9.17,33.5L-6.33,67L9.17,100.5L9.17,83.75L37.96,83.75L37.96,67Z" style="fill: rgb(128, 128, 128); fill-opacity: 0.5; stroke-width: 0;"/></g></g><g class="errorbars"/><g class="lines"><path class="js-line" d="M37.96,67L37.96,50.25L9.17,50.25L9.17,33.5L-6.33,67L9.17,100.5L9.17,83.75L37.96,83.75L37.96,67" style="vector-effect: none; fill: none; stroke: rgb(128, 128, 128); stroke-opacity: 1; stroke-width: 1.5px; opacity: 1;"/></g><g class="points"/><g class="text"/></g><g class="trace scatter trace44eb7c" style="stroke-miterlimit: 2; opacity: 1;"><g class="fills"/><g class="errorbars"/><g class="lines"><path class="js-line" d="M89.85,67L90.5,67" style="vector-effect: none; fill: none; stroke: rgb(0, 0, 0); stroke-opacity: 1; stroke-width: 3px; opacity: 1;"/></g><g class="points"/><g class="text"/></g><g class="trace scatter trace5efecf" style="stroke-miterlimit: 2; opacity: 1;"><g class="fills"><g><path class="js-fill" d="M89.85,67L89.85,50.25L59.22,50.25L59.22,33.5L42.72,67L59.22,100.5L59.22,83.75L89.85,83.75L89.85,67Z" style="fill: rgb(128, 128, 128); fill-opacity: 0.5; stroke-width: 0;"/></g></g><g class="errorbars"/><g class="lines"><path class="js-line" d="M89.85,67L89.85,50.25L59.22,50.25L59.22,33.5L42.72,67L59.22,100.5L59.22,83.75L89.85,83.75L89.85,67" style="vector-effect: none; fill: none; stroke: rgb(128, 128, 128); stroke-opacity: 1; stroke-width: 1.5px; opacity: 1;"/></g><g class="points"/><g class="text"/></g><g class="trace scatter trace54b95d" style="stroke-miterlimit: 2; opacity: 1;"><g class="fills"/><g class="errorbars"/><g class="lines"><path class="js-line" d="M133.91,67L140.27,67" style="vector-effect: none; fill: none; stroke: rgb(0, 0, 0); stroke-opacity: 1; stroke-width: 3px; opacity: 1;"/></g><g class="points"/><g class="text"/></g><g class="trace scatter trace11d1f6" style="stroke-miterlimit: 2; opacity: 1;"><g class="fills"><g><path class="js-fill" d="M133.91,67L133.91,50.25L105.7,50.25L105.7,33.5L90.5,67L105.7,100.5L105.7,83.75L133.91,83.75L133.91,67Z" style="fill: rgb(128, 128, 128); fill-opacity: 0.5; stroke-width: 0;"/></g></g><g class="errorbars"/><g class="lines"><path class="js-line" d="M133.91,67L133.91,50.25L105.7,50.25L105.7,33.5L90.5,67L105.7,100.5L105.7,83.75L133.91,83.75L133.91,67" style="vector-effect: none; fill: none; stroke: rgb(128, 128, 128); stroke-opacity: 1; stroke-width: 1.5px; opacity: 1;"/></g><g class="points"/><g class="text"/></g><g class="trace scatter traced409af" style="stroke-miterlimit: 2; opacity: 1;"><g class="fills"/><g class="errorbars"/><g class="lines"><path class="js-line" d="M163.33,67L165.48,67" style="vector-effect: none; fill: none; stroke: rgb(0, 0, 0); stroke-opacity: 1; stroke-width: 3px; opacity: 1;"/></g><g class="points"/><g class="text"/></g><g class="trace scatter trace8b2bb2" style="stroke-miterlimit: 2; opacity: 1;"><g class="fills"><g><path class="js-fill" d="M163.33,67L163.33,50.25L148.34,50.25L148.34,33.5L140.27,67L148.34,100.5L148.34,83.75L163.33,83.75L163.33,67Z" style="fill: rgb(128, 128, 128); fill-opacity: 0.5; stroke-width: 0;"/></g></g><g class="errorbars"/><g class="lines"><path class="js-line" d="M163.33,67L163.33,50.25L148.34,50.25L148.34,33.5L140.27,67L148.34,100.5L148.34,83.75L163.33,83.75L163.33,67" style="vector-effect: none; fill: none; stroke: rgb(128, 128, 128); stroke-opacity: 1; stroke-width: 1.5px; opacity: 1;"/></g><g class="points"/><g class="text"/></g><g class="trace scatter trace75d98c" style="stroke-miterlimit: 2; opacity: 1;"><g class="fills"/><g class="errorbars"/><g class="lines"><path class="js-line" d="M188.93,67L190.89,67" style="vector-effect: none; fill: none; stroke: rgb(0, 0, 0); stroke-opacity: 1; stroke-width: 3px; opacity: 1;"/></g><g class="points"/><g class="text"/></g><g class="trace scatter trace1d1502" style="stroke-miterlimit: 2; opacity: 1;"><g class="fills"><g><path class="js-fill" d="M188.93,67L188.93,50.25L173.69,50.25L173.69,33.5L165.48,67L173.69,100.5L173.69,83.75L188.93,83.75L188.93,67Z" style="fill: rgb(128, 128, 128); fill-opacity: 0.5; stroke-width: 0;"/></g></g><g class="errorbars"/><g class="lines"><path class="js-line" d="M188.93,67L188.93,50.25L173.69,50.25L173.69,33.5L165.48,67L173.69,100.5L173.69,83.75L188.93,83.75L188.93,67" style="vector-effect: none; fill: none; stroke: rgb(128, 128, 128); stroke-opacity: 1; stroke-width: 1.5px; opacity: 1;"/></g><g class="points"/><g class="text"/></g><g class="trace scatter traceb53479" style="stroke-miterlimit: 2; opacity: 1;"><g class="fills"/><g class="errorbars"/><g class="lines"><path class="js-line" d="M216,67L216.95,67" style="vector-effect: none; fill: none; stroke: rgb(0, 0, 0); stroke-opacity: 1; stroke-width: 3px; opacity: 1;"/></g><g class="points"/><g class="text"/></g><g class="trace scatter trace34fd26" style="stroke-miterlimit: 2; opacity: 1;"><g class="fills"><g><path class="js-fill" d="M216,67L216,50.25L199.68,50.25L199.68,33.5L190.89,67L199.68,100.5L199.68,83.75L216,83.75L216,67Z" style="fill: rgb(128, 128, 128); fill-opacity: 0.5; stroke-width: 0;"/></g></g><g class="errorbars"/><g class="lines"><path class="js-line" d="M216,67L216,50.25L199.68,50.25L199.68,33.5L190.89,67L199.68,100.5L199.68,83.75L216,83.75L216,67" style="vector-effect: none; fill: none; stroke: rgb(128, 128, 128); stroke-opacity: 1; stroke-width: 1.5px; opacity: 1;"/></g><g class="points"/><g class="text"/></g><g class="trace scatter trace03fda5" style="stroke-miterlimit: 2; opacity: 1;"><g class="fills"/><g class="errorbars"/><g class="lines"><path class="js-line" d="M263.59,67L273.57,67" style="vector-effect: none; fill: none; stroke: rgb(0, 0, 0); stroke-opacity: 1; stroke-width: 3px; opacity: 1;"/></g><g class="points"/><g class="text"/></g><g class="trace scatter traceeea433" style="stroke-miterlimit: 2; opacity: 1;"><g class="fills"><g><path class="js-fill" d="M263.59,67L263.59,50.25L233.27,50.25L233.27,33.5L216.95,67L233.27,100.5L233.27,83.75L263.59,83.75L263.59,67Z" style="fill: rgb(128, 128, 128); fill-opacity: 0.5; stroke-width: 0;"/></g></g><g class="errorbars"/><g class="lines"><path class="js-line" d="M263.59,67L263.59,50.25L233.27,50.25L233.27,33.5L216.95,67L233.27,100.5L233.27,83.75L263.59,83.75L263.59,67" style="vector-effect: none; fill: none; stroke: rgb(128, 128, 128); stroke-opacity: 1; stroke-width: 1.5px; opacity: 1;"/></g><g class="points"/><g class="text"/></g><g class="trace scatter trace65c6e6" style="stroke-miterlimit: 2; opacity: 1;"><g class="fills"/><g class="errorbars"/><g class="lines"><path class="js-line" d="M277.74,67" style="vector-effect: none; fill: none; stroke: rgb(0, 0, 0); stroke-opacity: 1; stroke-width: 3px; opacity: 1;"/></g><g class="points"/><g class="text"/></g><g class="trace scatter trace8a98f0" style="stroke-miterlimit: 2; opacity: 1;"><g class="fills"><g><path class="js-fill" d="M273.57,67L273.57,50.25L276.28,50.25L276.28,33.5L277.74,67L276.28,100.5L276.28,83.75L273.57,83.75L273.57,67Z" style="fill: rgb(128, 128, 128); fill-opacity: 0.5; stroke-width: 0;"/></g></g><g class="errorbars"/><g class="lines"><path class="js-line" d="M273.57,67L273.57,50.25L276.28,50.25L276.28,33.5L277.74,67L276.28,100.5L276.28,83.75L273.57,83.75L273.57,67" style="vector-effect: none; fill: none; stroke: rgb(128, 128, 128); stroke-opacity: 1; stroke-width: 1.5px; opacity: 1;"/></g><g class="points"/><g class="text"/></g><g class="trace scatter trace83dc84" style="stroke-miterlimit: 2; opacity: 1;"><g class="fills"/><g class="errorbars"/><g class="lines"><path class="js-line" d="M313.33,67L326.14,67" style="vector-effect: none; fill: none; stroke: rgb(0, 0, 0); stroke-opacity: 1; stroke-width: 3px; opacity: 1;"/></g><g class="points"/><g class="text"/></g><g class="trace scatter tracece5999" style="stroke-miterlimit: 2; opacity: 1;"><g class="fills"><g><path class="js-fill" d="M277.65,67L277.65,50.25L300.84,50.25L300.84,33.5L313.33,67L300.84,100.5L300.84,83.75L277.65,83.75L277.65,67Z" style="fill: rgb(128, 128, 128); fill-opacity: 0.5; stroke-width: 0;"/></g></g><g class="errorbars"/><g class="lines"><path class="js-line" d="M277.65,67L277.65,50.25L300.84,50.25L300.84,33.5L313.33,67L300.84,100.5L300.84,83.75L277.65,83.75L277.65,67" style="vector-effect: none; fill: none; stroke: rgb(128, 128, 128); stroke-opacity: 1; stroke-width: 1.5px; opacity: 1;"/></g><g class="points"/><g class="text"/></g><g class="trace scatter trace0e115e" style="stroke-miterlimit: 2; opacity: 1;"><g class="fills"/><g class="errorbars"/><g class="lines"><path class="js-line" d="M373.86,67L376.53,67" style="vector-effect: none; fill: none; stroke: rgb(0, 0, 0); stroke-opacity: 1; stroke-width: 3px; opacity: 1;"/></g><g class="points"/><g class="text"/></g><g class="trace scatter trace83ae43" style="stroke-miterlimit: 2; opacity: 1;"><g class="fills"><g><path class="js-fill" d="M326.14,67L326.14,50.25L357.16,50.25L357.16,33.5L373.86,67L357.16,100.5L357.16,83.75L326.14,83.75L326.14,67Z" style="fill: rgb(255, 20, 20); fill-opacity: 0.5; stroke-width: 0;"/></g></g><g class="errorbars"/><g class="lines"><path class="js-line" d="M326.14,67L326.14,50.25L357.16,50.25L357.16,33.5L373.86,67L357.16,100.5L357.16,83.75L326.14,83.75L326.14,67" style="vector-effect: none; fill: none; stroke: rgb(255, 20, 20); stroke-opacity: 1; stroke-width: 1.5px; opacity: 1;"/></g><g class="points"/><g class="text"/></g><g class="trace scatter trace1baeaa" style="stroke-miterlimit: 2; opacity: 1;"><g class="fills"/><g class="errorbars"/><g class="lines"><path class="js-line" d="M424.15,67L428.39,67" style="vector-effect: none; fill: none; stroke: rgb(0, 0, 0); stroke-opacity: 1; stroke-width: 3px; opacity: 1;"/></g><g class="points"/><g class="text"/></g><g class="trace scatter trace0380c3" style="stroke-miterlimit: 2; opacity: 1;"><g class="fills"><g><path class="js-fill" d="M424.15,67L424.15,50.25L393.2,50.25L393.2,33.5L376.53,67L393.2,100.5L393.2,83.75L424.15,83.75L424.15,67Z" style="fill: rgb(128, 128, 128); fill-opacity: 0.5; stroke-width: 0;"/></g></g><g class="errorbars"/><g class="lines"><path class="js-line" d="M424.15,67L424.15,50.25L393.2,50.25L393.2,33.5L376.53,67L393.2,100.5L393.2,83.75L424.15,83.75L424.15,67" style="vector-effect: none; fill: none; stroke: rgb(128, 128, 128); stroke-opacity: 1; stroke-width: 1.5px; opacity: 1;"/></g><g class="points"/><g class="text"/></g><g class="trace scatter trace6087f3" style="stroke-miterlimit: 2; opacity: 1;"><g class="fills"/><g class="errorbars"/><g class="lines"><path class="js-line" d="M463.29,67L463.81,67" style="vector-effect: none; fill: none; stroke: rgb(0, 0, 0); stroke-opacity: 1; stroke-width: 3px; opacity: 1;"/></g><g class="points"/><g class="text"/></g><g class="trace scatter traceaf788c" style="stroke-miterlimit: 2; opacity: 1;"><g class="fills"><g><path class="js-fill" d="M428.39,67L428.39,50.25L451.07,50.25L451.07,33.5L463.29,67L451.07,100.5L451.07,83.75L428.39,83.75L428.39,67Z" style="fill: rgb(128, 128, 128); fill-opacity: 0.5; stroke-width: 0;"/></g></g><g class="errorbars"/><g class="lines"><path class="js-line" d="M428.39,67L428.39,50.25L451.07,50.25L451.07,33.5L463.29,67L451.07,100.5L451.07,83.75L428.39,83.75L428.39,67" style="vector-effect: none; fill: none; stroke: rgb(128, 128, 128); stroke-opacity: 1; stroke-width: 1.5px; opacity: 1;"/></g><g class="points"/><g class="text"/></g><g class="trace scatter trace6f4855" style="stroke-miterlimit: 2; opacity: 1;"><g class="fills"/><g class="errorbars"/><g class="lines"><path class="js-line" d="M493.03,67L497.14,67" style="vector-effect: none; fill: none; stroke: rgb(0, 0, 0); stroke-opacity: 1; stroke-width: 3px; opacity: 1;"/></g><g class="points"/><g class="text"/></g><g class="trace scatter trace066e10" style="stroke-miterlimit: 2; opacity: 1;"><g class="fills"><g><path class="js-fill" d="M493.03,67L493.03,50.25L474.04,50.25L474.04,33.5L463.81,67L474.04,100.5L474.04,83.75L493.03,83.75L493.03,67Z" style="fill: rgb(128, 128, 128); fill-opacity: 0.5; stroke-width: 0;"/></g></g><g class="errorbars"/><g class="lines"><path class="js-line" d="M493.03,67L493.03,50.25L474.04,50.25L474.04,33.5L463.81,67L474.04,100.5L474.04,83.75L493.03,83.75L493.03,67" style="vector-effect: none; fill: none; stroke: rgb(128, 128, 128); stroke-opacity: 1; stroke-width: 1.5px; opacity: 1;"/></g><g class="points"/><g class="text"/></g><g class="trace scatter trace6dbfeb" style="stroke-miterlimit: 2; opacity: 1;"><g class="fills"/><g class="errorbars"/><g class="lines"><path class="js-line" d="M547.56,67L549.88,67" style="vector-effect: none; fill: none; stroke: rgb(0, 0, 0); stroke-opacity: 1; stroke-width: 3px; opacity: 1;"/></g><g class="points"/><g class="text"/></g><g class="trace scatter traceb1236d" style="stroke-miterlimit: 2; opacity: 1;"><g class="fills"><g><path class="js-fill" d="M547.56,67L547.56,50.25L514.79,50.25L514.79,33.5L497.14,67L514.79,100.5L514.79,83.75L547.56,83.75L547.56,67Z" style="fill: rgb(128, 128, 128); fill-opacity: 0.5; stroke-width: 0;"/></g></g><g class="errorbars"/><g class="lines"><path class="js-line" d="M547.56,67L547.56,50.25L514.79,50.25L514.79,33.5L497.14,67L514.79,100.5L514.79,83.75L547.56,83.75L547.56,67" style="vector-effect: none; fill: none; stroke: rgb(128, 128, 128); stroke-opacity: 1; stroke-width: 1.5px; opacity: 1;"/></g><g class="points"/><g class="text"/></g><g class="trace scatter trace878455" style="stroke-miterlimit: 2; opacity: 1;"><g class="fills"/><g class="errorbars"/><g class="lines"><path class="js-line" d="M594.17,67L603.49,67" style="vector-effect: none; fill: none; stroke: rgb(0, 0, 0); stroke-opacity: 1; stroke-width: 3px; opacity: 1;"/></g><g class="points"/><g class="text"/></g><g class="trace scatter tracec4e0d3" style="stroke-miterlimit: 2; opacity: 1;"><g class="fills"><g><path class="js-fill" d="M594.17,67L594.17,50.25L565.38,50.25L565.38,33.5L549.88,67L565.38,100.5L565.38,83.75L594.17,83.75L594.17,67Z" style="fill: rgb(128, 128, 128); fill-opacity: 0.5; stroke-width: 0;"/></g></g><g class="errorbars"/><g class="lines"><path class="js-line" d="M594.17,67L594.17,50.25L565.38,50.25L565.38,33.5L549.88,67L565.38,100.5L565.38,83.75L594.17,83.75L594.17,67" style="vector-effect: none; fill: none; stroke: rgb(128, 128, 128); stroke-opacity: 1; stroke-width: 1.5px; opacity: 1;"/></g><g class="points"/><g class="text"/></g><g class="trace scatter trace5b4dd5" style="stroke-miterlimit: 2; opacity: 1;"><g class="fills"/><g class="errorbars"/><g class="lines"><path class="js-line" d="M647,67L652.32,67" style="vector-effect: none; fill: none; stroke: rgb(0, 0, 0); stroke-opacity: 1; stroke-width: 3px; opacity: 1;"/></g><g class="points"/><g class="text"/></g><g class="trace scatter trace5f63bb" style="stroke-miterlimit: 2; opacity: 1;"><g class="fills"><g><path class="js-fill" d="M603.49,67L603.49,50.25L631.77,50.25L631.77,33.5L647,67L631.77,100.5L631.77,83.75L603.49,83.75L603.49,67Z" style="fill: rgb(128, 128, 128); fill-opacity: 0.5; stroke-width: 0;"/></g></g><g class="errorbars"/><g class="lines"><path class="js-line" d="M603.49,67L603.49,50.25L631.77,50.25L631.77,33.5L647,67L631.77,100.5L631.77,83.75L603.49,83.75L603.49,67" style="vector-effect: none; fill: none; stroke: rgb(128, 128, 128); stroke-opacity: 1; stroke-width: 1.5px; opacity: 1;"/></g><g class="points"/><g class="text"/></g><g class="trace scatter trace55a00c" style="stroke-miterlimit: 2; opacity: 1;"><g class="fills"/><g class="errorbars"/><g class="lines"><path class="js-line" d="M682.03,67L683.04,67" style="vector-effect: none; fill: none; stroke: rgb(0, 0, 0); stroke-opacity: 1; stroke-width: 3px; opacity: 1;"/></g><g class="points"/><g class="text"/></g><g class="trace scatter trace5cd885" style="stroke-miterlimit: 2; opacity: 1;"><g class="fills"><g><path class="js-fill" d="M652.32,67L652.32,50.25L671.63,50.25L671.63,33.5L682.03,67L671.63,100.5L671.63,83.75L652.32,83.75L652.32,67Z" style="fill: rgb(128, 128, 128); fill-opacity: 0.5; stroke-width: 0;"/></g></g><g class="errorbars"/><g class="lines"><path class="js-line" d="M652.32,67L652.32,50.25L671.63,50.25L671.63,33.5L682.03,67L671.63,100.5L671.63,83.75L652.32,83.75L652.32,67" style="vector-effect: none; fill: none; stroke: rgb(128, 128, 128); stroke-opacity: 1; stroke-width: 1.5px; opacity: 1;"/></g><g class="points"/><g class="text"/></g><g class="trace scatter trace144f2d" style="stroke-miterlimit: 2; opacity: 1;"><g class="fills"/><g class="errorbars"/><g class="lines"><path class="js-line" d="M734.77,67L742.69,67" style="vector-effect: none; fill: none; stroke: rgb(0, 0, 0); stroke-opacity: 1; stroke-width: 3px; opacity: 1;"/></g><g class="points"/><g class="text"/></g><g class="trace scatter traceb00fb2" style="stroke-miterlimit: 2; opacity: 1;"><g class="fills"><g><path class="js-fill" d="M683.04,67L683.04,50.25L716.66,50.25L716.66,33.5L734.77,67L716.66,100.5L716.66,83.75L683.04,83.75L683.04,67Z" style="fill: rgb(128, 128, 128); fill-opacity: 0.5; stroke-width: 0;"/></g></g><g class="errorbars"/><g class="lines"><path class="js-line" d="M683.04,67L683.04,50.25L716.66,50.25L716.66,33.5L734.77,67L716.66,100.5L716.66,83.75L683.04,83.75L683.04,67" style="vector-effect: none; fill: none; stroke: rgb(128, 128, 128); stroke-opacity: 1; stroke-width: 1.5px; opacity: 1;"/></g><g class="points"/><g class="text"/></g><g class="trace scatter tracea84d54" style="stroke-miterlimit: 2; opacity: 1;"><g class="fills"/><g class="errorbars"/><g class="lines"><path class="js-line" d="M765.95,67L768.07,67" style="vector-effect: none; fill: none; stroke: rgb(0, 0, 0); stroke-opacity: 1; stroke-width: 3px; opacity: 1;"/></g><g class="points"/><g class="text"/></g><g class="trace scatter trace34ad27" style="stroke-miterlimit: 2; opacity: 1;"><g class="fills"><g><path class="js-fill" d="M742.69,67L742.69,50.25L757.81,50.25L757.81,33.5L765.95,67L757.81,100.5L757.81,83.75L742.69,83.75L742.69,67Z" style="fill: rgb(128, 128, 128); fill-opacity: 0.5; stroke-width: 0;"/></g></g><g class="errorbars"/><g class="lines"><path class="js-line" d="M742.69,67L742.69,50.25L757.81,50.25L757.81,33.5L765.95,67L757.81,100.5L757.81,83.75L742.69,83.75L742.69,67" style="vector-effect: none; fill: none; stroke: rgb(128, 128, 128); stroke-opacity: 1; stroke-width: 1.5px; opacity: 1;"/></g><g class="points"/><g class="text"/></g><g class="trace scatter trace706f27" style="stroke-miterlimit: 2; opacity: 1;"><g class="fills"/><g class="errorbars"/><g class="lines"><path class="js-line" d="M825.17,67L826.28,67" style="vector-effect: none; fill: none; stroke: rgb(0, 0, 0); stroke-opacity: 1; stroke-width: 3px; opacity: 1;"/></g><g class="points"/><g class="text"/></g><g class="trace scatter tracea1b370" style="stroke-miterlimit: 2; opacity: 1;"><g class="fills"><g><path class="js-fill" d="M825.17,67L825.17,50.25L788.05,50.25L788.05,33.5L768.07,67L788.05,100.5L788.05,83.75L825.17,83.75L825.17,67Z" style="fill: rgb(128, 128, 128); fill-opacity: 0.5; stroke-width: 0;"/></g></g><g class="errorbars"/><g class="lines"><path class="js-line" d="M825.17,67L825.17,50.25L788.05,50.25L788.05,33.5L768.07,67L788.05,100.5L788.05,83.75L825.17,83.75L825.17,67" style="vector-effect: none; fill: none; stroke: rgb(128, 128, 128); stroke-opacity: 1; stroke-width: 1.5px; opacity: 1;"/></g><g class="points"/><g class="text"/></g><g class="trace scatter trace77489a" style="stroke-miterlimit: 2; opacity: 1;"><g class="fills"/><g class="errorbars"/><g class="lines"><path class="js-line" d="M838.97,67L840.31,67" style="vector-effect: none; fill: none; stroke: rgb(0, 0, 0); stroke-opacity: 1; stroke-width: 3px; opacity: 1;"/></g><g class="points"/><g class="text"/></g><g class="trace scatter traceec9118" style="stroke-miterlimit: 2; opacity: 1;"><g class="fills"><g><path class="js-fill" d="M838.97,67L838.97,50.25L830.72,50.25L830.72,33.5L826.28,67L830.72,100.5L830.72,83.75L838.97,83.75L838.97,67Z" style="fill: rgb(128, 128, 128); fill-opacity: 0.5; stroke-width: 0;"/></g></g><g class="errorbars"/><g class="lines"><path class="js-line" d="M838.97,67L838.97,50.25L830.72,50.25L830.72,33.5L826.28,67L830.72,100.5L830.72,83.75L838.97,83.75L838.97,67" style="vector-effect: none; fill: none; stroke: rgb(128, 128, 128); stroke-opacity: 1; stroke-width: 1.5px; opacity: 1;"/></g><g class="points"/><g class="text"/></g><g class="trace scatter trace1f4824" style="stroke-miterlimit: 2; opacity: 1;"><g class="fills"/><g class="errorbars"/><g class="lines"><path class="js-line" d="M857.79,67L859.65,67" style="vector-effect: none; fill: none; stroke: rgb(0, 0, 0); stroke-opacity: 1; stroke-width: 3px; opacity: 1;"/></g><g class="points"/><g class="text"/></g><g class="trace scatter trace24674d" style="stroke-miterlimit: 2; opacity: 1;"><g class="fills"><g><path class="js-fill" d="M857.79,67L857.79,50.25L846.43,50.25L846.43,33.5L840.31,67L846.43,100.5L846.43,83.75L857.79,83.75L857.79,67Z" style="fill: rgb(128, 128, 128); fill-opacity: 0.5; stroke-width: 0;"/></g></g><g class="errorbars"/><g class="lines"><path class="js-line" d="M857.79,67L857.79,50.25L846.43,50.25L846.43,33.5L840.31,67L846.43,100.5L846.43,83.75L857.79,83.75L857.79,67" style="vector-effect: none; fill: none; stroke: rgb(128, 128, 128); stroke-opacity: 1; stroke-width: 1.5px; opacity: 1;"/></g><g class="points"/><g class="text"/></g><g class="trace scatter trace03e97d" style="stroke-miterlimit: 2; opacity: 1;"><g class="fills"/><g class="errorbars"/><g class="lines"><path class="js-line" d="M900.41,67L903.09,67" style="vector-effect: none; fill: none; stroke: rgb(0, 0, 0); stroke-opacity: 1; stroke-width: 3px; opacity: 1;"/></g><g class="points"/><g class="text"/></g><g class="trace scatter trace9b056b" style="stroke-miterlimit: 2; opacity: 1;"><g class="fills"><g><path class="js-fill" d="M900.41,67L900.41,50.25L873.92,50.25L873.92,33.5L859.65,67L873.92,100.5L873.92,83.75L900.41,83.75L900.41,67Z" style="fill: rgb(128, 128, 128); fill-opacity: 0.5; stroke-width: 0;"/></g></g><g class="errorbars"/><g class="lines"><path class="js-line" d="M900.41,67L900.41,50.25L873.92,50.25L873.92,33.5L859.65,67L873.92,100.5L873.92,83.75L900.41,83.75L900.41,67" style="vector-effect: none; fill: none; stroke: rgb(128, 128, 128); stroke-opacity: 1; stroke-width: 1.5px; opacity: 1;"/></g><g class="points"/><g class="text"/></g><g class="trace scatter trace70bdca" style="stroke-miterlimit: 2; opacity: 1;"><g class="fills"><g><path class="js-fill" d="M940.24,67L940.24,50.25L916.09,50.25L916.09,33.5L903.09,67L916.09,100.5L916.09,83.75L940.24,83.75L940.24,67Z" style="fill: rgb(128, 128, 128); fill-opacity: 0.5; stroke-width: 0;"/></g></g><g class="errorbars"/><g class="lines"><path class="js-line" d="M940.24,67L940.24,50.25L916.09,50.25L916.09,33.5L903.09,67L916.09,100.5L916.09,83.75L940.24,83.75L940.24,67" style="vector-effect: none; fill: none; stroke: rgb(128, 128, 128); stroke-opacity: 1; stroke-width: 1.5px; opacity: 1;"/></g><g class="points"/><g class="text"/></g></g></g><g class="overplot"/><path class="xlines-above crisp" d="M0,0" style="fill: none;"/><path class="ylines-above crisp" d="M0,0" style="fill: none;"/><g class="overlines-above"/><g class="xaxislayer-above"><g class="xtick"><text text-anchor="middle" x="0" y="147" transform="translate(78.27,0)" style="font-family: 'Open Sans', verdana, arial, sans-serif; font-size: 12px; fill: rgb(42, 63, 95); fill-opacity: 1; white-space: pre; opacity: 1;">5k</text></g><g class="xtick"><text text-anchor="middle" x="0" y="147" style="font-family: 'Open Sans', verdana, arial, sans-serif; font-size: 12px; fill: rgb(42, 63, 95); fill-opacity: 1; white-space: pre; opacity: 1;" transform="translate(241.35,0)">10k</text></g><g class="xtick"><text text-anchor="middle" x="0" y="147" style="font-family: 'Open Sans', verdana, arial, sans-serif; font-size: 12px; fill: rgb(42, 63, 95); fill-opacity: 1; white-space: pre; opacity: 1;" transform="translate(404.42,0)">15k</text></g><g class="xtick"><text text-anchor="middle" x="0" y="147" style="font-family: 'Open Sans', verdana, arial, sans-serif; font-size: 12px; fill: rgb(42, 63, 95); fill-opacity: 1; white-space: pre; opacity: 1;" transform="translate(567.49,0)">20k</text></g></g><g class="yaxislayer-above"/><g class="overaxes-above"/></g></g><g class="polarlayer"/><g class="smithlayer"/><g class="ternarylayer"/><g class="geolayer"/><g class="funnelarealayer"/><g class="pielayer"/><g class="iciclelayer"/><g class="treemaplayer"/><g class="sunburstlayer"/><g class="glimages"/><defs id="topdefs-31ac48"><g class="clips"/></defs><g class="layer-above"><g class="imagelayer"/><g class="shapelayer"/></g><g class="infolayer"><g class="g-gtitle"/><g class="g-xtitle"/><g class="g-ytitle"/></g></svg>