<svg class="main-svg" xmlns="http://www.w3.org/2000/svg" xmlns:xlink="http://www.w3.org/1999/xlink" width="700" height="150" style="" viewBox="0 0 700 150"><rect x="0" y="0" width="700" height="150" style="fill: rgb(255, 255, 255); fill-opacity: 1;"/><defs id="defs-2281ab"><g class="clips"><clipPath id="clip2281abxyplot" class="plotclip"><rect width="700" height="134"/></clipPath><clipPath class="axesclip" id="clip2281abx"><rect x="0" y="0" width="700" height="150"/></clipPath><clipPath class="axesclip" id="clip2281aby"><rect x="0" y="0" width="700" height="134"/></clipPath><clipPath class="axesclip" id="clip2281abxy"><rect x="0" y="0" width="700" height="134"/></clipPath></g><g class="gradients"/><g class="patterns"/></defs><g class="bglayer"><rect class="bg" x="0" y="0" width="700" height="134" style="fill: rgb(0, 102, 153); fill-opacity: 0.25; stroke-width: 0;"/></g><g class="layer-below"><g class="imagelayer"/><g class="shapelayer"/></g><g class="cartesianlayer"><g class="subplot xy"><g class="layer-subplot"><g class="shapelayer"/><g class="imagelayer"/></g><g class="minor-gridlayer"><g class="x"/><g class="y"/></g><g class="gridlayer"><g class="x"><path class="xgrid crisp" transform="translate(138.83,0)" d="M0,0v134" style="stroke: rgb(255, 255, 255); stroke-opacity: 1; stroke-width: 1px;"/><path class="xgrid crisp" transform="translate(317.61,0)" d="M0,0v134" style="stroke: rgb(255, 255, 255); stroke-opacity: 1; stroke-width: 1px;"/><path class="xgrid crisp" transform="translate(496.38,0)" d="M0,0v134" style="stroke: rgb(255, 255, 255); stroke-opacity: 1; stroke-width: 1px;"/><path class="xgrid crisp" transform="translate(675.15,0)" d="M0,0v134" style="stroke: rgb(255, 255, 255); stroke-opacity: 1; stroke-width: 1px;"/></g><g class="y"/></g><g class="zerolinelayer"><path class="yzl zl crisp" transform="translate(0,67)" d="M0,0h700" style="stroke: rgb(255, 255, 255); stroke-opacity: 1; stroke-width: 2px;"/></g><path class="xlines-below"/><path class="ylines-below"/><g class="overlines-below"/><g class="xaxislayer-below"/><g class="yaxislayer-below"/><g class="overaxes-below"/><g class="plot" transform="" clip-path="url(#clip2281abxyplot)"><g class="scatterlayer mlayer"><g class="trace scatter traced0a3a5" style="stroke-miterlimit: 2; opacity: 1;"><g class="fills"/><g class="errorbars"/><g class="lines"><path class="js-line" d="M-317.68,67L-315.53,67" style="vector-effect: none; fill: none; stroke: rgb(0, 0, 0); stroke-opacity: 1; stroke-width: 3px; opacity: 1;"/></g><g class="points"/><g class="text"/></g><g class="trace scatter trace718413" style="stroke-miterlimit: 2; opacity: 1;"><g class="fills"><g><path class="js-fill" d="M-362.8,67L-362.8,50.25L-333.47,50.25L-333.47,33.5L-317.68,67L-333.47,100.5L-333.47,83.75L-362.8,83.75L-362.8,67Z" style="fill: rgb(128, 128, 128); fill-opacity: 0.5; stroke-width: 0;"/></g></g><g class="errorbars"/><g class="lines"><path class="js-line" d="M-362.8,67L-362.8,50.25L-333.47,50.25L-333.47,33.5L-317.68,67L-333.47,100.5L-333.47,83.75L-362.8,83.75L-362.8,67" style="vector-effect: none; fill: none; stroke: rgb(128, 128, 128); stroke-opacity: 1; stroke-width: 1.5px; opacity: 1;"/></g><g class="points"/><g class="text"/></g><g class="trace scatter traceb6ee0e" style="stroke-miterlimit: 2; opacity: 1;"><g class="fills"/><g class="errorbars"/><g class="lines"><path class="js-line" d="M-266.98,67L-257.47,67" style="vector-effect: none; fill: none; stroke: rgb(0, 0, 0); stroke-opacity: 1; stroke-width: 3px; opacity: 1;"/></g><g class="points"/><g class="text"/></g><g class="trace scatter trace50fbd0" style="stroke-miterlimit: 2; opacity: 1;"><g class="fills"><g><path class="js-fill" d="M-266.98,67L-266.98,50.25L-298.54,50.25L-298.54,33.5L-315.53,67L-298.54,100.5L-298.54,83.75L-266.98,83.75L-266.98,67Z" style="fill: rgb(128, 128, 128); fill-opacity: 0.5; stroke-width: 0;"/></g></g><g class="errorbars"/><g class="lines"><path class="js-line" d="M-266.98,67L-266.98,50.25L-298.54,50.25L-298.54,33.5L-315.53,67L-298.54,100.5L-298.54,83.75L-266.98,83.75L-266.98,67" style="vector-effect: none; fill: none; stroke: rgb(128, 128, 128); stroke-opacity: 1; stroke-width: 1.5px; opacity: 1;"/></g><g class="points"/><g class="text"/></g><g class="trace scatter tracefbe16a" style="stroke-miterlimit: 2; opacity: 1;"><g class="fills"/><g class="errorbars"/><g class="lines"><path class="js-line" d="M-184.89,67L-158.68,67" style="vector-effect: none; fill: none; stroke: rgb(0, 0, 0); stroke-opacity: 1; stroke-width: 3px; opacity: 1;"/></g><g class="points"/><g class="text"/></g><g class="trace scatter traceb1d380" style="stroke-miterlimit: 2; opacity: 1;"><g class="fills"><g><path class="js-fill" d="M-257.47,67L-257.47,50.25L-210.29,50.25L-210.29,33.5L-184.89,67L-210.29,100.5L-210.29,83.75L-257.47,83.75L-257.47,67Z" style="fill: rgb(128, 128, 128); fill-opacity: 0.5; stroke-width: 0;"/></g></g><g class="errorbars"/><g class="lines"><path class="js-line" d="M-257.47,67L-257.47,50.25L-210.29,50.25L-210.29,33.5L-184.89,67L-210.29,100.5L-210.29,83.75L-257.47,83.75L-257.47,67" style="vector-effect: none; fill: none; stroke: rgb(128, 128, 128); stroke-opacity: 1; stroke-width: 1.5px; opacity: 1;"/></g><g class="points"/><g class="text"/></g><g class="trace scatter traceea6c4d" style="stroke-miterlimit: 2; opacity: 1;"><g class="fills"/><g class="errorbars"/><g class="lines"><path class="js-line" d="M-125.35,67L-123.92,67" style="vector-effect: none; fill: none; stroke: rgb(0, 0, 0); stroke-opacity: 1; stroke-width: 3px; opacity: 1;"/></g><g class="points"/><g class="text"/></g><g class="trace scatter trace436c4d" style="stroke-miterlimit: 2; opacity: 1;"><g class="fills"><g><path class="js-fill" d="M-158.68,67L-158.68,50.25L-137.02,50.25L-137.02,33.5L-125.35,67L-137.02,100.5L-137.02,83.75L-158.68,83.75L-158.68,67Z" style="fill: rgb(128, 128, 128); fill-opacity: 0.5; stroke-width: 0;"/></g></g><g class="errorbars"/><g class="lines"><path class="js-line" d="M-158.68,67L-158.68,50.25L-137.02,50.25L-137.02,33.5L-125.35,67L-137.02,100.5L-137.02,83.75L-158.68,83.75L-158.68,67" style="vector-effect: none; fill: none; stroke: rgb(128, 128, 128); stroke-opacity: 1; stroke-width: 1.5px; opacity: 1;"/></g><g class="points"/><g class="text"/></g><g class="trace scatter trace42ddaa" style="stroke-miterlimit: 2; opacity: 1;"><g class="fills"/><g class="errorbars"/><g class="lines"><path class="js-line" d="M-98.43,67L-81.91,67" style="vector-effect: none; fill: none; stroke: rgb(0, 0, 0); stroke-opacity: 1; stroke-width: 3px; opacity: 1;"/></g><g class="points"/><g class="text"/></g><g class="trace scatter tracecedef1" style="stroke-miterlimit: 2; opacity: 1;"><g class="fills"><g><path class="js-fill" d="M-123.92,67L-123.92,50.25L-107.35,50.25L-107.35,33.5L-98.43,67L-107.35,100.5L-107.35,83.75L-123.92,83.75L-123.92,67Z" style="fill: rgb(128, 128, 128); fill-opacity: 0.5; stroke-width: 0;"/></g></g><g class="errorbars"/><g class="lines"><path class="js-line" d="M-123.92,67L-123.92,50.25L-107.35,50.25L-107.35,33.5L-98.43,67L-107.35,100.5L-107.35,83.75L-123.92,83.75L-123.92,67" style="vector-effect: none; fill: none; stroke: rgb(128, 128, 128); stroke-opacity: 1; stroke-width: 1.5px; opacity: 1;"/></g><g class="points"/><g class="text"/></g><g class="trace scatter tracef2ab9a" style="stroke-miterlimit: 2; opacity: 1;"><g class="fills"/><g class="errorbars"/><g class="lines"><path class="js-line" d="M-50.52,67L-21.77,67" style="vector-effect: none; fill: none; stroke: rgb(0, 0, 0); stroke-opacity: 1; stroke-width: 3px; opacity: 1;"/></g><g class="points"/><g class="text"/></g><g class="trace scatter traced31a51" style="stroke-miterlimit: 2; opacity: 1;"><g class="fills"><g><path class="js-fill" d="M-81.91,67L-81.91,50.25L-61.51,50.25L-61.51,33.5L-50.52,67L-61.51,100.5L-61.51,83.75L-81.91,83.75L-81.91,67Z" style="fill: rgb(128, 128, 128); fill-opacity: 0.5; stroke-width: 0;"/></g></g><g class="errorbars"/><g class="lines"><path class="js-line" d="M-81.91,67L-81.91,50.25L-61.51,50.25L-61.51,33.5L-50.52,67L-61.51,100.5L-61.51,83.75L-81.91,83.75L-81.91,67" style="vector-effect: none; fill: none; stroke: rgb(128, 128, 128); stroke-opacity: 1; stroke-width: 1.5px; opacity: 1;"/></g><g class="points"/><g class="text"/></g><g class="trace scatter trace48b97a" style="stroke-miterlimit: 2; opacity: 1;"><g class="fills"/><g class="errorbars"/><g class="lines"><path class="js-line" d="M-2.07,67" style="vector-effect: none; fill: none; stroke: rgb(0, 0, 0); stroke-opacity: 1; stroke-width: 3px; opacity: 1;"/></g><g class="points"/><g class="text"/></g><g class="trace scatter trace6e4ee1" style="stroke-miterlimit: 2; opacity: 1;"><g class="fills"><g><path class="js-fill" d="M-21.77,67L-21.77,50.25L-8.97,50.25L-8.97,33.5L-2.07,67L-8.97,100.5L-8.97,83.75L-21.77,83.75L-21.77,67Z" style="fill: rgb(128, 128, 128); fill-opacity: 0.5; stroke-width: 0;"/></g></g><g class="errorbars"/><g class="lines"><path class="js-line" d="M-21.77,67L-21.77,50.25L-8.97,50.25L-8.97,33.5L-2.07,67L-8.97,100.5L-8.97,83.75L-21.77,83.75L-21.77,67" style="vector-effect: none; fill: none; stroke: rgb(128, 128, 128); stroke-opacity: 1; stroke-width: 1.5px; opacity: 1;"/></g><g class="points"/><g class="text"/></g><g class="trace scatter trace6e82fd" style="stroke-miterlimit: 2; opacity: 1;"><g class="fills"/><g class="errorbars"/><g class="lines"><path class="js-line" d="M31.14,67L35.08,67" style="vector-effect: none; fill: none; stroke: rgb(0, 0, 0); stroke-opacity: 1; stroke-width: 3px; opacity: 1;"/></g><g class="points"/><g class="text"/></g><g class="trace scatter tracedab123" style="stroke-miterlimit: 2; opacity: 1;"><g class="fills"><g><path class="js-fill" d="M-2.18,67L-2.18,50.25L19.48,50.25L19.48,33.5L31.14,67L19.48,100.5L19.48,83.75L-2.18,83.75L-2.18,67Z" style="fill: rgb(128, 128, 128); fill-opacity: 0.5; stroke-width: 0;"/></g></g><g class="errorbars"/><g class="lines"><path class="js-line" d="M-2.18,67L-2.18,50.25L19.48,50.25L19.48,33.5L31.14,67L19.48,100.5L19.48,83.75L-2.18,83.75L-2.18,67" style="vector-effect: none; fill: none; stroke: rgb(128, 128, 128); stroke-opacity: 1; stroke-width: 1.5px; opacity: 1;"/></g><g class="points"/><g class="text"/></g><g class="trace scatter tracee7f393" style="stroke-miterlimit: 2; opacity: 1;"><g class="fills"/><g class="errorbars"/><g class="lines"><path class="js-line" d="M83.63,67L88.85,67" style="vector-effect: none; fill: none; stroke: rgb(0, 0, 0); stroke-opacity: 1; stroke-width: 3px; opacity: 1;"/></g><g class="points"/><g class="text"/></g><g class="trace scatter trace99c5ba" style="stroke-miterlimit: 2; opacity: 1;"><g class="fills"><g><path class="js-fill" d="M83.63,67L83.63,50.25L52.07,50.25L52.07,33.5L35.08,67L52.07,100.5L52.07,83.75L83.63,83.75L83.63,67Z" style="fill: rgb(128, 128, 128); fill-opacity: 0.5; stroke-width: 0;"/></g></g><g class="errorbars"/><g class="lines"><path class="js-line" d="M83.63,67L83.63,50.25L52.07,50.25L52.07,33.5L35.08,67L52.07,100.5L52.07,83.75L83.63,83.75L83.63,67" style="vector-effect: none; fill: none; stroke: rgb(128, 128, 128); stroke-opacity: 1; stroke-width: 1.5px; opacity: 1;"/></g><g class="points"/><g class="text"/></g><g class="trace scatter tracede16c1" style="stroke-miterlimit: 2; opacity: 1;"><g class="fills"/><g class="errorbars"/><g class="lines"><path class="js-line" d="M140.51,67L141.23,67" style="vector-effect: none; fill: none; stroke: rgb(0, 0, 0); stroke-opacity: 1; stroke-width: 3px; opacity: 1;"/></g><g class="points"/><g class="text"/></g><g class="trace scatter tracec041f9" style="stroke-miterlimit: 2; opacity: 1;"><g class="fills"><g><path class="js-fill" d="M140.51,67L140.51,50.25L106.93,50.25L106.93,33.5L88.85,67L106.93,100.5L106.93,83.75L140.51,83.75L140.51,67Z" style="fill: rgb(128, 128, 128); fill-opacity: 0.5; stroke-width: 0;"/></g></g><g class="errorbars"/><g class="lines"><path class="js-line" d="M140.51,67L140.51,50.25L106.93,50.25L106.93,33.5L88.85,67L106.93,100.5L106.93,83.75L140.51,83.75L140.51,67" style="vector-effect: none; fill: none; stroke: rgb(128, 128, 128); stroke-opacity: 1; stroke-width: 1.5px; opacity: 1;"/></g><g class="points"/><g class="text"/></g><g class="trace scatter trace7fad2a" style="stroke-miterlimit: 2; opacity: 1;"><g class="fills"/><g class="errorbars"/><g class="lines"><path class="js-line" d="M188.82,67L195.79,67" style="vector-effect: none; fill: none; stroke: rgb(0, 0, 0); stroke-opacity: 1; stroke-width: 3px; opacity: 1;"/></g><g class="points"/><g class="text"/></g><g class="trace scatter trace1c0ab0" style="stroke-miterlimit: 2; opacity: 1;"><g class="fills"><g><path class="js-fill" d="M188.82,67L188.82,50.25L157.89,50.25L157.89,33.5L141.23,67L157.89,100.5L157.89,83.75L188.82,83.75L188.82,67Z" style="fill: rgb(128, 128, 128); fill-opacity: 0.5; stroke-width: 0;"/></g></g><g class="errorbars"/><g class="lines"><path class="js-line" d="M188.82,67L188.82,50.25L157.89,50.25L157.89,33.5L141.23,67L157.89,100.5L157.89,83.75L188.82,83.75L188.82,67" style="vector-effect: none; fill: none; stroke: rgb(128, 128, 128); stroke-opacity: 1; stroke-width: 1.5px; opacity: 1;"/></g><g class="points"/><g class="text"/></g><g class="trace scatter tracea75c2e" style="stroke-miterlimit: 2; opacity: 1;"><g class="fills"/><g class="errorbars"/><g class="lines"><path class="js-line" d="M221.07,67L223.43,67" style="vector-effect: none; fill: none; stroke: rgb(0, 0, 0); stroke-opacity: 1; stroke-width: 3px; opacity: 1;"/></g><g class="points"/><g class="text"/></g><g class="trace scatter tracea2d0ed" style="stroke-miterlimit: 2; opacity: 1;"><g class="fills"><g><path class="js-fill" d="M221.07,67L221.07,50.25L204.64,50.25L204.64,33.5L195.79,67L204.64,100.5L204.64,83.75L221.07,83.75L221.07,67Z" style="fill: rgb(128, 128, 128); fill-opacity: 0.5; stroke-width: 0;"/></g></g><g class="errorbars"/><g class="lines"><path class="js-line" d="M221.07,67L221.07,50.25L204.64,50.25L204.64,33.5L195.79,67L204.64,100.5L204.64,83.75L221.07,83.75L221.07,67" style="vector-effect: none; fill: none; stroke: rgb(128, 128, 128); stroke-opacity: 1; stroke-width: 1.5px; opacity: 1;"/></g><g class="points"/><g class="text"/></g><g class="trace scatter trace57b162" style="stroke-miterlimit: 2; opacity: 1;"><g class="fills"/><g class="errorbars"/><g class="lines"><path class="js-line" d="M249.14,67L251.28,67" style="vector-effect: none; fill: none; stroke: rgb(0, 0, 0); stroke-opacity: 1; stroke-width: 3px; opacity: 1;"/></g><g class="points"/><g class="text"/></g><g class="trace scatter tracea34ba5" style="stroke-miterlimit: 2; opacity: 1;"><g class="fills"><g><path class="js-fill" d="M249.14,67L249.14,50.25L232.43,50.25L232.43,33.5L223.43,67L232.43,100.5L232.43,83.75L249.14,83.75L249.14,67Z" style="fill: rgb(128, 128, 128); fill-opacity: 0.5; stroke-width: 0;"/></g></g><g class="errorbars"/><g class="lines"><path class="js-line" d="M249.14,67L249.14,50.25L232.43,50.25L232.43,33.5L223.43,67L232.43,100.5L232.43,83.75L249.14,83.75L249.14,67" style="vector-effect: none; fill: none; stroke: rgb(128, 128, 128); stroke-opacity: 1; stroke-width: 1.5px; opacity: 1;"/></g><g class="points"/><g class="text"/></g><g class="trace scatter trace701ea8" style="stroke-miterlimit: 2; opacity: 1;"><g class="fills"/><g class="errorbars"/><g class="lines"><path class="js-line" d="M278.81,67L279.85,67" style="vector-effect: none; fill: none; stroke: rgb(0, 0, 0); stroke-opacity: 1; stroke-width: 3px; opacity: 1;"/></g><g class="points"/><g class="text"/></g><g class="trace scatter trace740444" style="stroke-miterlimit: 2; opacity: 1;"><g class="fills"><g><path class="js-fill" d="M278.81,67L278.81,50.25L260.92,50.25L260.92,33.5L251.28,67L260.92,100.5L260.92,83.75L278.81,83.75L278.81,67Z" style="fill: rgb(128, 128, 128); fill-opacity: 0.5; stroke-width: 0;"/></g></g><g class="errorbars"/><g class="lines"><path class="js-line" d="M278.81,67L278.81,50.25L260.92,50.25L260.92,33.5L251.28,67L260.92,100.5L260.92,83.75L278.81,83.75L278.81,67" style="vector-effect: none; fill: none; stroke: rgb(128, 128, 128); stroke-opacity: 1; stroke-width: 1.5px; opacity: 1;"/></g><g class="points"/><g class="text"/></g><g class="trace scatter traced1c940" style="stroke-miterlimit: 2; opacity: 1;"><g class="fills"/><g class="errorbars"/><g class="lines"><path class="js-line" d="M330.98,67L342.46,67" style="vector-effect: none; fill: none; stroke: rgb(0, 0, 0); stroke-opacity: 1; stroke-width: 3px; opacity: 1;"/></g><g class="points"/><g class="text"/></g><g class="trace scatter tracebc648f" style="stroke-miterlimit: 2; opacity: 1;"><g class="fills"><g><path class="js-fill" d="M330.98,67L330.98,50.25L297.74,50.25L297.74,33.5L279.85,67L297.74,100.5L297.74,83.75L330.98,83.75L330.98,67Z" style="fill: rgb(128, 128, 128); fill-opacity: 0.5; stroke-width: 0;"/></g></g><g class="errorbars"/><g class="lines"><path class="js-line" d="M330.98,67L330.98,50.25L297.74,50.25L297.74,33.5L279.85,67L297.74,100.5L297.74,83.75L330.98,83.75L330.98,67" style="vector-effect: none; fill: none; stroke: rgb(128, 128, 128); stroke-opacity: 1; stroke-width: 1.5px; opacity: 1;"/></g><g class="points"/><g class="text"/></g><g class="trace scatter trace0ebb8c" style="stroke-miterlimit: 2; opacity: 1;"><g class="fills"/><g class="errorbars"/><g class="lines"><path class="js-line" d="M357.54,67L362.41,67" style="vector-effect: none; fill: none; stroke: rgb(0, 0, 0); stroke-opacity: 1; stroke-width: 3px; opacity: 1;"/></g><g class="points"/><g class="text"/></g><g class="trace scatter trace362aad" style="stroke-miterlimit: 2; opacity: 1;"><g class="fills"><g><path class="js-fill" d="M357.54,67L357.54,50.25L347.74,50.25L347.74,33.5L342.46,67L347.74,100.5L347.74,83.75L357.54,83.75L357.54,67Z" style="fill: rgb(255, 20, 20); fill-opacity: 0.5; stroke-width: 0;"/></g></g><g class="errorbars"/><g class="lines"><path class="js-line" d="M357.54,67L357.54,50.25L347.74,50.25L347.74,33.5L342.46,67L347.74,100.5L347.74,83.75L357.54,83.75L357.54,67" style="vector-effect: none; fill: none; stroke: rgb(255, 20, 20); stroke-opacity: 1; stroke-width: 1.5px; opacity: 1;"/></g><g class="points"/><g class="text"/></g><g class="trace scatter trace5d01ad" style="stroke-miterlimit: 2; opacity: 1;"><g class="fills"/><g class="errorbars"/><g class="lines"><path class="js-line" d="M406.56,67" style="vector-effect: none; fill: none; stroke: rgb(0, 0, 0); stroke-opacity: 1; stroke-width: 3px; opacity: 1;"/></g><g class="points"/><g class="text"/></g><g class="trace scatter tracef0a3c5" style="stroke-miterlimit: 2; opacity: 1;"><g class="fills"><g><path class="js-fill" d="M362.41,67L362.41,50.25L391.11,50.25L391.11,33.5L406.56,67L391.11,100.5L391.11,83.75L362.41,83.75L362.41,67Z" style="fill: rgb(128, 128, 128); fill-opacity: 0.5; stroke-width: 0;"/></g></g><g class="errorbars"/><g class="lines"><path class="js-line" d="M362.41,67L362.41,50.25L391.11,50.25L391.11,33.5L406.56,67L391.11,100.5L391.11,83.75L362.41,83.75L362.41,67" style="vector-effect: none; fill: none; stroke: rgb(128, 128, 128); stroke-opacity: 1; stroke-width: 1.5px; opacity: 1;"/></g><g class="points"/><g class="text"/></g><g class="trace scatter traceb716a7" style="stroke-miterlimit: 2; opacity: 1;"><g class="fills"/><g class="errorbars"/><g class="lines"><path class="js-line" d="M445.61,67L459.91,67" style="vector-effect: none; fill: none; stroke: rgb(0, 0, 0); stroke-opacity: 1; stroke-width: 3px; opacity: 1;"/></g><g class="points"/><g class="text"/></g><g class="trace scatter trace18b75b" style="stroke-miterlimit: 2; opacity: 1;"><g class="fills"><g><path class="js-fill" d="M406.46,67L406.46,50.25L431.9,50.25L431.9,33.5L445.61,67L431.9,100.5L431.9,83.75L406.46,83.75L406.46,67Z" style="fill: rgb(128, 128, 128); fill-opacity: 0.5; stroke-width: 0;"/></g></g><g class="errorbars"/><g class="lines"><path class="js-line" d="M406.46,67L406.46,50.25L431.9,50.25L431.9,33.5L445.61,67L431.9,100.5L431.9,83.75L406.46,83.75L406.46,67" style="vector-effect: none; fill: none; stroke: rgb(128, 128, 128); stroke-opacity: 1; stroke-width: 1.5px; opacity: 1;"/></g><g class="points"/><g class="text"/></g><g class="trace scatter tracefbf0a6" style="stroke-miterlimit: 2; opacity: 1;"><g class="fills"/><g class="errorbars"/><g class="lines"><path class="js-line" d="M512.22,67L515.15,67" style="vector-effect: none; fill: none; stroke: rgb(0, 0, 0); stroke-opacity: 1; stroke-width: 3px; opacity: 1;"/></g><g class="points"/><g class="text"/></g><g class="trace scatter tracec8cf12" style="stroke-miterlimit: 2; opacity: 1;"><g class="fills"><g><path class="js-fill" d="M459.91,67L459.91,50.25L493.91,50.25L493.91,33.5L512.22,67L493.91,100.5L493.91,83.75L459.91,83.75L459.91,67Z" style="fill: rgb(128, 128, 128); fill-opacity: 0.5; stroke-width: 0;"/></g></g><g class="errorbars"/><g class="lines"><path class="js-line" d="M459.91,67L459.91,50.25L493.91,50.25L493.91,33.5L512.22,67L493.91,100.5L493.91,83.75L459.91,83.75L459.91,67" style="vector-effect: none; fill: none; stroke: rgb(128, 128, 128); stroke-opacity: 1; stroke-width: 1.5px; opacity: 1;"/></g><g class="points"/><g class="text"/></g><g class="trace scatter tracef0c6e9" style="stroke-miterlimit: 2; opacity: 1;"><g class="fills"/><g class="errorbars"/><g class="lines"><path class="js-line" d="M567.35,67L572,67" style="vector-effect: none; fill: none; stroke: rgb(0, 0, 0); stroke-opacity: 1; stroke-width: 3px; opacity: 1;"/></g><g class="points"/><g class="text"/></g><g class="trace scatter trace80ffdb" style="stroke-miterlimit: 2; opacity: 1;"><g class="fills"><g><path class="js-fill" d="M567.35,67L567.35,50.25L533.42,50.25L533.42,33.5L515.15,67L533.42,100.5L533.42,83.75L567.35,83.75L567.35,67Z" style="fill: rgb(128, 128, 128); fill-opacity: 0.5; stroke-width: 0;"/></g></g><g class="errorbars"/><g class="lines"><path class="js-line" d="M567.35,67L567.35,50.25L533.42,50.25L533.42,33.5L515.15,67L533.42,100.5L533.42,83.75L567.35,83.75L567.35,67" style="vector-effect: none; fill: none; stroke: rgb(128, 128, 128); stroke-opacity: 1; stroke-width: 1.5px; opacity: 1;"/></g><g class="points"/><g class="text"/></g><g class="trace scatter trace93f456" style="stroke-miterlimit: 2; opacity: 1;"><g class="fills"/><g class="errorbars"/><g class="lines"><path class="js-line" d="M610.26,67L610.83,67" style="vector-effect: none; fill: none; stroke: rgb(0, 0, 0); stroke-opacity: 1; stroke-width: 3px; opacity: 1;"/></g><g class="points"/><g class="text"/></g><g class="trace scatter trace741b89" style="stroke-miterlimit: 2; opacity: 1;"><g class="fills"><g><path class="js-fill" d="M572,67L572,50.25L596.87,50.25L596.87,33.5L610.26,67L596.87,100.5L596.87,83.75L572,83.75L572,67Z" style="fill: rgb(128, 128, 128); fill-opacity: 0.5; stroke-width: 0;"/></g></g><g class="errorbars"/><g class="lines"><path class="js-line" d="M572,67L572,50.25L596.87,50.25L596.87,33.5L610.26,67L596.87,100.5L596.87,83.75L572,83.75L572,67" style="vector-effect: none; fill: none; stroke: rgb(128, 128, 128); stroke-opacity: 1; stroke-width: 1.5px; opacity: 1;"/></g><g class="points"/><g class="text"/></g><g class="trace scatter traceba3312" style="stroke-miterlimit: 2; opacity: 1;"><g class="fills"/><g class="errorbars"/><g class="lines"><path class="js-line" d="M642.86,67L647.37,67" style="vector-effect: none; fill: none; stroke: rgb(0, 0, 0); stroke-opacity: 1; stroke-width: 3px; opacity: 1;"/></g><g class="points"/><g class="text"/></g><g class="trace scatter traceaa8853" style="stroke-miterlimit: 2; opacity: 1;"><g class="fills"><g><path class="js-fill" d="M642.86,67L642.86,50.25L622.04,50.25L622.04,33.5L610.83,67L622.04,100.5L622.04,83.75L642.86,83.75L642.86,67Z" style="fill: rgb(128, 128, 128); fill-opacity: 0.5; stroke-width: 0;"/></g></g><g class="errorbars"/><g class="lines"><path class="js-line" d="M642.86,67L642.86,50.25L622.04,50.25L622.04,33.5L610.83,67L622.04,100.5L622.04,83.75L642.86,83.75L642.86,67" style="vector-effect: none; fill: none; stroke: rgb(128, 128, 128); stroke-opacity: 1; stroke-width: 1.5px; opacity: 1;"/></g><g class="points"/><g class="text"/></g><g class="trace scatter trace2569d5" style="stroke-miterlimit: 2; opacity: 1;"><g class="fills"/><g class="errorbars"/><g class="lines"><path class="js-line" d="M702.68,67L705.22,67" style="vector-effect: none; fill: none; stroke: rgb(0, 0, 0); stroke-opacity: 1; stroke-width: 3px; opacity: 1;"/></g><g class="points"/><g class="text"/></g><g class="trace scatter trace036b39" style="stroke-miterlimit: 2; opacity: 1;"><g class="fills"><g><path class="js-fill" d="M702.68,67L702.68,50.25L666.73,50.25L666.73,33.5L647.37,67L666.73,100.5L666.73,83.75L702.68,83.75L702.68,67Z" style="fill: rgb(128, 128, 128); fill-opacity: 0.5; stroke-width: 0;"/></g></g><g class="errorbars"/><g class="lines"><path class="js-line" d="M702.68,67L702.68,50.25L666.73,50.25L666.73,33.5L647.37,67L666.73,100.5L666.73,83.75L702.68,83.75L702.68,67" style="vector-effect: none; fill: none; stroke: rgb(128, 128, 128); stroke-opacity: 1; stroke-width: 1.5px; opacity: 1;"/></g><g class="points"/><g class="text"/></g><g class="trace scatter traceaf7809" style="stroke-miterlimit: 2; opacity: 1;"><g class="fills"/><g class="errorbars"/><g class="lines"><path class="js-line" d="M753.77,67L764,67" style="vector-effect: none; fill: none; stroke: rgb(0, 0, 0); stroke-opacity: 1; stroke-width: 3px; opacity: 1;"/></g><g class="points"/><g class="text"/></g><g class="trace scatter tracef56f1f" style="stroke-miterlimit: 2; opacity: 1;"><g class="fills"><g><path class="js-fill" d="M753.77,67L753.77,50.25L722.21,50.25L722.21,33.5L705.22,67L722.21,100.5L722.21,83.75L753.77,83.75L753.77,67Z" style="fill: rgb(128, 128, 128); fill-opacity: 0.5; stroke-width: 0;"/></g></g><g class="errorbars"/><g class="lines"><path class="js-line" d="M753.77,67L753.77,50.25L722.21,50.25L722.21,33.5L705.22,67L722.21,100.5L722.21,83.75L753.77,83.75L753.77,67" style="vector-effect: none; fill: none; stroke: rgb(128, 128, 128); stroke-opacity: 1; stroke-width: 1.5px; opacity: 1;"/></g><g class="points"/><g class="text"/></g><g class="trace scatter traceed026f" style="stroke-miterlimit: 2; opacity: 1;"><g class="fills"/><g class="errorbars"/><g class="lines"><path class="js-line" d="M811.7,67L817.52,67" style="vector-effect: none; fill: none; stroke: rgb(0, 0, 0); stroke-opacity: 1; stroke-width: 3px; opacity: 1;"/></g><g class="points"/><g class="text"/></g><g class="trace scatter trace7d4a93" style="stroke-miterlimit: 2; opacity: 1;"><g class="fills"><g><path class="js-fill" d="M764,67L764,50.25L795,50.25L795,33.5L811.7,67L795,100.5L795,83.75L764,83.75L764,67Z" style="fill: rgb(128, 128, 128); fill-opacity: 0.5; stroke-width: 0;"/></g></g><g class="errorbars"/><g class="lines"><path class="js-line" d="M764,67L764,50.25L795,50.25L795,33.5L811.7,67L795,100.5L795,83.75L764,83.75L764,67" style="vector-effect: none; fill: none; stroke: rgb(128, 128, 128); stroke-opacity: 1; stroke-width: 1.5px; opacity: 1;"/></g><g class="points"/><g class="text"/></g><g class="trace scatter trace2fbce0" style="stroke-miterlimit: 2; opacity: 1;"><g class="fills"/><g class="errorbars"/><g class="lines"><path class="js-line" d="M850.1,67L851.21,67" style="vector-effect: none; fill: none; stroke: rgb(0, 0, 0); stroke-opacity: 1; stroke-width: 3px; opacity: 1;"/></g><g class="points"/><g class="text"/></g><g class="trace scatter trace7dc559" style="stroke-miterlimit: 2; opacity: 1;"><g class="fills"><g><path class="js-fill" d="M817.52,67L817.52,50.25L838.7,50.25L838.7,33.5L850.1,67L838.7,100.5L838.7,83.75L817.52,83.75L817.52,67Z" style="fill: rgb(128, 128, 128); fill-opacity: 0.5; stroke-width: 0;"/></g></g><g class="errorbars"/><g class="lines"><path class="js-line" d="M817.52,67L817.52,50.25L838.7,50.25L838.7,33.5L850.1,67L838.7,100.5L838.7,83.75L817.52,83.75L817.52,67" style="vector-effect: none; fill: none; stroke: rgb(128, 128, 128); stroke-opacity: 1; stroke-width: 1.5px; opacity: 1;"/></g><g class="points"/><g class="text"/></g><g class="trace scatter trace24a2c7" style="stroke-miterlimit: 2; opacity: 1;"><g class="fills"/><g class="errorbars"/><g class="lines"><path class="js-line" d="M907.91,67L916.6,67" style="vector-effect: none; fill: none; stroke: rgb(0, 0, 0); stroke-opacity: 1; stroke-width: 3px; opacity: 1;"/></g><g class="points"/><g class="text"/></g><g class="trace scatter trace3a3da9" style="stroke-miterlimit: 2; opacity: 1;"><g class="fills"><g><path class="js-fill" d="M851.21,67L851.21,50.25L888.06,50.25L888.06,33.5L907.91,67L888.06,100.5L888.06,83.75L851.21,83.75L851.21,67Z" style="fill: rgb(128, 128, 128); fill-opacity: 0.5; stroke-width: 0;"/></g></g><g class="errorbars"/><g class="lines"><path class="js-line" d="M851.21,67L851.21,50.25L888.06,50.25L888.06,33.5L907.91,67L888.06,100.5L888.06,83.75L851.21,83.75L851.21,67" style="vector-effect: none; fill: none; stroke: rgb(128, 128, 128); stroke-opacity: 1; stroke-width: 1.5px; opacity: 1;"/></g><g class="points"/><g class="text"/></g><g class="trace scatter traceff7e78" style="stroke-miterlimit: 2; opacity: 1;"><g class="fills"/><g class="errorbars"/><g class="lines"><path class="js-line" d="M942.09,67L944.42,67" style="vector-effect: none; fill: none; stroke: rgb(0, 0, 0); stroke-opacity: 1; stroke-width: 3px; opacity: 1;"/></g><g class="points"/><g class="text"/></g><g class="trace scatter tracead9af8" style="stroke-miterlimit: 2; opacity: 1;"><g class="fills"><g><path class="js-fill" d="M916.6,67L916.6,50.25L933.17,50.25L933.17,33.5L942.09,67L933.17,100.5L933.17,83.75L916.6,83.75L916.6,67Z" style="fill: rgb(128, 128, 128); fill-opacity: 0.5; stroke-width: 0;"/></g></g><g class="errorbars"/><g class="lines"><path class="js-line" d="M916.6,67L916.6,50.25L933.17,50.25L933.17,33.5L942.09,67L933.17,100.5L933.17,83.75L916.6,83.75L916.6,67" style="vector-effect: none; fill: none; stroke: rgb(128, 128, 128); stroke-opacity: 1; stroke-width: 1.5px; opacity: 1;"/></g><g class="points"/><g class="text"/></g><g class="trace scatter trace0ab9b2" style="stroke-miterlimit: 2; opacity: 1;"><g class="fills"/><g class="errorbars"/><g class="lines"><path class="js-line" d="M1007.02,67L1008.24,67" style="vector-effect: none; fill: none; stroke: rgb(0, 0, 0); stroke-opacity: 1; stroke-width: 3px; opacity: 1;"/></g><g class="points"/><g class="text"/></g><g class="trace scatter trace2df155" style="stroke-miterlimit: 2; opacity: 1;"><g class="fills"><g><path class="js-fill" d="M1007.02,67L1007.02,50.25L966.33,50.25L966.33,33.5L944.42,67L966.33,100.5L966.33,83.75L1007.02,83.75L1007.02,67Z" style="fill: rgb(128, 128, 128); fill-opacity: 0.5; stroke-width: 0;"/></g></g><g class="errorbars"/><g class="lines"><path class="js-line" d="M1007.02,67L1007.02,50.25L966.33,50.25L966.33,33.5L944.42,67L966.33,100.5L966.33,83.75L1007.02,83.75L1007.02,67" style="vector-effect: none; fill: none; stroke: rgb(128, 128, 128); stroke-opacity: 1; stroke-width: 1.5px; opacity: 1;"/></g><g class="points"/><g class="text"/></g><g class="trace scatter traceafc11c" style="stroke-miterlimit: 2; opacity: 1;"><g class="fills"><g><path class="js-fill" d="M1022.15,67L1022.15,50.25L1013.11,50.25L1013.11,33.5L1008.24,67L1013.11,100.5L1013.11,83.75L1022.15,83.75L1022.15,67Z" style="fill: rgb(128, 128, 128); fill-opacity: 0.5; stroke-width: 0;"/></g></g><g class="errorbars"/><g class="lines"><path class="js-line" d="M1022.15,67L1022.15,50.25L1013.11,50.25L1013.11,33.5L1008.24,67L1013.11,100.5L1013.11,83.75L1022.15,83.75L1022.15,67" style="vector-effect: none; fill: none; stroke: rgb(128, 128, 128); stroke-opacity: 1; stroke-width: 1.5px; opacity: 1;"/></g><g class="points"/><g class="text"/></g></g></g><g class="overplot"/><path class="xlines-above crisp" d="M0,0" style="fill: none;"/><path class="ylines-above crisp" d="M0,0" style="fill: none;"/><g class="overlines-above"/><g class="xaxislayer-above"><g class="xtick"><text text-anchor="middle" x="0" y="147" transform="translate(138.83,0)" style="font-family: 'Open Sans', verdana, arial, sans-serif; font-size: 12px; fill: rgb(42, 63, 95); fill-opacity: 1; white-space: pre; opacity: 1;">1.315M</text></g><g class="xtick"><text text-anchor="middle" x="0" y="147" style="font-family: 'Open Sans', verdana, arial, sans-serif; font-size: 12px; fill: rgb(42, 63, 95); fill-opacity: 1; white-space: pre; opacity: 1;" transform="translate(317.61,0)">1.32M</text></g><g class="xtick"><text text-anchor="middle" x="0" y="147" style="font-family: 'Open Sans', verdana, arial, sans-serif; font-size: 12px; fill: rgb(42, 63, 95); fill-opacity: 1; white-space: pre; opacity: 1;" transform="translate(496.38,0)">1.325M</text></g><g class="xtick"><text text-anchor="middle" x="0" y="147" style="font-family: 'Open Sans', verdana, arial, sans-serif; font-size: 12px; fill: rgb(42, 63, 95); fill-opacity: 1; white-space: pre; opacity: 1;" transform="translate(675.15,0)">1.33M</text></g></g><g class="yaxislayer-above"/><g class="overaxes-above"/></g></g><g class="polarlayer"/><g class="smithlayer"/><g class="ternarylayer"/><g class="geolayer"/><g class="funnelarealayer"/><g class="pielayer"/><g class="iciclelayer"/><g class="treemaplayer"/><g class="sunburstlayer"/><g class="glimages"/><defs id="topdefs-2281ab"><g class="clips"/></defs><g class="layer-above"><g class="imagelayer"/><g class="shapelayer"/></g><g class="infolayer"><g class="g-gtitle"/><g class="g-xtitle"/><g class="g-ytitle"/></g></svg>